<ttFont>
    <TTGlyph name="A" xMin="0" yMin="-14" xMax="1581" yMax="1437">
      <contour>
        <pt x="750" y="1259" on="1"/>
        <pt x="499" y="526" on="1"/>
        <pt x="1005" y="526" on="1"/>
        <pt x="759" y="1259" on="1"/>
      </contour>
      <contour>
        <pt x="1352" y="259" on="1"/>
        <pt x="1368" y="217" on="0"/>
        <pt x="1397" y="158" on="0"/>
        <pt x="1412" y="135" on="1"/>
        <pt x="1435" y="129" on="0"/>
        <pt x="1482" y="126" on="0"/>
        <pt x="1508" y="126" on="1"/>
        <pt x="1552" y="126" on="1"/>
        <pt x="1581" y="-14" on="1"/>
        <pt x="1514" y="-4" on="0"/>
        <pt x="1395" y="0" on="0"/>
        <pt x="1339" y="0" on="1"/>
        <pt x="1298" y="0" on="0"/>
        <pt x="1223" y="-1" on="0"/>
        <pt x="1151" y="-4" on="0"/>
        <pt x="1079" y="-9" on="0"/>
        <pt x="1041" y="-14" on="1"/>
        <pt x="1022" y="126" on="1"/>
        <pt x="1039" y="126" on="1"/>
        <pt x="1068" y="126" on="0"/>
        <pt x="1118" y="128" on="0"/>
        <pt x="1138" y="135" on="1"/>
        <pt x="1137" y="158" on="0"/>
        <pt x="1124" y="218" on="0"/>
        <pt x="1109" y="256" on="1"/>
        <pt x="1043" y="423" on="1"/>
        <pt x="466" y="423" on="1"/>
        <pt x="412" y="259" on="1"/>
        <pt x="400" y="223" on="0"/>
        <pt x="389" y="170" on="0"/>
        <pt x="389" y="147" on="1"/>
        <pt x="389" y="139" on="0"/>
        <pt x="403" y="131" on="0"/>
        <pt x="424" y="127" on="0"/>
        <pt x="449" y="126" on="0"/>
        <pt x="461" y="126" on="1"/>
        <pt x="507" y="126" on="1"/>
        <pt x="498" y="-14" on="1"/>
        <pt x="442" y="-4" on="0"/>
        <pt x="337" y="0" on="0"/>
        <pt x="286" y="0" on="1"/>
        <pt x="210" y="0" on="0"/>
        <pt x="76" y="-4" on="0"/>
        <pt x="0" y="-14" on="1"/>
        <pt x="30" y="126" on="1"/>
        <pt x="76" y="126" on="1"/>
        <pt x="103" y="126" on="0"/>
        <pt x="150" y="128" on="0"/>
        <pt x="172" y="135" on="1"/>
        <pt x="189" y="158" on="0"/>
        <pt x="219" y="218" on="0"/>
        <pt x="233" y="256" on="1"/>
        <pt x="245" y="289" on="0"/>
        <pt x="297" y="425" on="0"/>
        <pt x="367" y="604" on="0"/>
        <pt x="448" y="810" on="0"/>
        <pt x="489" y="913" on="1"/>
        <pt x="697" y="1437" on="1"/>
        <pt x="789" y="1437" on="1"/>
        <pt x="834" y="1437" on="0"/>
        <pt x="887" y="1429" on="0"/>
        <pt x="911" y="1421" on="1"/>
      </contour>
    </TTGlyph>
    <TTGlyph name="AE" xMin="0" yMin="-14" xMax="2179" yMax="1437">
      <contour>
        <pt x="1330" y="0" on="1"/>
        <pt x="1258" y="0" on="0"/>
        <pt x="1098" y="-5" on="0"/>
        <pt x="1026" y="-14" on="1"/>
        <pt x="1026" y="126" on="1"/>
        <pt x="1048" y="126" on="1"/>
        <pt x="1077" y="126" on="0"/>
        <pt x="1127" y="128" on="0"/>
        <pt x="1149" y="135" on="1"/>
        <pt x="1150" y="142" on="0"/>
        <pt x="1150" y="157" on="0"/>
        <pt x="1150" y="168" on="1"/>
        <pt x="1150" y="203" on="0"/>
        <pt x="1139" y="256" on="1"/>
        <pt x="1106" y="423" on="1"/>
        <pt x="531" y="423" on="1"/>
        <pt x="452" y="259" on="1"/>
        <pt x="435" y="223" on="0"/>
        <pt x="412" y="167" on="0"/>
        <pt x="412" y="144" on="1"/>
        <pt x="412" y="137" on="0"/>
        <pt x="425" y="130" on="0"/>
        <pt x="444" y="127" on="0"/>
        <pt x="468" y="126" on="0"/>
        <pt x="479" y="126" on="1"/>
        <pt x="526" y="126" on="1"/>
        <pt x="496" y="-14" on="1"/>
        <pt x="440" y="-4" on="0"/>
        <pt x="337" y="0" on="0"/>
        <pt x="286" y="0" on="1"/>
        <pt x="248" y="0" on="0"/>
        <pt x="178" y="-1" on="0"/>
        <pt x="109" y="-4" on="0"/>
        <pt x="38" y="-9" on="0"/>
        <pt x="0" y="-14" on="1"/>
        <pt x="51" y="126" on="1"/>
        <pt x="97" y="126" on="1"/>
        <pt x="122" y="126" on="0"/>
        <pt x="169" y="128" on="0"/>
        <pt x="193" y="135" on="1"/>
        <pt x="213" y="158" on="0"/>
        <pt x="251" y="218" on="0"/>
        <pt x="273" y="256" on="1"/>
        <pt x="289" y="289" on="0"/>
        <pt x="364" y="425" on="0"/>
        <pt x="462" y="603" on="0"/>
        <pt x="575" y="809" on="0"/>
        <pt x="630" y="913" on="1"/>
        <pt x="909" y="1437" on="1"/>
        <pt x="1805" y="1437" on="1"/>
        <pt x="1837" y="1364" on="0"/>
        <pt x="1881" y="1260" on="0"/>
        <pt x="1909" y="1191" on="0"/>
        <pt x="1923" y="1153" on="0"/>
        <pt x="1925" y="1144" on="1"/>
        <pt x="1779" y="1138" on="1"/>
        <pt x="1760" y="1188" on="1"/>
        <pt x="1752" y="1210" on="0"/>
        <pt x="1730" y="1259" on="0"/>
        <pt x="1716" y="1282" on="1"/>
        <pt x="1673" y="1299" on="0"/>
        <pt x="1532" y="1310" on="0"/>
        <pt x="1414" y="1310" on="1"/>
        <pt x="1399" y="1310" on="0"/>
        <pt x="1354" y="1310" on="0"/>
        <pt x="1290" y="1309" on="0"/>
        <pt x="1204" y="1307" on="0"/>
        <pt x="1147" y="1306" on="1"/>
        <pt x="1259" y="799" on="1"/>
        <pt x="1599" y="799" on="1"/>
        <pt x="1619" y="799" on="0"/>
        <pt x="1653" y="804" on="0"/>
        <pt x="1679" y="825" on="0"/>
        <pt x="1694" y="870" on="0"/>
        <pt x="1696" y="910" on="1"/>
        <pt x="1748" y="910" on="1"/>
        <pt x="1768" y="819" on="0"/>
        <pt x="1802" y="636" on="0"/>
        <pt x="1814" y="555" on="1"/>
        <pt x="1751" y="555" on="1"/>
        <pt x="1730" y="592" on="0"/>
        <pt x="1696" y="640" on="0"/>
        <pt x="1661" y="668" on="0"/>
        <pt x="1621" y="679" on="0"/>
        <pt x="1593" y="679" on="1"/>
        <pt x="1286" y="679" on="1"/>
        <pt x="1410" y="126" on="1"/>
        <pt x="1866" y="126" on="1"/>
        <pt x="1917" y="126" on="0"/>
        <pt x="1994" y="146" on="0"/>
        <pt x="2006" y="160" on="1"/>
        <pt x="2007" y="168" on="0"/>
        <pt x="2008" y="186" on="0"/>
        <pt x="2008" y="197" on="1"/>
        <pt x="2008" y="220" on="0"/>
        <pt x="2003" y="282" on="0"/>
        <pt x="1997" y="327" on="1"/>
        <pt x="2022" y="327" on="0"/>
        <pt x="2092" y="325" on="0"/>
        <pt x="2124" y="325" on="1"/>
        <pt x="2146" y="209" on="1"/>
        <pt x="2155" y="161" on="0"/>
        <pt x="2174" y="57" on="0"/>
        <pt x="2179" y="21" on="1"/>
        <pt x="2151" y="12" on="0"/>
        <pt x="2086" y="-1" on="0"/>
        <pt x="1998" y="-10" on="0"/>
        <pt x="1878" y="-14" on="0"/>
        <pt x="1795" y="-14" on="1"/>
        <pt x="1733" y="-14" on="0"/>
        <pt x="1618" y="-10" on="0"/>
        <pt x="1505" y="-4" on="0"/>
        <pt x="1391" y="0" on="0"/>
      </contour>
      <contour>
        <pt x="1084" y="526" on="1"/>
        <pt x="949" y="1231" on="1"/>
        <pt x="580" y="526" on="1"/>
      </contour>
    </TTGlyph>
    <TTGlyph name="Aacute" xMin="0" yMin="-14" xMax="1581" yMax="1903">
      <component glyphName="acute" x="284" y="316" flags="0x1004"/>
      <component glyphName="A" x="0" y="0" flags="0x1204"/>
    </TTGlyph>
    <TTGlyph name="Abreve" xMin="0" yMin="-14" xMax="1581" yMax="1910">
      <component glyphName="breve" x="112" y="314" flags="0x1004"/>
      <component glyphName="A" x="0" y="0" flags="0x1204"/>
    </TTGlyph>
    <TTGlyph name="Acircumflex" xMin="0" yMin="-14" xMax="1581" yMax="1903">
      <component glyphName="circumflex" x="128" y="316" flags="0x1004"/>
      <component glyphName="A" x="0" y="0" flags="0x1204"/>
    </TTGlyph>
    <TTGlyph name="Adieresis" xMin="0" yMin="-14" xMax="1581" yMax="1805">
      <component glyphName="dieresis" x="302" y="281" flags="0x1004"/>
      <component glyphName="A" x="0" y="0" flags="0x1204"/>
    </TTGlyph>
    <TTGlyph name="Agrave" xMin="0" yMin="-14" xMax="1581" yMax="1903">
      <component glyphName="grave" x="-20" y="316" flags="0x1004"/>
      <component glyphName="A" x="0" y="0" flags="0x1204"/>
    </TTGlyph>
    <TTGlyph name="Aogonek" xMin="0" yMin="-434" xMax="1581" yMax="1437">
      <component glyphName="ogonek" x="820" y="2" flags="0x1004"/>
      <component glyphName="A" x="0" y="0" flags="0x1004"/>
    </TTGlyph>
    <TTGlyph name="Aring" xMin="0" yMin="-14" xMax="1581" yMax="1893">
      <component glyphName="ring" x="416" y="208" flags="0x1004"/>
      <component glyphName="A" x="0" y="0" flags="0x1204"/>
    </TTGlyph>
    <TTGlyph name="Atilde" xMin="0" yMin="-14" xMax="1581" yMax="1826">
      <component glyphName="tilde" x="130" y="305" flags="0x1004"/>
      <component glyphName="A" x="0" y="0" flags="0x1204"/>
    </TTGlyph>
    <TTGlyph name="B" xMin="78" yMin="-14" xMax="1332" yMax="1453">
      <contour>
        <pt x="529" y="126" on="1"/>
        <pt x="775" y="126" on="1"/>
        <pt x="948" y="126" on="0"/>
        <pt x="1107" y="263" on="0"/>
        <pt x="1107" y="386" on="1"/>
        <pt x="1107" y="533" on="0"/>
        <pt x="929" y="680" on="0"/>
        <pt x="737" y="680" on="1"/>
        <pt x="678" y="680" on="0"/>
        <pt x="606" y="680" on="0"/>
        <pt x="562" y="680" on="0"/>
        <pt x="539" y="679" on="0"/>
        <pt x="529" y="678" on="1"/>
      </contour>
      <contour>
        <pt x="1076" y="1064" on="1"/>
        <pt x="1076" y="1128" on="0"/>
        <pt x="1037" y="1225" on="0"/>
        <pt x="952" y="1291" on="0"/>
        <pt x="818" y="1324" on="0"/>
        <pt x="723" y="1324" on="1"/>
        <pt x="674" y="1324" on="0"/>
        <pt x="606" y="1321" on="0"/>
        <pt x="561" y="1318" on="0"/>
        <pt x="536" y="1316" on="0"/>
        <pt x="529" y="1316" on="1"/>
        <pt x="529" y="804" on="1"/>
        <pt x="571" y="801" on="0"/>
        <pt x="656" y="796" on="0"/>
        <pt x="701" y="796" on="1"/>
        <pt x="787" y="796" on="0"/>
        <pt x="926" y="829" on="0"/>
        <pt x="1023" y="896" on="0"/>
        <pt x="1076" y="996" on="0"/>
      </contour>
      <contour>
        <pt x="306" y="1154" on="1"/>
        <pt x="306" y="1246" on="0"/>
        <pt x="290" y="1298" on="1"/>
        <pt x="273" y="1300" on="0"/>
        <pt x="232" y="1303" on="0"/>
        <pt x="209" y="1303" on="1"/>
        <pt x="178" y="1303" on="0"/>
        <pt x="110" y="1300" on="0"/>
        <pt x="78" y="1299" on="1"/>
        <pt x="78" y="1413" on="1"/>
        <pt x="213" y="1432" on="0"/>
        <pt x="552" y="1453" on="0"/>
        <pt x="770" y="1453" on="1"/>
        <pt x="1032" y="1453" on="0"/>
        <pt x="1295" y="1262" on="0"/>
        <pt x="1295" y="1070" on="1"/>
        <pt x="1295" y="1010" on="0"/>
        <pt x="1251" y="902" on="0"/>
        <pt x="1172" y="816" on="0"/>
        <pt x="1062" y="758" on="0"/>
        <pt x="996" y="748" on="1"/>
        <pt x="1332" y="703" on="0"/>
        <pt x="1332" y="393" on="1"/>
        <pt x="1332" y="301" on="0"/>
        <pt x="1277" y="172" on="0"/>
        <pt x="1179" y="84" on="0"/>
        <pt x="1043" y="33" on="0"/>
        <pt x="883" y="7" on="0"/>
        <pt x="703" y="0" on="0"/>
        <pt x="609" y="0" on="1"/>
        <pt x="479" y="0" on="0"/>
        <pt x="228" y="-7" on="0"/>
        <pt x="98" y="-14" on="1"/>
        <pt x="98" y="126" on="1"/>
        <pt x="187" y="126" on="1"/>
        <pt x="216" y="126" on="0"/>
        <pt x="268" y="128" on="0"/>
        <pt x="290" y="135" on="1"/>
        <pt x="306" y="176" on="0"/>
        <pt x="306" y="256" on="1"/>
      </contour>
    </TTGlyph>
    <TTGlyph name="C" xMin="117" yMin="-37" xMax="1306" yMax="1458">
      <contour>
        <pt x="1306" y="82" on="1"/>
        <pt x="1209" y="25" on="0"/>
        <pt x="968" y="-37" on="0"/>
        <pt x="814" y="-37" on="1"/>
        <pt x="663" y="-37" on="0"/>
        <pt x="408" y="52" on="0"/>
        <pt x="222" y="231" on="0"/>
        <pt x="117" y="502" on="0"/>
        <pt x="117" y="685" on="1"/>
        <pt x="117" y="870" on="0"/>
        <pt x="213" y="1158" on="0"/>
        <pt x="397" y="1355" on="0"/>
        <pt x="666" y="1458" on="0"/>
        <pt x="839" y="1458" on="1"/>
        <pt x="915" y="1458" on="0"/>
        <pt x="1053" y="1438" on="0"/>
        <pt x="1168" y="1407" on="0"/>
        <pt x="1257" y="1371" on="0"/>
        <pt x="1283" y="1355" on="1"/>
        <pt x="1259" y="1076" on="1"/>
        <pt x="1136" y="1076" on="1"/>
        <pt x="1111" y="1143" on="0"/>
        <pt x="1059" y="1242" on="0"/>
        <pt x="991" y="1306" on="0"/>
        <pt x="899" y="1337" on="0"/>
        <pt x="834" y="1337" on="1"/>
        <pt x="708" y="1337" on="0"/>
        <pt x="528" y="1243" on="0"/>
        <pt x="413" y="1080" on="0"/>
        <pt x="358" y="857" on="0"/>
        <pt x="358" y="728" on="1"/>
        <pt x="358" y="566" on="0"/>
        <pt x="425" y="329" on="0"/>
        <pt x="548" y="173" on="0"/>
        <pt x="723" y="98" on="0"/>
        <pt x="831" y="98" on="1"/>
        <pt x="934" y="98" on="0"/>
        <pt x="1160" y="160" on="0"/>
        <pt x="1291" y="221" on="1"/>
      </contour>
    </TTGlyph>
    <TTGlyph name="Cacute" xMin="117" yMin="-37" xMax="1306" yMax="1903">
      <component glyphName="acute" x="380" y="316" flags="0x1004"/>
      <component glyphName="C" x="0" y="0" flags="0x1204"/>
    </TTGlyph>
    <TTGlyph name="Ccaron" xMin="117" yMin="-37" xMax="1306" yMax="1954">
      <component glyphName="caron" x="197" y="351" flags="0x1004"/>
      <component glyphName="C" x="0" y="0" flags="0x1204"/>
    </TTGlyph>
    <TTGlyph name="Ccedilla" xMin="117" yMin="-530" xMax="1306" yMax="1458">
      <component glyphName="cedilla" x="470" y="-31" flags="0x1004"/>
      <component glyphName="C" x="0" y="0" flags="0x1204"/>
    </TTGlyph>
    <TTGlyph name="D" xMin="78" yMin="-14" xMax="1501" yMax="1453">
      <contour>
        <pt x="410" y="0" on="1"/>
        <pt x="330" y="0" on="0"/>
        <pt x="172" y="-8" on="0"/>
        <pt x="91" y="-14" on="1"/>
        <pt x="91" y="127" on="1"/>
        <pt x="181" y="127" on="1"/>
        <pt x="210" y="127" on="0"/>
        <pt x="262" y="129" on="0"/>
        <pt x="284" y="136" on="1"/>
        <pt x="299" y="181" on="0"/>
        <pt x="299" y="257" on="1"/>
        <pt x="299" y="1145" on="1"/>
        <pt x="299" y="1190" on="0"/>
        <pt x="291" y="1259" on="0"/>
        <pt x="284" y="1288" on="1"/>
        <pt x="262" y="1296" on="0"/>
        <pt x="210" y="1299" on="0"/>
        <pt x="181" y="1299" on="1"/>
        <pt x="78" y="1299" on="1"/>
        <pt x="78" y="1416" on="1"/>
        <pt x="214" y="1433" on="0"/>
        <pt x="560" y="1453" on="0"/>
        <pt x="781" y="1453" on="1"/>
        <pt x="882" y="1453" on="0"/>
        <pt x="1068" y="1424" on="0"/>
        <pt x="1228" y="1356" on="0"/>
        <pt x="1358" y="1244" on="0"/>
        <pt x="1451" y="1079" on="0"/>
        <pt x="1501" y="856" on="0"/>
        <pt x="1501" y="710" on="1"/>
        <pt x="1501" y="540" on="0"/>
        <pt x="1425" y="303" on="0"/>
        <pt x="1286" y="145" on="0"/>
        <pt x="1089" y="55" on="0"/>
        <pt x="846" y="11" on="0"/>
        <pt x="564" y="0" on="0"/>
      </contour>
      <contour>
        <pt x="515" y="126" on="1"/>
        <pt x="531" y="124" on="0"/>
        <pt x="561" y="124" on="0"/>
        <pt x="576" y="124" on="1"/>
        <pt x="690" y="124" on="0"/>
        <pt x="880" y="145" on="0"/>
        <pt x="1032" y="196" on="0"/>
        <pt x="1147" y="283" on="0"/>
        <pt x="1223" y="415" on="0"/>
        <pt x="1261" y="596" on="0"/>
        <pt x="1261" y="716" on="1"/>
        <pt x="1261" y="885" on="0"/>
        <pt x="1200" y="1114" on="0"/>
        <pt x="1074" y="1254" on="0"/>
        <pt x="883" y="1314" on="0"/>
        <pt x="753" y="1314" on="1"/>
        <pt x="683" y="1314" on="0"/>
        <pt x="555" y="1310" on="0"/>
        <pt x="515" y="1310" on="1"/>
      </contour>
    </TTGlyph>
    <TTGlyph name="Dcaron" xMin="78" yMin="-14" xMax="1501" yMax="1954">
      <component glyphName="caron" x="148" y="351" flags="0x1004"/>
      <component glyphName="D" x="0" y="0" flags="0x1204"/>
    </TTGlyph>
    <TTGlyph name="Dcroat" xMin="78" yMin="-14" xMax="1501" yMax="1453">
      <contour>
        <pt x="410" y="0" on="1"/>
        <pt x="332" y="0" on="0"/>
        <pt x="183" y="-8" on="0"/>
        <pt x="105" y="-13" on="1"/>
        <pt x="101" y="-13" on="0"/>
        <pt x="95" y="-14" on="0"/>
        <pt x="91" y="-14" on="1"/>
        <pt x="91" y="127" on="1"/>
        <pt x="181" y="127" on="1"/>
        <pt x="210" y="127" on="0"/>
        <pt x="262" y="129" on="0"/>
        <pt x="284" y="136" on="1"/>
        <pt x="299" y="181" on="0"/>
        <pt x="299" y="257" on="1"/>
        <pt x="299" y="672" on="1"/>
        <pt x="118" y="672" on="1"/>
        <pt x="118" y="742" on="1"/>
        <pt x="118" y="764" on="0"/>
        <pt x="130" y="789" on="0"/>
        <pt x="151" y="801" on="0"/>
        <pt x="181" y="804" on="0"/>
        <pt x="200" y="804" on="1"/>
        <pt x="299" y="804" on="1"/>
        <pt x="299" y="1145" on="1"/>
        <pt x="299" y="1190" on="0"/>
        <pt x="291" y="1259" on="0"/>
        <pt x="284" y="1288" on="1"/>
        <pt x="262" y="1296" on="0"/>
        <pt x="210" y="1299" on="0"/>
        <pt x="181" y="1299" on="1"/>
        <pt x="78" y="1299" on="1"/>
        <pt x="78" y="1416" on="1"/>
        <pt x="214" y="1433" on="0"/>
        <pt x="560" y="1453" on="0"/>
        <pt x="781" y="1453" on="1"/>
        <pt x="882" y="1453" on="0"/>
        <pt x="1068" y="1424" on="0"/>
        <pt x="1228" y="1356" on="0"/>
        <pt x="1358" y="1244" on="0"/>
        <pt x="1451" y="1079" on="0"/>
        <pt x="1501" y="856" on="0"/>
        <pt x="1501" y="710" on="1"/>
        <pt x="1501" y="540" on="0"/>
        <pt x="1425" y="303" on="0"/>
        <pt x="1286" y="145" on="0"/>
        <pt x="1089" y="55" on="0"/>
        <pt x="846" y="11" on="0"/>
        <pt x="564" y="0" on="0"/>
      </contour>
      <contour>
        <pt x="515" y="126" on="1"/>
        <pt x="528" y="125" on="0"/>
        <pt x="553" y="124" on="0"/>
        <pt x="566" y="124" on="1"/>
        <pt x="616" y="124" on="1"/>
        <pt x="777" y="124" on="0"/>
        <pt x="1019" y="179" on="0"/>
        <pt x="1180" y="315" on="0"/>
        <pt x="1261" y="543" on="0"/>
        <pt x="1261" y="716" on="1"/>
        <pt x="1261" y="885" on="0"/>
        <pt x="1200" y="1114" on="0"/>
        <pt x="1074" y="1254" on="0"/>
        <pt x="883" y="1314" on="0"/>
        <pt x="753" y="1314" on="1"/>
        <pt x="683" y="1314" on="0"/>
        <pt x="555" y="1310" on="0"/>
        <pt x="515" y="1310" on="1"/>
        <pt x="515" y="804" on="1"/>
        <pt x="699" y="804" on="1"/>
        <pt x="699" y="752" on="1"/>
        <pt x="699" y="718" on="0"/>
        <pt x="677" y="681" on="0"/>
        <pt x="651" y="672" on="1"/>
        <pt x="515" y="672" on="1"/>
      </contour>
    </TTGlyph>
    <TTGlyph name="Delta" xMin="63" yMin="0" xMax="1248" yMax="1421">
      <contour>
        <pt x="63" y="0" on="1"/>
        <pt x="63" y="51" on="1"/>
        <pt x="607" y="1400" on="1"/>
        <pt x="690" y="1421" on="1"/>
        <pt x="1248" y="51" on="1"/>
        <pt x="1248" y="0" on="1"/>
      </contour>
      <contour>
        <pt x="597" y="1170" on="1"/>
        <pt x="174" y="96" on="1"/>
        <pt x="1025" y="96" on="1"/>
      </contour>
    </TTGlyph>
    <TTGlyph name="E" xMin="78" yMin="-14" xMax="1270" yMax="1437">
      <contour>
        <pt x="1204" y="1437" on="1"/>
        <pt x="1231" y="1308" on="1"/>
        <pt x="1236" y="1283" on="0"/>
        <pt x="1246" y="1232" on="0"/>
        <pt x="1253" y="1187" on="0"/>
        <pt x="1258" y="1153" on="0"/>
        <pt x="1258" y="1144" on="1"/>
        <pt x="1111" y="1138" on="1"/>
        <pt x="1103" y="1188" on="1"/>
        <pt x="1099" y="1210" on="0"/>
        <pt x="1088" y="1259" on="0"/>
        <pt x="1080" y="1282" on="1"/>
        <pt x="1045" y="1298" on="0"/>
        <pt x="923" y="1310" on="0"/>
        <pt x="823" y="1310" on="1"/>
        <pt x="811" y="1310" on="0"/>
        <pt x="772" y="1309" on="0"/>
        <pt x="702" y="1308" on="0"/>
        <pt x="595" y="1305" on="0"/>
        <pt x="515" y="1303" on="1"/>
        <pt x="515" y="799" on="1"/>
        <pt x="855" y="799" on="1"/>
        <pt x="875" y="799" on="0"/>
        <pt x="910" y="804" on="0"/>
        <pt x="940" y="825" on="0"/>
        <pt x="965" y="870" on="0"/>
        <pt x="976" y="910" on="1"/>
        <pt x="1028" y="910" on="1"/>
        <pt x="1028" y="819" on="0"/>
        <pt x="1021" y="636" on="0"/>
        <pt x="1015" y="555" on="1"/>
        <pt x="952" y="555" on="1"/>
        <pt x="940" y="592" on="0"/>
        <pt x="917" y="640" on="0"/>
        <pt x="887" y="668" on="0"/>
        <pt x="849" y="679" on="0"/>
        <pt x="822" y="679" on="1"/>
        <pt x="515" y="679" on="1"/>
        <pt x="515" y="126" on="1"/>
        <pt x="971" y="126" on="1"/>
        <pt x="1022" y="126" on="0"/>
        <pt x="1103" y="146" on="0"/>
        <pt x="1119" y="160" on="1"/>
        <pt x="1127" y="183" on="0"/>
        <pt x="1141" y="261" on="0"/>
        <pt x="1146" y="327" on="1"/>
        <pt x="1171" y="327" on="0"/>
        <pt x="1240" y="325" on="0"/>
        <pt x="1270" y="325" on="1"/>
        <pt x="1270" y="209" on="1"/>
        <pt x="1270" y="161" on="0"/>
        <pt x="1263" y="57" on="0"/>
        <pt x="1260" y="21" on="1"/>
        <pt x="1230" y="12" on="0"/>
        <pt x="1163" y="-1" on="0"/>
        <pt x="1073" y="-10" on="0"/>
        <pt x="952" y="-14" on="0"/>
        <pt x="869" y="-14" on="1"/>
        <pt x="807" y="-14" on="0"/>
        <pt x="693" y="-10" on="0"/>
        <pt x="581" y="-4" on="0"/>
        <pt x="468" y="0" on="0"/>
        <pt x="407" y="0" on="1"/>
        <pt x="325" y="0" on="0"/>
        <pt x="170" y="-4" on="0"/>
        <pt x="89" y="-14" on="1"/>
        <pt x="89" y="126" on="1"/>
        <pt x="178" y="126" on="1"/>
        <pt x="208" y="126" on="0"/>
        <pt x="260" y="128" on="0"/>
        <pt x="281" y="135" on="1"/>
        <pt x="297" y="177" on="0"/>
        <pt x="297" y="256" on="1"/>
        <pt x="297" y="1174" on="1"/>
        <pt x="297" y="1212" on="0"/>
        <pt x="288" y="1268" on="0"/>
        <pt x="280" y="1289" on="1"/>
        <pt x="261" y="1297" on="0"/>
        <pt x="215" y="1299" on="0"/>
        <pt x="189" y="1299" on="1"/>
        <pt x="78" y="1299" on="1"/>
        <pt x="78" y="1407" on="1"/>
        <pt x="175" y="1425" on="0"/>
        <pt x="441" y="1437" on="0"/>
        <pt x="592" y="1437" on="1"/>
      </contour>
    </TTGlyph>
    <TTGlyph name="Eacute" xMin="78" yMin="-14" xMax="1270" yMax="1903">
      <component glyphName="acute" x="438" y="316" flags="0x1004"/>
      <component glyphName="E" x="0" y="0" flags="0x1204"/>
    </TTGlyph>
    <TTGlyph name="Ecaron" xMin="78" yMin="-14" xMax="1270" yMax="1954">
      <component glyphName="caron" x="256" y="351" flags="0x1004"/>
      <component glyphName="E" x="0" y="0" flags="0x1204"/>
    </TTGlyph>
    <TTGlyph name="Ecircumflex" xMin="78" yMin="-14" xMax="1270" yMax="1903">
      <component glyphName="circumflex" x="284" y="316" flags="0x1004"/>
      <component glyphName="E" x="0" y="0" flags="0x1204"/>
    </TTGlyph>
    <TTGlyph name="Edieresis" xMin="78" yMin="-14" xMax="1270" yMax="1805">
      <component glyphName="dieresis" x="457" y="281" flags="0x1004"/>
      <component glyphName="E" x="0" y="0" flags="0x1204"/>
    </TTGlyph>
    <TTGlyph name="Egrave" xMin="78" yMin="-14" xMax="1270" yMax="1903">
      <component glyphName="grave" x="135" y="316" flags="0x1004"/>
      <component glyphName="E" x="0" y="0" flags="0x1204"/>
    </TTGlyph>
    <TTGlyph name="Eogonek" xMin="78" yMin="-436" xMax="1270" yMax="1437">
      <component glyphName="E" x="0" y="0" flags="0x1004"/>
      <component glyphName="ogonek" x="390" y="0" flags="0x1004"/>
    </TTGlyph>
    <TTGlyph name="Eth" xMin="84" yMin="0" xMax="1507" yMax="1442">
      <contour>
        <pt x="84" y="1396" on="1"/>
        <pt x="212" y="1414" on="0"/>
        <pt x="526" y="1442" on="0"/>
        <pt x="721" y="1442" on="1"/>
        <pt x="829" y="1442" on="0"/>
        <pt x="1029" y="1420" on="0"/>
        <pt x="1204" y="1360" on="0"/>
        <pt x="1348" y="1256" on="0"/>
        <pt x="1451" y="1093" on="0"/>
        <pt x="1507" y="863" on="0"/>
        <pt x="1507" y="708" on="1"/>
        <pt x="1507" y="574" on="0"/>
        <pt x="1452" y="365" on="0"/>
        <pt x="1351" y="208" on="0"/>
        <pt x="1209" y="98" on="0"/>
        <pt x="1037" y="30" on="0"/>
        <pt x="839" y="0" on="0"/>
        <pt x="732" y="0" on="1"/>
        <pt x="289" y="0" on="1"/>
        <pt x="262" y="0" on="0"/>
        <pt x="226" y="3" on="0"/>
        <pt x="204" y="20" on="0"/>
        <pt x="195" y="56" on="0"/>
        <pt x="195" y="89" on="1"/>
        <pt x="221" y="103" on="0"/>
        <pt x="262" y="130" on="0"/>
        <pt x="290" y="168" on="0"/>
        <pt x="304" y="225" on="0"/>
        <pt x="304" y="270" on="1"/>
        <pt x="304" y="675" on="1"/>
        <pt x="86" y="675" on="1"/>
        <pt x="86" y="730" on="1"/>
        <pt x="86" y="753" on="0"/>
        <pt x="97" y="779" on="0"/>
        <pt x="117" y="791" on="0"/>
        <pt x="145" y="793" on="0"/>
        <pt x="163" y="793" on="1"/>
        <pt x="304" y="793" on="1"/>
        <pt x="304" y="1184" on="1"/>
        <pt x="304" y="1222" on="0"/>
        <pt x="296" y="1277" on="0"/>
        <pt x="288" y="1298" on="1"/>
        <pt x="269" y="1303" on="0"/>
        <pt x="218" y="1305" on="0"/>
        <pt x="192" y="1305" on="1"/>
        <pt x="159" y="1305" on="0"/>
        <pt x="101" y="1303" on="0"/>
        <pt x="84" y="1303" on="1"/>
      </contour>
      <contour>
        <pt x="523" y="675" on="1"/>
        <pt x="523" y="129" on="1"/>
        <pt x="574" y="125" on="0"/>
        <pt x="670" y="122" on="0"/>
        <pt x="718" y="122" on="1"/>
        <pt x="846" y="122" on="0"/>
        <pt x="1050" y="180" on="0"/>
        <pt x="1192" y="318" on="0"/>
        <pt x="1268" y="545" on="0"/>
        <pt x="1268" y="715" on="1"/>
        <pt x="1268" y="884" on="0"/>
        <pt x="1206" y="1115" on="0"/>
        <pt x="1077" y="1255" on="0"/>
        <pt x="878" y="1316" on="0"/>
        <pt x="741" y="1316" on="1"/>
        <pt x="703" y="1316" on="0"/>
        <pt x="593" y="1313" on="0"/>
        <pt x="522" y="1313" on="1"/>
        <pt x="522" y="793" on="1"/>
        <pt x="853" y="793" on="1"/>
        <pt x="853" y="738" on="1"/>
        <pt x="853" y="686" on="0"/>
        <pt x="815" y="675" on="1"/>
      </contour>
    </TTGlyph>
    <TTGlyph name="Euro" xMin="84" yMin="-37" xMax="1360" yMax="1468">
      <contour>
        <pt x="1360" y="201" on="1"/>
        <pt x="1297" y="77" on="0"/>
        <pt x="1065" y="-37" on="0"/>
        <pt x="904" y="-37" on="1"/>
        <pt x="791" y="-37" on="0"/>
        <pt x="590" y="26" on="0"/>
        <pt x="430" y="159" on="0"/>
        <pt x="319" y="364" on="0"/>
        <pt x="296" y="506" on="1"/>
        <pt x="84" y="506" on="1"/>
        <pt x="101" y="576" on="1"/>
        <pt x="105" y="594" on="0"/>
        <pt x="116" y="614" on="0"/>
        <pt x="132" y="623" on="0"/>
        <pt x="153" y="625" on="0"/>
        <pt x="168" y="625" on="1"/>
        <pt x="282" y="625" on="1"/>
        <pt x="281" y="639" on="0"/>
        <pt x="281" y="667" on="0"/>
        <pt x="281" y="682" on="1"/>
        <pt x="281" y="730" on="0"/>
        <pt x="284" y="777" on="1"/>
        <pt x="108" y="777" on="1"/>
        <pt x="123" y="847" on="1"/>
        <pt x="131" y="881" on="0"/>
        <pt x="159" y="897" on="0"/>
        <pt x="182" y="897" on="1"/>
        <pt x="298" y="897" on="1"/>
        <pt x="320" y="1030" on="0"/>
        <pt x="424" y="1242" on="0"/>
        <pt x="579" y="1390" on="0"/>
        <pt x="782" y="1468" on="0"/>
        <pt x="904" y="1468" on="1"/>
        <pt x="975" y="1468" on="0"/>
        <pt x="1111" y="1449" on="0"/>
        <pt x="1225" y="1415" on="0"/>
        <pt x="1310" y="1366" on="0"/>
        <pt x="1329" y="1336" on="1"/>
        <pt x="1329" y="1281" on="0"/>
        <pt x="1330" y="1168" on="0"/>
        <pt x="1331" y="1111" on="1"/>
        <pt x="1207" y="1093" on="1"/>
        <pt x="1181" y="1147" on="0"/>
        <pt x="1120" y="1237" on="0"/>
        <pt x="1042" y="1301" on="0"/>
        <pt x="945" y="1337" on="0"/>
        <pt x="884" y="1337" on="1"/>
        <pt x="588" y="1337" on="0"/>
        <pt x="532" y="897" on="1"/>
        <pt x="1106" y="897" on="1"/>
        <pt x="1083" y="822" on="1"/>
        <pt x="1078" y="805" on="0"/>
        <pt x="1049" y="787" on="0"/>
        <pt x="1012" y="778" on="0"/>
        <pt x="970" y="777" on="0"/>
        <pt x="952" y="777" on="1"/>
        <pt x="522" y="777" on="1"/>
        <pt x="522" y="734" on="0"/>
        <pt x="523" y="657" on="0"/>
        <pt x="527" y="625" on="1"/>
        <pt x="1050" y="625" on="1"/>
        <pt x="1039" y="590" on="0"/>
        <pt x="1027" y="544" on="0"/>
        <pt x="1010" y="516" on="0"/>
        <pt x="981" y="505" on="0"/>
        <pt x="953" y="505" on="1"/>
        <pt x="948" y="505" on="0"/>
        <pt x="936" y="505" on="0"/>
        <pt x="907" y="505" on="0"/>
        <pt x="855" y="506" on="0"/>
        <pt x="768" y="506" on="0"/>
        <pt x="638" y="506" on="0"/>
        <pt x="545" y="506" on="1"/>
        <pt x="563" y="412" on="0"/>
        <pt x="631" y="262" on="0"/>
        <pt x="730" y="158" on="0"/>
        <pt x="862" y="102" on="0"/>
        <pt x="945" y="102" on="1"/>
        <pt x="1036" y="102" on="0"/>
        <pt x="1194" y="171" on="0"/>
        <pt x="1266" y="246" on="1"/>
      </contour>
    </TTGlyph>
    <TTGlyph name="F" xMin="78" yMin="-14" xMax="1251" yMax="1437">
      <contour>
        <pt x="523" y="803" on="1"/>
        <pt x="820" y="803" on="1"/>
        <pt x="840" y="803" on="0"/>
        <pt x="874" y="809" on="0"/>
        <pt x="904" y="831" on="0"/>
        <pt x="929" y="873" on="0"/>
        <pt x="940" y="910" on="1"/>
        <pt x="992" y="910" on="1"/>
        <pt x="992" y="819" on="0"/>
        <pt x="986" y="636" on="0"/>
        <pt x="980" y="555" on="1"/>
        <pt x="917" y="555" on="1"/>
        <pt x="905" y="591" on="0"/>
        <pt x="881" y="637" on="0"/>
        <pt x="852" y="663" on="0"/>
        <pt x="814" y="672" on="0"/>
        <pt x="787" y="672" on="1"/>
        <pt x="523" y="672" on="1"/>
        <pt x="523" y="259" on="1"/>
        <pt x="523" y="217" on="0"/>
        <pt x="531" y="158" on="0"/>
        <pt x="538" y="135" on="1"/>
        <pt x="560" y="128" on="0"/>
        <pt x="612" y="126" on="0"/>
        <pt x="641" y="126" on="1"/>
        <pt x="731" y="126" on="1"/>
        <pt x="731" y="-14" on="1"/>
        <pt x="643" y="-9" on="0"/>
        <pt x="489" y="0" on="0"/>
        <pt x="414" y="0" on="1"/>
        <pt x="338" y="0" on="0"/>
        <pt x="194" y="-8" on="0"/>
        <pt x="119" y="-13" on="1"/>
        <pt x="114" y="-13" on="0"/>
        <pt x="103" y="-14" on="0"/>
        <pt x="98" y="-14" on="1"/>
        <pt x="98" y="126" on="1"/>
        <pt x="187" y="126" on="1"/>
        <pt x="216" y="126" on="0"/>
        <pt x="268" y="128" on="0"/>
        <pt x="290" y="135" on="1"/>
        <pt x="305" y="174" on="0"/>
        <pt x="305" y="243" on="1"/>
        <pt x="305" y="1178" on="1"/>
        <pt x="305" y="1251" on="0"/>
        <pt x="289" y="1289" on="1"/>
        <pt x="269" y="1297" on="0"/>
        <pt x="223" y="1299" on="0"/>
        <pt x="197" y="1299" on="1"/>
        <pt x="78" y="1299" on="1"/>
        <pt x="78" y="1407" on="1"/>
        <pt x="199" y="1421" on="0"/>
        <pt x="548" y="1437" on="0"/>
        <pt x="772" y="1437" on="1"/>
        <pt x="1212" y="1437" on="1"/>
        <pt x="1224" y="1363" on="0"/>
        <pt x="1238" y="1260" on="0"/>
        <pt x="1247" y="1191" on="0"/>
        <pt x="1250" y="1153" on="0"/>
        <pt x="1251" y="1144" on="1"/>
        <pt x="1105" y="1138" on="1"/>
        <pt x="1105" y="1158" on="0"/>
        <pt x="1094" y="1237" on="0"/>
        <pt x="1078" y="1282" on="1"/>
        <pt x="1045" y="1298" on="0"/>
        <pt x="928" y="1310" on="0"/>
        <pt x="831" y="1310" on="1"/>
        <pt x="819" y="1310" on="0"/>
        <pt x="780" y="1309" on="0"/>
        <pt x="711" y="1308" on="0"/>
        <pt x="603" y="1305" on="0"/>
        <pt x="523" y="1303" on="1"/>
      </contour>
    </TTGlyph>
    <TTGlyph name="G" xMin="117" yMin="-37" xMax="1356" yMax="1458">
      <contour>
        <pt x="896" y="1458" on="1"/>
        <pt x="968" y="1458" on="0"/>
        <pt x="1101" y="1438" on="0"/>
        <pt x="1213" y="1407" on="0"/>
        <pt x="1299" y="1371" on="0"/>
        <pt x="1324" y="1355" on="1"/>
        <pt x="1299" y="1076" on="1"/>
        <pt x="1176" y="1076" on="1"/>
        <pt x="1151" y="1143" on="0"/>
        <pt x="1099" y="1242" on="0"/>
        <pt x="1030" y="1306" on="0"/>
        <pt x="938" y="1337" on="0"/>
        <pt x="873" y="1337" on="1"/>
        <pt x="741" y="1337" on="0"/>
        <pt x="548" y="1249" on="0"/>
        <pt x="420" y="1086" on="0"/>
        <pt x="358" y="852" on="0"/>
        <pt x="358" y="705" on="1"/>
        <pt x="358" y="569" on="0"/>
        <pt x="421" y="345" on="0"/>
        <pt x="544" y="185" on="0"/>
        <pt x="725" y="97" on="0"/>
        <pt x="844" y="97" on="1"/>
        <pt x="932" y="97" on="0"/>
        <pt x="1080" y="123" on="0"/>
        <pt x="1140" y="152" on="1"/>
        <pt x="1140" y="384" on="1"/>
        <pt x="1140" y="421" on="0"/>
        <pt x="1134" y="488" on="0"/>
        <pt x="1126" y="513" on="1"/>
        <pt x="1104" y="521" on="0"/>
        <pt x="1051" y="527" on="0"/>
        <pt x="1019" y="527" on="1"/>
        <pt x="901" y="527" on="1"/>
        <pt x="901" y="635" on="1"/>
        <pt x="918" y="636" on="0"/>
        <pt x="971" y="642" on="0"/>
        <pt x="1053" y="648" on="0"/>
        <pt x="1170" y="653" on="0"/>
        <pt x="1251" y="653" on="1"/>
        <pt x="1275" y="653" on="0"/>
        <pt x="1327" y="653" on="0"/>
        <pt x="1356" y="652" on="1"/>
        <pt x="1354" y="604" on="0"/>
        <pt x="1352" y="537" on="0"/>
        <pt x="1350" y="490" on="0"/>
        <pt x="1350" y="462" on="0"/>
        <pt x="1350" y="453" on="1"/>
        <pt x="1350" y="101" on="1"/>
        <pt x="1262" y="41" on="0"/>
        <pt x="1004" y="-37" on="0"/>
        <pt x="842" y="-37" on="1"/>
        <pt x="689" y="-37" on="0"/>
        <pt x="425" y="48" on="0"/>
        <pt x="229" y="225" on="0"/>
        <pt x="117" y="497" on="0"/>
        <pt x="117" y="683" on="1"/>
        <pt x="117" y="879" on="0"/>
        <pt x="227" y="1170" on="0"/>
        <pt x="430" y="1363" on="0"/>
        <pt x="718" y="1458" on="0"/>
      </contour>
    </TTGlyph>
    <TTGlyph name="H" xMin="78" yMin="-14" xMax="1618" yMax="1437">
      <contour>
        <pt x="1189" y="676" on="1"/>
        <pt x="506" y="676" on="1"/>
        <pt x="506" y="259" on="1"/>
        <pt x="506" y="217" on="0"/>
        <pt x="513" y="158" on="0"/>
        <pt x="520" y="135" on="1"/>
        <pt x="543" y="128" on="0"/>
        <pt x="594" y="126" on="0"/>
        <pt x="623" y="126" on="1"/>
        <pt x="713" y="126" on="1"/>
        <pt x="713" y="-14" on="1"/>
        <pt x="632" y="-4" on="0"/>
        <pt x="493" y="0" on="0"/>
        <pt x="426" y="0" on="1"/>
        <pt x="336" y="0" on="0"/>
        <pt x="168" y="-3" on="0"/>
        <pt x="80" y="-14" on="1"/>
        <pt x="80" y="126" on="1"/>
        <pt x="169" y="126" on="1"/>
        <pt x="199" y="126" on="0"/>
        <pt x="250" y="128" on="0"/>
        <pt x="272" y="135" on="1"/>
        <pt x="288" y="179" on="0"/>
        <pt x="288" y="256" on="1"/>
        <pt x="288" y="1181" on="1"/>
        <pt x="288" y="1220" on="0"/>
        <pt x="279" y="1278" on="0"/>
        <pt x="271" y="1301" on="1"/>
        <pt x="249" y="1309" on="0"/>
        <pt x="198" y="1312" on="0"/>
        <pt x="168" y="1312" on="1"/>
        <pt x="78" y="1312" on="1"/>
        <pt x="78" y="1422" on="1"/>
        <pt x="147" y="1430" on="0"/>
        <pt x="297" y="1437" on="0"/>
        <pt x="388" y="1437" on="1"/>
        <pt x="485" y="1437" on="0"/>
        <pt x="653" y="1433" on="0"/>
        <pt x="716" y="1422" on="1"/>
        <pt x="716" y="1312" on="1"/>
        <pt x="623" y="1312" on="1"/>
        <pt x="594" y="1312" on="0"/>
        <pt x="543" y="1309" on="0"/>
        <pt x="520" y="1301" on="1"/>
        <pt x="513" y="1278" on="0"/>
        <pt x="506" y="1220" on="0"/>
        <pt x="506" y="1181" on="1"/>
        <pt x="506" y="811" on="1"/>
        <pt x="1189" y="811" on="1"/>
        <pt x="1189" y="1181" on="1"/>
        <pt x="1189" y="1220" on="0"/>
        <pt x="1181" y="1278" on="0"/>
        <pt x="1173" y="1301" on="1"/>
        <pt x="1151" y="1309" on="0"/>
        <pt x="1099" y="1312" on="0"/>
        <pt x="1070" y="1312" on="1"/>
        <pt x="980" y="1312" on="1"/>
        <pt x="980" y="1422" on="1"/>
        <pt x="1049" y="1430" on="0"/>
        <pt x="1199" y="1437" on="0"/>
        <pt x="1290" y="1437" on="1"/>
        <pt x="1387" y="1437" on="0"/>
        <pt x="1555" y="1433" on="0"/>
        <pt x="1618" y="1422" on="1"/>
        <pt x="1618" y="1312" on="1"/>
        <pt x="1525" y="1312" on="1"/>
        <pt x="1496" y="1312" on="0"/>
        <pt x="1444" y="1309" on="0"/>
        <pt x="1422" y="1301" on="1"/>
        <pt x="1415" y="1278" on="0"/>
        <pt x="1406" y="1220" on="0"/>
        <pt x="1406" y="1181" on="1"/>
        <pt x="1406" y="259" on="1"/>
        <pt x="1406" y="217" on="0"/>
        <pt x="1414" y="158" on="0"/>
        <pt x="1421" y="135" on="1"/>
        <pt x="1443" y="128" on="0"/>
        <pt x="1495" y="126" on="0"/>
        <pt x="1524" y="126" on="1"/>
        <pt x="1614" y="126" on="1"/>
        <pt x="1614" y="-14" on="1"/>
        <pt x="1533" y="-4" on="0"/>
        <pt x="1393" y="0" on="0"/>
        <pt x="1326" y="0" on="1"/>
        <pt x="1236" y="0" on="0"/>
        <pt x="1069" y="-3" on="0"/>
        <pt x="981" y="-14" on="1"/>
        <pt x="981" y="126" on="1"/>
        <pt x="1070" y="126" on="1"/>
        <pt x="1099" y="126" on="0"/>
        <pt x="1151" y="128" on="0"/>
        <pt x="1173" y="135" on="1"/>
        <pt x="1189" y="176" on="0"/>
        <pt x="1189" y="256" on="1"/>
      </contour>
    </TTGlyph>
    <TTGlyph name="I" xMin="78" yMin="-14" xMax="714" yMax="1437">
      <contour>
        <pt x="79" y="126" on="1"/>
        <pt x="168" y="126" on="1"/>
        <pt x="198" y="126" on="0"/>
        <pt x="249" y="128" on="0"/>
        <pt x="271" y="135" on="1"/>
        <pt x="287" y="179" on="0"/>
        <pt x="287" y="256" on="1"/>
        <pt x="287" y="1187" on="1"/>
        <pt x="287" y="1226" on="0"/>
        <pt x="279" y="1278" on="0"/>
        <pt x="271" y="1301" on="1"/>
        <pt x="249" y="1309" on="0"/>
        <pt x="198" y="1312" on="0"/>
        <pt x="168" y="1312" on="1"/>
        <pt x="78" y="1312" on="1"/>
        <pt x="78" y="1422" on="1"/>
        <pt x="147" y="1430" on="0"/>
        <pt x="299" y="1437" on="0"/>
        <pt x="393" y="1437" on="1"/>
        <pt x="490" y="1437" on="0"/>
        <pt x="654" y="1433" on="0"/>
        <pt x="714" y="1422" on="1"/>
        <pt x="714" y="1312" on="1"/>
        <pt x="622" y="1312" on="1"/>
        <pt x="593" y="1312" on="0"/>
        <pt x="542" y="1309" on="0"/>
        <pt x="519" y="1301" on="1"/>
        <pt x="513" y="1278" on="0"/>
        <pt x="505" y="1226" on="0"/>
        <pt x="505" y="1187" on="1"/>
        <pt x="505" y="259" on="1"/>
        <pt x="505" y="217" on="0"/>
        <pt x="513" y="158" on="0"/>
        <pt x="519" y="135" on="1"/>
        <pt x="542" y="129" on="0"/>
        <pt x="593" y="126" on="0"/>
        <pt x="622" y="126" on="1"/>
        <pt x="712" y="126" on="1"/>
        <pt x="712" y="-14" on="1"/>
        <pt x="634" y="-4" on="0"/>
        <pt x="497" y="0" on="0"/>
        <pt x="431" y="0" on="1"/>
        <pt x="340" y="0" on="0"/>
        <pt x="170" y="-4" on="0"/>
        <pt x="79" y="-14" on="1"/>
      </contour>
    </TTGlyph>
    <TTGlyph name="IJ" xMin="78" yMin="-177" xMax="1731" yMax="1437">
      <component glyphName="I" x="0" y="0" flags="0x1004"/>
      <component glyphName="J" x="765" y="0" flags="0x1004"/>
    </TTGlyph>
    <TTGlyph name="Iacute" xMin="78" yMin="-14" xMax="765" yMax="1903">
      <component glyphName="acute" x="-66" y="316" flags="0x1004"/>
      <component glyphName="I" x="0" y="0" flags="0x1204"/>
    </TTGlyph>
    <TTGlyph name="Icircumflex" xMin="67" yMin="-14" xMax="719" yMax="1903">
      <component glyphName="circumflex" x="-222" y="316" flags="0x1004"/>
      <component glyphName="I" x="0" y="0" flags="0x1204"/>
    </TTGlyph>
    <TTGlyph name="Idieresis" xMin="78" yMin="-14" xMax="714" yMax="1805">
      <component glyphName="dieresis" x="-48" y="281" flags="0x1004"/>
      <component glyphName="I" x="0" y="0" flags="0x1204"/>
    </TTGlyph>
    <TTGlyph name="Igrave" xMin="23" yMin="-14" xMax="714" yMax="1903">
      <component glyphName="grave" x="-370" y="316" flags="0x1004"/>
      <component glyphName="I" x="0" y="0" flags="0x1204"/>
    </TTGlyph>
    <TTGlyph name="Itilde" xMin="5" yMin="-14" xMax="781" yMax="1826">
      <component glyphName="tilde" x="-220" y="305" flags="0x1004"/>
      <component glyphName="I" x="0" y="0" flags="0x1204"/>
    </TTGlyph>
    <TTGlyph name="J" xMin="47" yMin="-177" xMax="966" yMax="1437">
      <contour>
        <pt x="755" y="316" on="1"/>
        <pt x="755" y="193" on="0"/>
        <pt x="705" y="8" on="0"/>
        <pt x="613" y="-115" on="0"/>
        <pt x="481" y="-177" on="0"/>
        <pt x="399" y="-177" on="1"/>
        <pt x="371" y="-177" on="0"/>
        <pt x="274" y="-168" on="0"/>
        <pt x="170" y="-151" on="0"/>
        <pt x="74" y="-124" on="0"/>
        <pt x="47" y="-106" on="1"/>
        <pt x="47" y="-102" on="0"/>
        <pt x="49" y="-65" on="0"/>
        <pt x="53" y="10" on="0"/>
        <pt x="61" y="128" on="0"/>
        <pt x="67" y="214" on="1"/>
        <pt x="208" y="208" on="1"/>
        <pt x="212" y="168" on="0"/>
        <pt x="226" y="83" on="0"/>
        <pt x="233" y="47" on="1"/>
        <pt x="241" y="5" on="0"/>
        <pt x="250" y="-36" on="1"/>
        <pt x="270" y="-40" on="0"/>
        <pt x="291" y="-44" on="1"/>
        <pt x="309" y="-47" on="0"/>
        <pt x="350" y="-51" on="0"/>
        <pt x="370" y="-51" on="1"/>
        <pt x="425" y="-51" on="0"/>
        <pt x="492" y="5" on="0"/>
        <pt x="526" y="109" on="0"/>
        <pt x="537" y="258" on="0"/>
        <pt x="537" y="351" on="1"/>
        <pt x="537" y="1181" on="1"/>
        <pt x="537" y="1260" on="0"/>
        <pt x="521" y="1301" on="1"/>
        <pt x="500" y="1309" on="0"/>
        <pt x="448" y="1312" on="0"/>
        <pt x="418" y="1312" on="1"/>
        <pt x="328" y="1312" on="1"/>
        <pt x="328" y="1422" on="1"/>
        <pt x="397" y="1430" on="0"/>
        <pt x="548" y="1437" on="0"/>
        <pt x="639" y="1437" on="1"/>
        <pt x="736" y="1437" on="0"/>
        <pt x="903" y="1433" on="0"/>
        <pt x="966" y="1422" on="1"/>
        <pt x="966" y="1312" on="1"/>
        <pt x="874" y="1312" on="1"/>
        <pt x="844" y="1312" on="0"/>
        <pt x="792" y="1309" on="0"/>
        <pt x="771" y="1301" on="1"/>
        <pt x="755" y="1257" on="0"/>
        <pt x="755" y="1180" on="1"/>
      </contour>
    </TTGlyph>
    <TTGlyph name="Jcircumflex" xMin="47" yMin="-177" xMax="966" yMax="1903">
      <component glyphName="circumflex" x="24" y="316" flags="0x1004"/>
      <component glyphName="J" x="0" y="0" flags="0x1204"/>
    </TTGlyph>
    <TTGlyph name="K" xMin="78" yMin="-14" xMax="1469" yMax="1437">
      <contour>
        <pt x="505" y="256" on="1"/>
        <pt x="505" y="179" on="0"/>
        <pt x="521" y="135" on="1"/>
        <pt x="543" y="128" on="0"/>
        <pt x="595" y="126" on="0"/>
        <pt x="624" y="126" on="1"/>
        <pt x="713" y="126" on="1"/>
        <pt x="713" y="-14" on="1"/>
        <pt x="632" y="-5" on="0"/>
        <pt x="477" y="0" on="0"/>
        <pt x="396" y="0" on="1"/>
        <pt x="315" y="0" on="0"/>
        <pt x="161" y="-5" on="0"/>
        <pt x="80" y="-14" on="1"/>
        <pt x="80" y="126" on="1"/>
        <pt x="169" y="126" on="1"/>
        <pt x="198" y="126" on="0"/>
        <pt x="250" y="128" on="0"/>
        <pt x="272" y="135" on="1"/>
        <pt x="287" y="174" on="0"/>
        <pt x="287" y="243" on="1"/>
        <pt x="287" y="1181" on="1"/>
        <pt x="287" y="1220" on="0"/>
        <pt x="279" y="1278" on="0"/>
        <pt x="271" y="1301" on="1"/>
        <pt x="249" y="1309" on="0"/>
        <pt x="198" y="1312" on="0"/>
        <pt x="168" y="1312" on="1"/>
        <pt x="78" y="1312" on="1"/>
        <pt x="78" y="1422" on="1"/>
        <pt x="147" y="1430" on="0"/>
        <pt x="299" y="1437" on="0"/>
        <pt x="393" y="1437" on="1"/>
        <pt x="490" y="1437" on="0"/>
        <pt x="654" y="1433" on="0"/>
        <pt x="714" y="1422" on="1"/>
        <pt x="714" y="1312" on="1"/>
        <pt x="622" y="1312" on="1"/>
        <pt x="593" y="1312" on="0"/>
        <pt x="542" y="1309" on="0"/>
        <pt x="519" y="1301" on="1"/>
        <pt x="513" y="1278" on="0"/>
        <pt x="505" y="1220" on="0"/>
        <pt x="505" y="1181" on="1"/>
      </contour>
      <contour>
        <pt x="1160" y="256" on="1"/>
        <pt x="1190" y="218" on="0"/>
        <pt x="1243" y="158" on="0"/>
        <pt x="1268" y="135" on="1"/>
        <pt x="1292" y="128" on="0"/>
        <pt x="1341" y="126" on="0"/>
        <pt x="1367" y="126" on="1"/>
        <pt x="1446" y="126" on="1"/>
        <pt x="1460" y="-14" on="1"/>
        <pt x="1386" y="-5" on="0"/>
        <pt x="1250" y="0" on="0"/>
        <pt x="1179" y="0" on="1"/>
        <pt x="1088" y="0" on="0"/>
        <pt x="924" y="-5" on="0"/>
        <pt x="843" y="-14" on="1"/>
        <pt x="843" y="126" on="1"/>
        <pt x="862" y="126" on="1"/>
        <pt x="891" y="126" on="0"/>
        <pt x="942" y="128" on="0"/>
        <pt x="959" y="135" on="1"/>
        <pt x="950" y="158" on="0"/>
        <pt x="912" y="217" on="0"/>
        <pt x="883" y="256" on="1"/>
        <pt x="574" y="668" on="1"/>
        <pt x="566" y="676" on="0"/>
        <pt x="551" y="697" on="0"/>
        <pt x="546" y="705" on="1"/>
        <pt x="539" y="715" on="0"/>
        <pt x="534" y="725" on="1"/>
        <pt x="548" y="745" on="0"/>
        <pt x="600" y="805" on="1"/>
        <pt x="622" y="830" on="0"/>
        <pt x="688" y="904" on="0"/>
        <pt x="780" y="1005" on="0"/>
        <pt x="903" y="1137" on="0"/>
        <pt x="982" y="1221" on="1"/>
        <pt x="998" y="1238" on="0"/>
        <pt x="1015" y="1262" on="0"/>
        <pt x="1023" y="1280" on="0"/>
        <pt x="1025" y="1294" on="0"/>
        <pt x="1025" y="1301" on="1"/>
        <pt x="1009" y="1309" on="0"/>
        <pt x="967" y="1312" on="0"/>
        <pt x="940" y="1312" on="1"/>
        <pt x="885" y="1312" on="1"/>
        <pt x="894" y="1422" on="1"/>
        <pt x="970" y="1430" on="0"/>
        <pt x="1127" y="1437" on="0"/>
        <pt x="1220" y="1437" on="1"/>
        <pt x="1298" y="1437" on="0"/>
        <pt x="1424" y="1433" on="0"/>
        <pt x="1469" y="1422" on="1"/>
        <pt x="1462" y="1312" on="1"/>
        <pt x="1384" y="1312" on="1"/>
        <pt x="1358" y="1312" on="0"/>
        <pt x="1314" y="1309" on="0"/>
        <pt x="1289" y="1301" on="1"/>
        <pt x="1259" y="1276" on="0"/>
        <pt x="1194" y="1219" on="0"/>
        <pt x="1158" y="1179" on="1"/>
        <pt x="1044" y="1055" on="0"/>
        <pt x="893" y="891" on="0"/>
        <pt x="847" y="842" on="1"/>
        <pt x="793" y="784" on="0"/>
        <pt x="763" y="751" on="1"/>
      </contour>
    </TTGlyph>
    <TTGlyph name="L" xMin="78" yMin="-14" xMax="1245" yMax="1437">
      <contour>
        <pt x="396" y="0" on="1"/>
        <pt x="315" y="0" on="0"/>
        <pt x="160" y="-5" on="0"/>
        <pt x="79" y="-14" on="1"/>
        <pt x="79" y="126" on="1"/>
        <pt x="168" y="126" on="1"/>
        <pt x="198" y="126" on="0"/>
        <pt x="249" y="128" on="0"/>
        <pt x="271" y="135" on="1"/>
        <pt x="287" y="179" on="0"/>
        <pt x="287" y="256" on="1"/>
        <pt x="287" y="1181" on="1"/>
        <pt x="287" y="1220" on="0"/>
        <pt x="279" y="1278" on="0"/>
        <pt x="271" y="1301" on="1"/>
        <pt x="249" y="1309" on="0"/>
        <pt x="198" y="1312" on="0"/>
        <pt x="168" y="1312" on="1"/>
        <pt x="78" y="1312" on="1"/>
        <pt x="78" y="1422" on="1"/>
        <pt x="147" y="1430" on="0"/>
        <pt x="299" y="1437" on="0"/>
        <pt x="393" y="1437" on="1"/>
        <pt x="490" y="1437" on="0"/>
        <pt x="655" y="1433" on="0"/>
        <pt x="716" y="1422" on="1"/>
        <pt x="716" y="1312" on="1"/>
        <pt x="623" y="1312" on="1"/>
        <pt x="594" y="1312" on="0"/>
        <pt x="543" y="1309" on="0"/>
        <pt x="520" y="1301" on="1"/>
        <pt x="513" y="1278" on="0"/>
        <pt x="506" y="1220" on="0"/>
        <pt x="506" y="1181" on="1"/>
        <pt x="506" y="126" on="1"/>
        <pt x="887" y="126" on="1"/>
        <pt x="938" y="126" on="0"/>
        <pt x="1022" y="133" on="0"/>
        <pt x="1089" y="170" on="0"/>
        <pt x="1140" y="252" on="0"/>
        <pt x="1159" y="327" on="1"/>
        <pt x="1245" y="315" on="1"/>
        <pt x="1208" y="0" on="1"/>
        <pt x="1120" y="-6" on="0"/>
        <pt x="952" y="-14" on="0"/>
        <pt x="871" y="-14" on="1"/>
        <pt x="722" y="-14" on="0"/>
        <pt x="481" y="0" on="0"/>
      </contour>
    </TTGlyph>
    <TTGlyph name="Lacute" xMin="78" yMin="-14" xMax="1245" yMax="1903">
      <component glyphName="acute" x="202" y="316" flags="0x1004"/>
      <component glyphName="L" x="0" y="0" flags="0x1204"/>
    </TTGlyph>
    <TTGlyph name="Lcaron" xMin="78" yMin="-14" xMax="1245" yMax="1458">
      <component glyphName="comma" x="771" y="1209" flags="0x1004"/>
      <component glyphName="L" x="0" y="0" flags="0x1004"/>
    </TTGlyph>
    <TTGlyph name="Ldotaccent" xMin="78" yMin="-14" xMax="1245" yMax="1437">
      <component glyphName="periodcentered" x="512" y="124" flags="0x1004"/>
      <component glyphName="L" x="0" y="0" flags="0x1004"/>
    </TTGlyph>
    <TTGlyph name="Lslash" xMin="78" yMin="-14" xMax="1245" yMax="1437">
      <contour>
        <pt x="396" y="0" on="1"/>
        <pt x="315" y="0" on="0"/>
        <pt x="160" y="-5" on="0"/>
        <pt x="79" y="-14" on="1"/>
        <pt x="79" y="126" on="1"/>
        <pt x="168" y="126" on="1"/>
        <pt x="198" y="126" on="0"/>
        <pt x="249" y="128" on="0"/>
        <pt x="271" y="135" on="1"/>
        <pt x="287" y="179" on="0"/>
        <pt x="287" y="256" on="1"/>
        <pt x="287" y="523" on="1"/>
        <pt x="82" y="396" on="1"/>
        <pt x="82" y="544" on="1"/>
        <pt x="287" y="671" on="1"/>
        <pt x="287" y="1181" on="1"/>
        <pt x="287" y="1220" on="0"/>
        <pt x="279" y="1278" on="0"/>
        <pt x="271" y="1301" on="1"/>
        <pt x="249" y="1309" on="0"/>
        <pt x="198" y="1312" on="0"/>
        <pt x="168" y="1312" on="1"/>
        <pt x="78" y="1312" on="1"/>
        <pt x="78" y="1422" on="1"/>
        <pt x="147" y="1430" on="0"/>
        <pt x="299" y="1437" on="0"/>
        <pt x="393" y="1437" on="1"/>
        <pt x="490" y="1437" on="0"/>
        <pt x="655" y="1433" on="0"/>
        <pt x="716" y="1422" on="1"/>
        <pt x="716" y="1312" on="1"/>
        <pt x="623" y="1312" on="1"/>
        <pt x="594" y="1312" on="0"/>
        <pt x="543" y="1309" on="0"/>
        <pt x="520" y="1301" on="1"/>
        <pt x="513" y="1278" on="0"/>
        <pt x="506" y="1220" on="0"/>
        <pt x="506" y="1181" on="1"/>
        <pt x="506" y="808" on="1"/>
        <pt x="883" y="1043" on="1"/>
        <pt x="883" y="894" on="1"/>
        <pt x="506" y="659" on="1"/>
        <pt x="506" y="126" on="1"/>
        <pt x="887" y="126" on="1"/>
        <pt x="938" y="126" on="0"/>
        <pt x="1022" y="133" on="0"/>
        <pt x="1089" y="170" on="0"/>
        <pt x="1140" y="252" on="0"/>
        <pt x="1159" y="327" on="1"/>
        <pt x="1245" y="315" on="1"/>
        <pt x="1208" y="0" on="1"/>
        <pt x="1120" y="-6" on="0"/>
        <pt x="952" y="-14" on="0"/>
        <pt x="871" y="-14" on="1"/>
        <pt x="722" y="-14" on="0"/>
        <pt x="481" y="0" on="0"/>
      </contour>
    </TTGlyph>
    <TTGlyph name="M" xMin="78" yMin="-14" xMax="2126" yMax="1437">
      <contour>
        <pt x="1677" y="199" on="1"/>
        <pt x="1677" y="232" on="0"/>
        <pt x="1671" y="353" on="0"/>
        <pt x="1662" y="505" on="0"/>
        <pt x="1649" y="678" on="0"/>
        <pt x="1643" y="763" on="1"/>
        <pt x="1628" y="963" on="0"/>
        <pt x="1610" y="1194" on="1"/>
        <pt x="1509" y="910" on="0"/>
        <pt x="1422" y="669" on="1"/>
        <pt x="1385" y="566" on="0"/>
        <pt x="1310" y="358" on="0"/>
        <pt x="1244" y="177" on="0"/>
        <pt x="1191" y="36" on="0"/>
        <pt x="1177" y="0" on="1"/>
        <pt x="989" y="0" on="1"/>
        <pt x="962" y="72" on="0"/>
        <pt x="899" y="250" on="0"/>
        <pt x="832" y="444" on="0"/>
        <pt x="763" y="643" on="0"/>
        <pt x="732" y="736" on="1"/>
        <pt x="658" y="954" on="0"/>
        <pt x="581" y="1184" on="1"/>
        <pt x="563" y="917" on="0"/>
        <pt x="550" y="707" on="1"/>
        <pt x="544" y="617" on="0"/>
        <pt x="533" y="445" on="0"/>
        <pt x="524" y="308" on="0"/>
        <pt x="519" y="223" on="0"/>
        <pt x="519" y="221" on="1"/>
        <pt x="519" y="191" on="0"/>
        <pt x="528" y="154" on="0"/>
        <pt x="551" y="133" on="0"/>
        <pt x="591" y="126" on="0"/>
        <pt x="622" y="126" on="1"/>
        <pt x="703" y="126" on="1"/>
        <pt x="691" y="-14" on="1"/>
        <pt x="608" y="-4" on="0"/>
        <pt x="464" y="0" on="0"/>
        <pt x="395" y="0" on="1"/>
        <pt x="311" y="0" on="0"/>
        <pt x="160" y="-4" on="0"/>
        <pt x="78" y="-14" on="1"/>
        <pt x="100" y="126" on="1"/>
        <pt x="200" y="126" on="1"/>
        <pt x="229" y="126" on="0"/>
        <pt x="281" y="128" on="0"/>
        <pt x="305" y="135" on="1"/>
        <pt x="318" y="158" on="0"/>
        <pt x="343" y="217" on="0"/>
        <pt x="348" y="256" on="1"/>
        <pt x="355" y="309" on="0"/>
        <pt x="371" y="465" on="0"/>
        <pt x="387" y="643" on="0"/>
        <pt x="401" y="829" on="0"/>
        <pt x="414" y="994" on="0"/>
        <pt x="423" y="1124" on="0"/>
        <pt x="425" y="1158" on="1"/>
        <pt x="428" y="1197" on="0"/>
        <pt x="428" y="1223" on="1"/>
        <pt x="428" y="1249" on="0"/>
        <pt x="423" y="1282" on="0"/>
        <pt x="418" y="1296" on="1"/>
        <pt x="397" y="1304" on="0"/>
        <pt x="345" y="1312" on="0"/>
        <pt x="310" y="1312" on="1"/>
        <pt x="206" y="1312" on="1"/>
        <pt x="206" y="1422" on="1"/>
        <pt x="235" y="1426" on="0"/>
        <pt x="294" y="1432" on="0"/>
        <pt x="360" y="1436" on="0"/>
        <pt x="435" y="1437" on="0"/>
        <pt x="479" y="1437" on="1"/>
        <pt x="551" y="1437" on="0"/>
        <pt x="660" y="1428" on="0"/>
        <pt x="698" y="1422" on="1"/>
        <pt x="722" y="1366" on="0"/>
        <pt x="781" y="1205" on="0"/>
        <pt x="847" y="1017" on="0"/>
        <pt x="915" y="814" on="0"/>
        <pt x="980" y="619" on="0"/>
        <pt x="1037" y="442" on="0"/>
        <pt x="1082" y="308" on="0"/>
        <pt x="1110" y="227" on="0"/>
        <pt x="1112" y="224" on="1"/>
        <pt x="1193" y="470" on="0"/>
        <pt x="1326" y="860" on="0"/>
        <pt x="1431" y="1156" on="0"/>
        <pt x="1506" y="1361" on="0"/>
        <pt x="1530" y="1422" on="1"/>
        <pt x="1550" y="1425" on="0"/>
        <pt x="1609" y="1430" on="0"/>
        <pt x="1671" y="1435" on="0"/>
        <pt x="1730" y="1437" on="0"/>
        <pt x="1751" y="1437" on="1"/>
        <pt x="1824" y="1437" on="0"/>
        <pt x="1941" y="1428" on="0"/>
        <pt x="1994" y="1423" on="1"/>
        <pt x="1996" y="1423" on="0"/>
        <pt x="2000" y="1422" on="0"/>
        <pt x="2002" y="1422" on="1"/>
        <pt x="2012" y="1312" on="1"/>
        <pt x="1926" y="1312" on="1"/>
        <pt x="1894" y="1312" on="0"/>
        <pt x="1835" y="1303" on="0"/>
        <pt x="1821" y="1292" on="1"/>
        <pt x="1817" y="1273" on="0"/>
        <pt x="1817" y="1246" on="1"/>
        <pt x="1817" y="1229" on="0"/>
        <pt x="1820" y="1190" on="0"/>
        <pt x="1822" y="1167" on="1"/>
        <pt x="1892" y="256" on="1"/>
        <pt x="1895" y="217" on="0"/>
        <pt x="1911" y="161" on="0"/>
        <pt x="1918" y="138" on="1"/>
        <pt x="1948" y="131" on="0"/>
        <pt x="2012" y="126" on="0"/>
        <pt x="2051" y="126" on="1"/>
        <pt x="2104" y="126" on="1"/>
        <pt x="2126" y="-14" on="1"/>
        <pt x="2042" y="-4" on="0"/>
        <pt x="1885" y="0" on="0"/>
        <pt x="1799" y="0" on="1"/>
        <pt x="1730" y="0" on="0"/>
        <pt x="1584" y="-4" on="0"/>
        <pt x="1503" y="-14" on="1"/>
        <pt x="1491" y="126" on="1"/>
        <pt x="1572" y="126" on="1"/>
        <pt x="1605" y="126" on="0"/>
        <pt x="1646" y="132" on="0"/>
        <pt x="1669" y="149" on="0"/>
        <pt x="1677" y="177" on="0"/>
      </contour>
    </TTGlyph>
    <TTGlyph name="N" xMin="78" yMin="-14" xMax="1608" yMax="1437">
      <contour>
        <pt x="308" y="1181" on="1"/>
        <pt x="308" y="1260" on="0"/>
        <pt x="292" y="1301" on="1"/>
        <pt x="270" y="1309" on="0"/>
        <pt x="218" y="1312" on="0"/>
        <pt x="189" y="1312" on="1"/>
        <pt x="78" y="1312" on="1"/>
        <pt x="78" y="1422" on="1"/>
        <pt x="115" y="1425" on="0"/>
        <pt x="180" y="1430" on="0"/>
        <pt x="244" y="1435" on="0"/>
        <pt x="311" y="1437" on="0"/>
        <pt x="352" y="1437" on="1"/>
        <pt x="406" y="1437" on="0"/>
        <pt x="493" y="1434" on="0"/>
        <pt x="531" y="1424" on="1"/>
        <pt x="618" y="1290" on="0"/>
        <pt x="803" y="1001" on="0"/>
        <pt x="990" y="704" on="0"/>
        <pt x="1172" y="407" on="0"/>
        <pt x="1256" y="265" on="1"/>
        <pt x="1256" y="318" on="0"/>
        <pt x="1254" y="472" on="0"/>
        <pt x="1251" y="648" on="0"/>
        <pt x="1247" y="833" on="0"/>
        <pt x="1244" y="1002" on="0"/>
        <pt x="1242" y="1140" on="0"/>
        <pt x="1242" y="1181" on="1"/>
        <pt x="1242" y="1260" on="0"/>
        <pt x="1226" y="1301" on="1"/>
        <pt x="1204" y="1308" on="0"/>
        <pt x="1152" y="1312" on="0"/>
        <pt x="1123" y="1312" on="1"/>
        <pt x="1022" y="1312" on="1"/>
        <pt x="1022" y="1422" on="1"/>
        <pt x="1089" y="1431" on="0"/>
        <pt x="1235" y="1437" on="0"/>
        <pt x="1323" y="1437" on="1"/>
        <pt x="1404" y="1437" on="0"/>
        <pt x="1554" y="1433" on="0"/>
        <pt x="1608" y="1422" on="1"/>
        <pt x="1608" y="1312" on="1"/>
        <pt x="1528" y="1312" on="1"/>
        <pt x="1499" y="1312" on="0"/>
        <pt x="1447" y="1308" on="0"/>
        <pt x="1425" y="1301" on="1"/>
        <pt x="1417" y="1278" on="0"/>
        <pt x="1410" y="1220" on="0"/>
        <pt x="1410" y="1181" on="1"/>
        <pt x="1410" y="1046" on="0"/>
        <pt x="1404" y="738" on="0"/>
        <pt x="1395" y="423" on="0"/>
        <pt x="1385" y="118" on="0"/>
        <pt x="1381" y="-14" on="1"/>
        <pt x="1277" y="-14" on="1"/>
        <pt x="1247" y="-14" on="0"/>
        <pt x="1205" y="-4" on="0"/>
        <pt x="1186" y="7" on="1"/>
        <pt x="460" y="1162" on="1"/>
        <pt x="462" y="1106" on="0"/>
        <pt x="466" y="913" on="0"/>
        <pt x="470" y="671" on="0"/>
        <pt x="473" y="396" on="0"/>
        <pt x="474" y="259" on="1"/>
        <pt x="474" y="217" on="0"/>
        <pt x="481" y="158" on="0"/>
        <pt x="488" y="135" on="1"/>
        <pt x="510" y="129" on="0"/>
        <pt x="562" y="126" on="0"/>
        <pt x="591" y="126" on="1"/>
        <pt x="682" y="126" on="1"/>
        <pt x="682" y="-14" on="1"/>
        <pt x="610" y="-4" on="0"/>
        <pt x="483" y="0" on="0"/>
        <pt x="421" y="0" on="1"/>
        <pt x="336" y="0" on="0"/>
        <pt x="184" y="-4" on="0"/>
        <pt x="101" y="-14" on="1"/>
        <pt x="101" y="126" on="1"/>
        <pt x="190" y="126" on="1"/>
        <pt x="219" y="126" on="0"/>
        <pt x="271" y="128" on="0"/>
        <pt x="293" y="135" on="1"/>
        <pt x="309" y="176" on="0"/>
        <pt x="309" y="256" on="1"/>
      </contour>
    </TTGlyph>
    <TTGlyph name="Nacute" xMin="78" yMin="-14" xMax="1608" yMax="1903">
      <component glyphName="acute" x="378" y="316" flags="0x1004"/>
      <component glyphName="N" x="0" y="0" flags="0x1204"/>
    </TTGlyph>
    <TTGlyph name="Ncaron" xMin="78" yMin="-14" xMax="1608" yMax="1954">
      <component glyphName="caron" x="196" y="351" flags="0x1004"/>
      <component glyphName="N" x="0" y="0" flags="0x1204"/>
    </TTGlyph>
    <TTGlyph name="Ntilde" xMin="78" yMin="-14" xMax="1608" yMax="1826">
      <component glyphName="tilde" x="224" y="305" flags="0x1004"/>
      <component glyphName="N" x="0" y="0" flags="0x1204"/>
    </TTGlyph>
    <TTGlyph name="O" xMin="115" yMin="-37" xMax="1450" yMax="1458">
      <contour>
        <pt x="356" y="711" on="1"/>
        <pt x="356" y="408" on="0"/>
        <pt x="569" y="87" on="0"/>
        <pt x="784" y="87" on="1"/>
        <pt x="886" y="87" on="0"/>
        <pt x="1045" y="163" on="0"/>
        <pt x="1153" y="318" on="0"/>
        <pt x="1210" y="554" on="0"/>
        <pt x="1210" y="714" on="1"/>
        <pt x="1210" y="1025" on="0"/>
        <pt x="989" y="1337" on="0"/>
        <pt x="784" y="1337" on="1"/>
        <pt x="682" y="1337" on="0"/>
        <pt x="523" y="1260" on="0"/>
        <pt x="414" y="1104" on="0"/>
        <pt x="356" y="869" on="0"/>
      </contour>
      <contour>
        <pt x="1450" y="714" on="1"/>
        <pt x="1450" y="538" on="0"/>
        <pt x="1357" y="259" on="0"/>
        <pt x="1184" y="66" on="0"/>
        <pt x="937" y="-37" on="0"/>
        <pt x="784" y="-37" on="1"/>
        <pt x="629" y="-37" on="0"/>
        <pt x="382" y="66" on="0"/>
        <pt x="208" y="259" on="0"/>
        <pt x="115" y="538" on="0"/>
        <pt x="115" y="714" on="1"/>
        <pt x="115" y="892" on="0"/>
        <pt x="208" y="1169" on="0"/>
        <pt x="382" y="1359" on="0"/>
        <pt x="629" y="1458" on="0"/>
        <pt x="784" y="1458" on="1"/>
        <pt x="937" y="1458" on="0"/>
        <pt x="1183" y="1359" on="0"/>
        <pt x="1357" y="1169" on="0"/>
        <pt x="1450" y="892" on="0"/>
      </contour>
    </TTGlyph>
    <TTGlyph name="OE" xMin="115" yMin="-37" xMax="2094" yMax="1458">
      <contour>
        <pt x="2055" y="1308" on="1"/>
        <pt x="2060" y="1283" on="0"/>
        <pt x="2069" y="1232" on="0"/>
        <pt x="2077" y="1187" on="0"/>
        <pt x="2081" y="1153" on="0"/>
        <pt x="2082" y="1144" on="1"/>
        <pt x="1935" y="1138" on="1"/>
        <pt x="1927" y="1188" on="1"/>
        <pt x="1923" y="1210" on="0"/>
        <pt x="1912" y="1259" on="0"/>
        <pt x="1904" y="1282" on="1"/>
        <pt x="1869" y="1298" on="0"/>
        <pt x="1747" y="1310" on="0"/>
        <pt x="1647" y="1310" on="1"/>
        <pt x="1635" y="1310" on="0"/>
        <pt x="1596" y="1309" on="0"/>
        <pt x="1526" y="1308" on="0"/>
        <pt x="1419" y="1305" on="0"/>
        <pt x="1339" y="1303" on="1"/>
        <pt x="1339" y="799" on="1"/>
        <pt x="1679" y="799" on="1"/>
        <pt x="1700" y="799" on="0"/>
        <pt x="1734" y="804" on="0"/>
        <pt x="1764" y="825" on="0"/>
        <pt x="1789" y="870" on="0"/>
        <pt x="1800" y="910" on="1"/>
        <pt x="1852" y="910" on="1"/>
        <pt x="1852" y="819" on="0"/>
        <pt x="1845" y="636" on="0"/>
        <pt x="1839" y="555" on="1"/>
        <pt x="1776" y="555" on="1"/>
        <pt x="1764" y="592" on="0"/>
        <pt x="1741" y="640" on="0"/>
        <pt x="1711" y="668" on="0"/>
        <pt x="1673" y="679" on="0"/>
        <pt x="1646" y="679" on="1"/>
        <pt x="1339" y="679" on="1"/>
        <pt x="1339" y="126" on="1"/>
        <pt x="1795" y="126" on="1"/>
        <pt x="1846" y="126" on="0"/>
        <pt x="1927" y="146" on="0"/>
        <pt x="1943" y="160" on="1"/>
        <pt x="1951" y="183" on="0"/>
        <pt x="1965" y="261" on="0"/>
        <pt x="1970" y="327" on="1"/>
        <pt x="1995" y="327" on="0"/>
        <pt x="2064" y="325" on="0"/>
        <pt x="2094" y="325" on="1"/>
        <pt x="2094" y="209" on="1"/>
        <pt x="2094" y="161" on="0"/>
        <pt x="2087" y="57" on="0"/>
        <pt x="2084" y="21" on="1"/>
        <pt x="2054" y="12" on="0"/>
        <pt x="1987" y="-1" on="0"/>
        <pt x="1897" y="-10" on="0"/>
        <pt x="1776" y="-14" on="0"/>
        <pt x="1693" y="-14" on="1"/>
        <pt x="1631" y="-14" on="0"/>
        <pt x="1517" y="-10" on="0"/>
        <pt x="1405" y="-4" on="0"/>
        <pt x="1292" y="0" on="0"/>
        <pt x="1231" y="0" on="1"/>
        <pt x="1172" y="0" on="0"/>
        <pt x="1075" y="-12" on="0"/>
        <pt x="975" y="-25" on="0"/>
        <pt x="861" y="-37" on="0"/>
        <pt x="784" y="-37" on="1"/>
        <pt x="629" y="-37" on="0"/>
        <pt x="382" y="66" on="0"/>
        <pt x="208" y="259" on="0"/>
        <pt x="115" y="538" on="0"/>
        <pt x="115" y="714" on="1"/>
        <pt x="115" y="892" on="0"/>
        <pt x="208" y="1169" on="0"/>
        <pt x="382" y="1359" on="0"/>
        <pt x="629" y="1458" on="0"/>
        <pt x="784" y="1458" on="1"/>
        <pt x="891" y="1458" on="0"/>
        <pt x="1058" y="1437" on="0"/>
        <pt x="1122" y="1437" on="1"/>
        <pt x="2028" y="1437" on="1"/>
      </contour>
      <contour>
        <pt x="356" y="711" on="1"/>
        <pt x="356" y="408" on="0"/>
        <pt x="569" y="87" on="0"/>
        <pt x="784" y="87" on="1"/>
        <pt x="899" y="87" on="0"/>
        <pt x="1065" y="105" on="0"/>
        <pt x="1122" y="122" on="1"/>
        <pt x="1122" y="1310" on="1"/>
        <pt x="1065" y="1324" on="0"/>
        <pt x="899" y="1337" on="0"/>
        <pt x="784" y="1337" on="1"/>
        <pt x="682" y="1337" on="0"/>
        <pt x="523" y="1260" on="0"/>
        <pt x="414" y="1104" on="0"/>
        <pt x="356" y="869" on="0"/>
      </contour>
    </TTGlyph>
    <TTGlyph name="Oacute" xMin="115" yMin="-37" xMax="1450" yMax="1903">
      <component glyphName="acute" x="324" y="316" flags="0x1004"/>
      <component glyphName="O" x="0" y="0" flags="0x1204"/>
    </TTGlyph>
    <TTGlyph name="Ocircumflex" xMin="115" yMin="-37" xMax="1450" yMax="1903">
      <component glyphName="circumflex" x="170" y="316" flags="0x1004"/>
      <component glyphName="O" x="0" y="0" flags="0x1204"/>
    </TTGlyph>
    <TTGlyph name="Odieresis" xMin="115" yMin="-37" xMax="1450" yMax="1805">
      <component glyphName="dieresis" x="343" y="281" flags="0x1004"/>
      <component glyphName="O" x="0" y="0" flags="0x1204"/>
    </TTGlyph>
    <TTGlyph name="Ograve" xMin="115" yMin="-37" xMax="1450" yMax="1903">
      <component glyphName="grave" x="21" y="316" flags="0x1004"/>
      <component glyphName="O" x="0" y="0" flags="0x1204"/>
    </TTGlyph>
    <TTGlyph name="Ohungarumlaut" xMin="115" yMin="-37" xMax="1450" yMax="1903">
      <component glyphName="hungarumlaut" x="339" y="316" flags="0x1004"/>
      <component glyphName="O" x="0" y="0" flags="0x1204"/>
    </TTGlyph>
    <TTGlyph name="Omega" xMin="79" yMin="0" xMax="1480" yMax="1423">
      <contour>
        <pt x="1427" y="0" on="1"/>
        <pt x="927" y="0" on="1"/>
        <pt x="912" y="40" on="1"/>
        <pt x="946" y="101" on="0"/>
        <pt x="1041" y="258" on="0"/>
        <pt x="1128" y="443" on="0"/>
        <pt x="1189" y="651" on="0"/>
        <pt x="1189" y="764" on="1"/>
        <pt x="1189" y="929" on="0"/>
        <pt x="1119" y="1157" on="0"/>
        <pt x="1003" y="1298" on="0"/>
        <pt x="854" y="1360" on="0"/>
        <pt x="775" y="1360" on="1"/>
        <pt x="692" y="1360" on="0"/>
        <pt x="544" y="1296" on="0"/>
        <pt x="433" y="1154" on="0"/>
        <pt x="368" y="924" on="0"/>
        <pt x="368" y="759" on="1"/>
        <pt x="368" y="660" on="0"/>
        <pt x="414" y="476" on="0"/>
        <pt x="490" y="299" on="0"/>
        <pt x="588" y="127" on="0"/>
        <pt x="640" y="40" on="1"/>
        <pt x="623" y="0" on="1"/>
        <pt x="128" y="0" on="1"/>
        <pt x="79" y="294" on="1"/>
        <pt x="129" y="296" on="1"/>
        <pt x="146" y="246" on="0"/>
        <pt x="177" y="185" on="0"/>
        <pt x="214" y="151" on="0"/>
        <pt x="259" y="140" on="0"/>
        <pt x="290" y="140" on="1"/>
        <pt x="514" y="140" on="1"/>
        <pt x="480" y="168" on="0"/>
        <pt x="401" y="238" on="0"/>
        <pt x="323" y="324" on="0"/>
        <pt x="251" y="428" on="0"/>
        <pt x="195" y="550" on="0"/>
        <pt x="162" y="692" on="0"/>
        <pt x="162" y="774" on="1"/>
        <pt x="162" y="922" on="0"/>
        <pt x="257" y="1162" on="0"/>
        <pt x="424" y="1332" on="0"/>
        <pt x="651" y="1423" on="0"/>
        <pt x="783" y="1423" on="1"/>
        <pt x="916" y="1423" on="0"/>
        <pt x="1141" y="1336" on="0"/>
        <pt x="1304" y="1173" on="0"/>
        <pt x="1395" y="939" on="0"/>
        <pt x="1395" y="792" on="1"/>
        <pt x="1395" y="683" on="0"/>
        <pt x="1327" y="494" on="0"/>
        <pt x="1222" y="332" on="0"/>
        <pt x="1093" y="196" on="0"/>
        <pt x="1033" y="140" on="1"/>
        <pt x="1267" y="140" on="1"/>
        <pt x="1300" y="140" on="0"/>
        <pt x="1345" y="150" on="0"/>
        <pt x="1380" y="183" on="0"/>
        <pt x="1409" y="244" on="0"/>
        <pt x="1427" y="296" on="1"/>
        <pt x="1480" y="294" on="1"/>
      </contour>
    </TTGlyph>
    <TTGlyph name="Oslash" xMin="115" yMin="-100" xMax="1450" yMax="1523">
      <contour>
        <pt x="1450" y="714" on="1"/>
        <pt x="1450" y="538" on="0"/>
        <pt x="1357" y="259" on="0"/>
        <pt x="1184" y="66" on="0"/>
        <pt x="937" y="-37" on="0"/>
        <pt x="784" y="-37" on="1"/>
        <pt x="706" y="-37" on="0"/>
        <pt x="568" y="-14" on="0"/>
        <pt x="506" y="14" on="1"/>
        <pt x="471" y="30" on="1"/>
        <pt x="394" y="-100" on="1"/>
        <pt x="345" y="-93" on="0"/>
        <pt x="287" y="-74" on="0"/>
        <pt x="279" y="-46" on="1"/>
        <pt x="287" y="-32" on="0"/>
        <pt x="305" y="-5" on="0"/>
        <pt x="316" y="10" on="1"/>
        <pt x="366" y="95" on="1"/>
        <pt x="245" y="196" on="0"/>
        <pt x="115" y="502" on="0"/>
        <pt x="115" y="714" on="1"/>
        <pt x="115" y="892" on="0"/>
        <pt x="208" y="1169" on="0"/>
        <pt x="382" y="1359" on="0"/>
        <pt x="629" y="1458" on="0"/>
        <pt x="784" y="1458" on="1"/>
        <pt x="884" y="1458" on="0"/>
        <pt x="1049" y="1417" on="0"/>
        <pt x="1124" y="1378" on="1"/>
        <pt x="1209" y="1523" on="1"/>
        <pt x="1257" y="1515" on="0"/>
        <pt x="1315" y="1497" on="0"/>
        <pt x="1323" y="1471" on="1"/>
        <pt x="1312" y="1457" on="0"/>
        <pt x="1298" y="1430" on="0"/>
        <pt x="1289" y="1415" on="1"/>
        <pt x="1225" y="1307" on="1"/>
        <pt x="1279" y="1263" on="0"/>
        <pt x="1363" y="1140" on="0"/>
        <pt x="1420" y="988" on="0"/>
        <pt x="1450" y="811" on="0"/>
      </contour>
      <contour>
        <pt x="356" y="711" on="1"/>
        <pt x="356" y="412" on="0"/>
        <pt x="459" y="252" on="1"/>
        <pt x="1044" y="1244" on="1"/>
        <pt x="942" y="1337" on="0"/>
        <pt x="784" y="1337" on="1"/>
        <pt x="682" y="1337" on="0"/>
        <pt x="523" y="1260" on="0"/>
        <pt x="414" y="1104" on="0"/>
        <pt x="356" y="869" on="0"/>
      </contour>
      <contour>
        <pt x="784" y="85" on="1"/>
        <pt x="886" y="85" on="0"/>
        <pt x="1045" y="162" on="0"/>
        <pt x="1153" y="318" on="0"/>
        <pt x="1210" y="554" on="0"/>
        <pt x="1210" y="714" on="1"/>
        <pt x="1210" y="984" on="0"/>
        <pt x="1126" y="1139" on="1"/>
        <pt x="545" y="156" on="1"/>
        <pt x="640" y="85" on="0"/>
      </contour>
    </TTGlyph>
    <TTGlyph name="Otilde" xMin="115" yMin="-37" xMax="1450" yMax="1826">
      <component glyphName="tilde" x="171" y="305" flags="0x1004"/>
      <component glyphName="O" x="0" y="0" flags="0x1204"/>
    </TTGlyph>
    <TTGlyph name="P" xMin="78" yMin="-14" xMax="1265" yMax="1448">
      <contour>
        <pt x="524" y="1312" on="1"/>
        <pt x="524" y="709" on="1"/>
        <pt x="555" y="708" on="0"/>
        <pt x="628" y="707" on="0"/>
        <pt x="673" y="707" on="1"/>
        <pt x="779" y="707" on="0"/>
        <pt x="920" y="751" on="0"/>
        <pt x="1005" y="830" on="0"/>
        <pt x="1041" y="942" on="0"/>
        <pt x="1041" y="1011" on="1"/>
        <pt x="1041" y="1095" on="0"/>
        <pt x="1000" y="1211" on="0"/>
        <pt x="914" y="1281" on="0"/>
        <pt x="784" y="1312" on="0"/>
        <pt x="695" y="1312" on="1"/>
      </contour>
      <contour>
        <pt x="306" y="1186" on="1"/>
        <pt x="306" y="1266" on="0"/>
        <pt x="290" y="1305" on="1"/>
        <pt x="274" y="1309" on="0"/>
        <pt x="217" y="1312" on="0"/>
        <pt x="188" y="1312" on="1"/>
        <pt x="78" y="1312" on="1"/>
        <pt x="78" y="1422" on="1"/>
        <pt x="190" y="1437" on="0"/>
        <pt x="473" y="1448" on="0"/>
        <pt x="647" y="1448" on="1"/>
        <pt x="798" y="1448" on="0"/>
        <pt x="1029" y="1408" on="0"/>
        <pt x="1185" y="1308" on="0"/>
        <pt x="1265" y="1140" on="0"/>
        <pt x="1265" y="1012" on="1"/>
        <pt x="1265" y="912" on="0"/>
        <pt x="1199" y="753" on="0"/>
        <pt x="1060" y="642" on="0"/>
        <pt x="841" y="583" on="0"/>
        <pt x="688" y="583" on="1"/>
        <pt x="653" y="583" on="0"/>
        <pt x="572" y="585" on="0"/>
        <pt x="524" y="588" on="1"/>
        <pt x="524" y="259" on="1"/>
        <pt x="524" y="217" on="0"/>
        <pt x="532" y="158" on="0"/>
        <pt x="539" y="135" on="1"/>
        <pt x="561" y="129" on="0"/>
        <pt x="613" y="126" on="0"/>
        <pt x="642" y="126" on="1"/>
        <pt x="732" y="126" on="1"/>
        <pt x="732" y="-14" on="1"/>
        <pt x="654" y="-4" on="0"/>
        <pt x="517" y="0" on="0"/>
        <pt x="450" y="0" on="1"/>
        <pt x="358" y="0" on="0"/>
        <pt x="189" y="-4" on="0"/>
        <pt x="99" y="-14" on="1"/>
        <pt x="99" y="126" on="1"/>
        <pt x="188" y="126" on="1"/>
        <pt x="217" y="126" on="0"/>
        <pt x="269" y="128" on="0"/>
        <pt x="291" y="135" on="1"/>
        <pt x="307" y="176" on="0"/>
        <pt x="307" y="256" on="1"/>
      </contour>
    </TTGlyph>
    <TTGlyph name="Q" xMin="115" yMin="-205" xMax="1499" yMax="1458">
      <contour>
        <pt x="1440" y="736" on="1"/>
        <pt x="1440" y="661" on="0"/>
        <pt x="1418" y="507" on="0"/>
        <pt x="1370" y="359" on="0"/>
        <pt x="1294" y="222" on="0"/>
        <pt x="1189" y="108" on="0"/>
        <pt x="1052" y="23" on="0"/>
        <pt x="966" y="0" on="1"/>
        <pt x="991" y="-21" on="0"/>
        <pt x="1058" y="-47" on="0"/>
        <pt x="1132" y="-61" on="0"/>
        <pt x="1206" y="-66" on="0"/>
        <pt x="1238" y="-66" on="1"/>
        <pt x="1255" y="-66" on="0"/>
        <pt x="1295" y="-60" on="0"/>
        <pt x="1349" y="-47" on="0"/>
        <pt x="1421" y="-27" on="0"/>
        <pt x="1472" y="-13" on="1"/>
        <pt x="1499" y="-118" on="1"/>
        <pt x="1408" y="-158" on="0"/>
        <pt x="1225" y="-205" on="0"/>
        <pt x="1128" y="-205" on="1"/>
        <pt x="1079" y="-205" on="0"/>
        <pt x="975" y="-191" on="0"/>
        <pt x="866" y="-153" on="0"/>
        <pt x="753" y="-85" on="0"/>
        <pt x="696" y="-31" on="1"/>
        <pt x="561" y="-16" on="0"/>
        <pt x="345" y="92" on="0"/>
        <pt x="195" y="281" on="0"/>
        <pt x="115" y="550" on="0"/>
        <pt x="115" y="726" on="1"/>
        <pt x="115" y="898" on="0"/>
        <pt x="208" y="1170" on="0"/>
        <pt x="380" y="1359" on="0"/>
        <pt x="626" y="1458" on="0"/>
        <pt x="779" y="1458" on="1"/>
        <pt x="921" y="1458" on="0"/>
        <pt x="1162" y="1359" on="0"/>
        <pt x="1338" y="1173" on="0"/>
        <pt x="1439" y="905" on="0"/>
      </contour>
      <contour>
        <pt x="353" y="711" on="1"/>
        <pt x="353" y="397" on="0"/>
        <pt x="571" y="84" on="0"/>
        <pt x="779" y="84" on="1"/>
        <pt x="880" y="84" on="0"/>
        <pt x="1039" y="158" on="0"/>
        <pt x="1148" y="313" on="0"/>
        <pt x="1205" y="550" on="0"/>
        <pt x="1205" y="712" on="1"/>
        <pt x="1205" y="868" on="0"/>
        <pt x="1148" y="1102" on="0"/>
        <pt x="1039" y="1259" on="0"/>
        <pt x="880" y="1337" on="0"/>
        <pt x="779" y="1337" on="1"/>
        <pt x="678" y="1337" on="0"/>
        <pt x="519" y="1259" on="0"/>
        <pt x="410" y="1103" on="0"/>
        <pt x="353" y="868" on="0"/>
      </contour>
    </TTGlyph>
    <TTGlyph name="R" xMin="78" yMin="-14" xMax="1443" yMax="1447">
      <contour>
        <pt x="524" y="1312" on="1"/>
        <pt x="524" y="729" on="1"/>
        <pt x="562" y="728" on="0"/>
        <pt x="650" y="727" on="0"/>
        <pt x="704" y="727" on="1"/>
        <pt x="886" y="727" on="0"/>
        <pt x="1056" y="880" on="0"/>
        <pt x="1056" y="1023" on="1"/>
        <pt x="1056" y="1105" on="0"/>
        <pt x="1014" y="1216" on="0"/>
        <pt x="923" y="1283" on="0"/>
        <pt x="780" y="1312" on="0"/>
        <pt x="679" y="1312" on="1"/>
      </contour>
      <contour>
        <pt x="306" y="1195" on="1"/>
        <pt x="306" y="1269" on="0"/>
        <pt x="290" y="1304" on="1"/>
        <pt x="270" y="1310" on="0"/>
        <pt x="223" y="1312" on="0"/>
        <pt x="198" y="1312" on="1"/>
        <pt x="78" y="1312" on="1"/>
        <pt x="78" y="1422" on="1"/>
        <pt x="111" y="1427" on="0"/>
        <pt x="201" y="1435" on="0"/>
        <pt x="303" y="1440" on="0"/>
        <pt x="414" y="1444" on="0"/>
        <pt x="521" y="1446" on="0"/>
        <pt x="621" y="1447" on="0"/>
        <pt x="661" y="1447" on="1"/>
        <pt x="812" y="1447" on="0"/>
        <pt x="1044" y="1405" on="0"/>
        <pt x="1201" y="1308" on="0"/>
        <pt x="1281" y="1149" on="0"/>
        <pt x="1281" y="1032" on="1"/>
        <pt x="1281" y="952" on="0"/>
        <pt x="1236" y="827" on="0"/>
        <pt x="1159" y="731" on="0"/>
        <pt x="1054" y="665" on="0"/>
        <pt x="994" y="644" on="1"/>
        <pt x="1007" y="579" on="0"/>
        <pt x="1059" y="452" on="0"/>
        <pt x="1127" y="337" on="0"/>
        <pt x="1206" y="238" on="0"/>
        <pt x="1285" y="167" on="0"/>
        <pt x="1358" y="126" on="0"/>
        <pt x="1387" y="126" on="1"/>
        <pt x="1443" y="126" on="1"/>
        <pt x="1443" y="-14" on="1"/>
        <pt x="1292" y="-14" on="1"/>
        <pt x="1201" y="-14" on="0"/>
        <pt x="1063" y="51" on="0"/>
        <pt x="960" y="156" on="0"/>
        <pt x="889" y="291" on="0"/>
        <pt x="840" y="429" on="0"/>
        <pt x="810" y="559" on="0"/>
        <pt x="800" y="608" on="1"/>
        <pt x="731" y="608" on="0"/>
        <pt x="593" y="610" on="0"/>
        <pt x="524" y="613" on="1"/>
        <pt x="524" y="259" on="1"/>
        <pt x="524" y="217" on="0"/>
        <pt x="532" y="158" on="0"/>
        <pt x="539" y="135" on="1"/>
        <pt x="561" y="129" on="0"/>
        <pt x="613" y="126" on="0"/>
        <pt x="642" y="126" on="1"/>
        <pt x="732" y="126" on="1"/>
        <pt x="732" y="-14" on="1"/>
        <pt x="654" y="-4" on="0"/>
        <pt x="517" y="0" on="0"/>
        <pt x="450" y="0" on="1"/>
        <pt x="358" y="0" on="0"/>
        <pt x="189" y="-4" on="0"/>
        <pt x="99" y="-14" on="1"/>
        <pt x="99" y="126" on="1"/>
        <pt x="188" y="126" on="1"/>
        <pt x="217" y="126" on="0"/>
        <pt x="269" y="128" on="0"/>
        <pt x="291" y="135" on="1"/>
        <pt x="307" y="176" on="0"/>
        <pt x="307" y="256" on="1"/>
      </contour>
    </TTGlyph>
    <TTGlyph name="Racute" xMin="78" yMin="-14" xMax="1443" yMax="1903">
      <component glyphName="acute" x="202" y="316" flags="0x1004"/>
      <component glyphName="R" x="0" y="0" flags="0x1204"/>
    </TTGlyph>
    <TTGlyph name="Rcaron" xMin="78" yMin="-14" xMax="1443" yMax="1954">
      <component glyphName="caron" x="19" y="351" flags="0x1004"/>
      <component glyphName="R" x="0" y="0" flags="0x1204"/>
    </TTGlyph>
    <TTGlyph name="Rcommaaccent" xMin="78" yMin="-701" xMax="1443" yMax="1447">
      <component glyphName="uni0326" x="558" y="-60" flags="0x1004"/>
      <component glyphName="R" x="0" y="0" flags="0x1204"/>
    </TTGlyph>
    <TTGlyph name="S" xMin="98" yMin="-37" xMax="1121" yMax="1458">
      <contour>
        <pt x="342" y="1108" on="1"/>
        <pt x="342" y="1062" on="0"/>
        <pt x="379" y="988" on="0"/>
        <pt x="448" y="927" on="0"/>
        <pt x="546" y="876" on="0"/>
        <pt x="607" y="852" on="1"/>
        <pt x="722" y="806" on="0"/>
        <pt x="912" y="716" on="0"/>
        <pt x="1047" y="609" on="0"/>
        <pt x="1121" y="476" on="0"/>
        <pt x="1121" y="387" on="1"/>
        <pt x="1121" y="282" on="0"/>
        <pt x="1041" y="124" on="0"/>
        <pt x="903" y="17" on="0"/>
        <pt x="718" y="-37" on="0"/>
        <pt x="614" y="-37" on="1"/>
        <pt x="540" y="-37" on="0"/>
        <pt x="398" y="-19" on="0"/>
        <pt x="266" y="21" on="0"/>
        <pt x="148" y="85" on="0"/>
        <pt x="98" y="132" on="1"/>
        <pt x="145" y="400" on="1"/>
        <pt x="295" y="394" on="1"/>
        <pt x="295" y="313" on="0"/>
        <pt x="317" y="201" on="0"/>
        <pt x="337" y="163" on="1"/>
        <pt x="362" y="140" on="0"/>
        <pt x="427" y="109" on="0"/>
        <pt x="500" y="91" on="0"/>
        <pt x="577" y="84" on="0"/>
        <pt x="614" y="84" on="1"/>
        <pt x="674" y="84" on="0"/>
        <pt x="778" y="121" on="0"/>
        <pt x="855" y="185" on="0"/>
        <pt x="899" y="274" on="0"/>
        <pt x="899" y="327" on="1"/>
        <pt x="899" y="390" on="0"/>
        <pt x="841" y="487" on="0"/>
        <pt x="736" y="567" on="0"/>
        <pt x="588" y="637" on="0"/>
        <pt x="498" y="673" on="1"/>
        <pt x="414" y="706" on="0"/>
        <pt x="276" y="783" on="0"/>
        <pt x="179" y="879" on="0"/>
        <pt x="125" y="999" on="0"/>
        <pt x="125" y="1076" on="1"/>
        <pt x="125" y="1158" on="0"/>
        <pt x="195" y="1298" on="0"/>
        <pt x="335" y="1400" on="0"/>
        <pt x="541" y="1458" on="0"/>
        <pt x="678" y="1458" on="1"/>
        <pt x="740" y="1458" on="0"/>
        <pt x="861" y="1446" on="0"/>
        <pt x="964" y="1422" on="0"/>
        <pt x="1040" y="1385" on="0"/>
        <pt x="1057" y="1360" on="1"/>
        <pt x="1056" y="1351" on="0"/>
        <pt x="1054" y="1327" on="0"/>
        <pt x="1048" y="1270" on="0"/>
        <pt x="1036" y="1167" on="0"/>
        <pt x="1025" y="1079" on="1"/>
        <pt x="894" y="1088" on="1"/>
        <pt x="894" y="1161" on="0"/>
        <pt x="869" y="1257" on="0"/>
        <pt x="809" y="1314" on="0"/>
        <pt x="707" y="1337" on="0"/>
        <pt x="629" y="1337" on="1"/>
        <pt x="563" y="1337" on="0"/>
        <pt x="457" y="1304" on="0"/>
        <pt x="382" y="1244" on="0"/>
        <pt x="342" y="1159" on="0"/>
      </contour>
    </TTGlyph>
    <TTGlyph name="Sacute" xMin="98" yMin="-37" xMax="1121" yMax="1903">
      <component glyphName="acute" x="218" y="316" flags="0x1004"/>
      <component glyphName="S" x="0" y="0" flags="0x1204"/>
    </TTGlyph>
    <TTGlyph name="Scaron" xMin="98" yMin="-37" xMax="1121" yMax="1954">
      <component glyphName="caron" x="36" y="351" flags="0x1004"/>
      <component glyphName="S" x="0" y="0" flags="0x1204"/>
    </TTGlyph>
    <TTGlyph name="Scedilla" xMin="98" yMin="-530" xMax="1121" yMax="1458">
      <component glyphName="cedilla" x="270" y="-31" flags="0x1004"/>
      <component glyphName="S" x="0" y="0" flags="0x1204"/>
    </TTGlyph>
    <TTGlyph name="T" xMin="41" yMin="-14" xMax="1348" yMax="1437">
      <contour>
        <pt x="1213" y="1068" on="1"/>
        <pt x="1213" y="1153" on="0"/>
        <pt x="1195" y="1278" on="0"/>
        <pt x="1179" y="1312" on="1"/>
        <pt x="811" y="1312" on="1"/>
        <pt x="811" y="259" on="1"/>
        <pt x="811" y="217" on="0"/>
        <pt x="818" y="158" on="0"/>
        <pt x="826" y="135" on="1"/>
        <pt x="848" y="129" on="0"/>
        <pt x="899" y="126" on="0"/>
        <pt x="929" y="126" on="1"/>
        <pt x="1019" y="126" on="1"/>
        <pt x="1019" y="-14" on="1"/>
        <pt x="941" y="-4" on="0"/>
        <pt x="803" y="0" on="0"/>
        <pt x="737" y="0" on="1"/>
        <pt x="645" y="0" on="0"/>
        <pt x="475" y="-4" on="0"/>
        <pt x="385" y="-14" on="1"/>
        <pt x="385" y="126" on="1"/>
        <pt x="474" y="126" on="1"/>
        <pt x="504" y="126" on="0"/>
        <pt x="556" y="128" on="0"/>
        <pt x="577" y="135" on="1"/>
        <pt x="592" y="174" on="0"/>
        <pt x="592" y="243" on="1"/>
        <pt x="592" y="1312" on="1"/>
        <pt x="224" y="1312" on="1"/>
        <pt x="208" y="1278" on="0"/>
        <pt x="190" y="1153" on="0"/>
        <pt x="190" y="1068" on="1"/>
        <pt x="52" y="1068" on="1"/>
        <pt x="52" y="1102" on="0"/>
        <pt x="49" y="1191" on="0"/>
        <pt x="44" y="1286" on="0"/>
        <pt x="41" y="1381" on="0"/>
        <pt x="41" y="1422" on="1"/>
        <pt x="63" y="1433" on="0"/>
        <pt x="188" y="1437" on="0"/>
        <pt x="277" y="1437" on="1"/>
        <pt x="288" y="1437" on="0"/>
        <pt x="353" y="1436" on="0"/>
        <pt x="440" y="1434" on="0"/>
        <pt x="540" y="1433" on="0"/>
        <pt x="629" y="1431" on="0"/>
        <pt x="698" y="1430" on="0"/>
        <pt x="712" y="1430" on="1"/>
        <pt x="738" y="1430" on="0"/>
        <pt x="816" y="1431" on="0"/>
        <pt x="902" y="1433" on="0"/>
        <pt x="989" y="1434" on="0"/>
        <pt x="1060" y="1436" on="0"/>
        <pt x="1106" y="1437" on="0"/>
        <pt x="1109" y="1437" on="1"/>
        <pt x="1200" y="1437" on="0"/>
        <pt x="1326" y="1432" on="0"/>
        <pt x="1348" y="1422" on="1"/>
        <pt x="1348" y="1381" on="0"/>
        <pt x="1345" y="1286" on="0"/>
        <pt x="1341" y="1191" on="0"/>
        <pt x="1338" y="1102" on="0"/>
        <pt x="1338" y="1068" on="1"/>
      </contour>
    </TTGlyph>
    <TTGlyph name="Tcaron" xMin="41" yMin="-14" xMax="1348" yMax="1954">
      <component glyphName="caron" x="51" y="351" flags="0x1004"/>
      <component glyphName="T" x="0" y="0" flags="0x1204"/>
    </TTGlyph>
    <TTGlyph name="Tcommaaccent" xMin="41" yMin="-507" xMax="1348" yMax="1437">
      <component glyphName="cedilla" x="358" y="-8" flags="0x1004"/>
      <component glyphName="T" x="0" y="0" flags="0x1204"/>
    </TTGlyph>
    <TTGlyph name="Thorn" xMin="108" yMin="-19" xMax="1276" yMax="1443">
      <contour>
        <pt x="317" y="1197" on="1"/>
        <pt x="317" y="1236" on="0"/>
        <pt x="309" y="1294" on="0"/>
        <pt x="301" y="1317" on="1"/>
        <pt x="279" y="1325" on="0"/>
        <pt x="228" y="1328" on="0"/>
        <pt x="198" y="1328" on="1"/>
        <pt x="108" y="1328" on="1"/>
        <pt x="108" y="1430" on="1"/>
        <pt x="177" y="1438" on="0"/>
        <pt x="329" y="1443" on="0"/>
        <pt x="423" y="1443" on="1"/>
        <pt x="520" y="1443" on="0"/>
        <pt x="684" y="1439" on="0"/>
        <pt x="744" y="1428" on="1"/>
        <pt x="744" y="1328" on="1"/>
        <pt x="652" y="1328" on="1"/>
        <pt x="623" y="1328" on="0"/>
        <pt x="572" y="1325" on="0"/>
        <pt x="549" y="1317" on="1"/>
        <pt x="543" y="1294" on="0"/>
        <pt x="535" y="1236" on="0"/>
        <pt x="535" y="1198" on="1"/>
        <pt x="622" y="1201" on="0"/>
        <pt x="718" y="1201" on="1"/>
        <pt x="846" y="1201" on="0"/>
        <pt x="1052" y="1161" on="0"/>
        <pt x="1198" y="1064" on="0"/>
        <pt x="1276" y="902" on="0"/>
        <pt x="1276" y="780" on="1"/>
        <pt x="1276" y="684" on="0"/>
        <pt x="1209" y="533" on="0"/>
        <pt x="1077" y="427" on="0"/>
        <pt x="878" y="371" on="0"/>
        <pt x="746" y="371" on="1"/>
        <pt x="669" y="371" on="1"/>
        <pt x="640" y="371" on="0"/>
        <pt x="574" y="373" on="0"/>
        <pt x="535" y="376" on="1"/>
        <pt x="535" y="250" on="1"/>
        <pt x="535" y="208" on="0"/>
        <pt x="543" y="149" on="0"/>
        <pt x="550" y="126" on="1"/>
        <pt x="572" y="120" on="0"/>
        <pt x="624" y="117" on="0"/>
        <pt x="653" y="117" on="1"/>
        <pt x="743" y="117" on="1"/>
        <pt x="743" y="-19" on="1"/>
        <pt x="655" y="-8" on="0"/>
        <pt x="501" y="0" on="0"/>
        <pt x="426" y="0" on="1"/>
        <pt x="345" y="0" on="0"/>
        <pt x="191" y="-10" on="0"/>
        <pt x="110" y="-19" on="1"/>
        <pt x="110" y="117" on="1"/>
        <pt x="199" y="117" on="1"/>
        <pt x="228" y="117" on="0"/>
        <pt x="280" y="119" on="0"/>
        <pt x="302" y="126" on="1"/>
        <pt x="318" y="167" on="0"/>
        <pt x="318" y="247" on="1"/>
      </contour>
      <contour>
        <pt x="706" y="1065" on="1"/>
        <pt x="658" y="1065" on="0"/>
        <pt x="573" y="1063" on="0"/>
        <pt x="535" y="1060" on="1"/>
        <pt x="535" y="497" on="1"/>
        <pt x="566" y="496" on="0"/>
        <pt x="639" y="495" on="0"/>
        <pt x="684" y="495" on="1"/>
        <pt x="790" y="495" on="0"/>
        <pt x="931" y="536" on="0"/>
        <pt x="1016" y="610" on="0"/>
        <pt x="1052" y="715" on="0"/>
        <pt x="1052" y="779" on="1"/>
        <pt x="1052" y="858" on="0"/>
        <pt x="1011" y="967" on="0"/>
        <pt x="925" y="1035" on="0"/>
        <pt x="795" y="1065" on="0"/>
      </contour>
    </TTGlyph>
    <TTGlyph name="U" xMin="31" yMin="-37" xMax="1575" yMax="1437">
      <contour>
        <pt x="1365" y="516" on="1"/>
        <pt x="1365" y="379" on="0"/>
        <pt x="1280" y="173" on="0"/>
        <pt x="1129" y="33" on="0"/>
        <pt x="919" y="-37" on="0"/>
        <pt x="794" y="-37" on="1"/>
        <pt x="644" y="-37" on="0"/>
        <pt x="433" y="51" on="0"/>
        <pt x="301" y="214" on="0"/>
        <pt x="240" y="444" on="0"/>
        <pt x="240" y="586" on="1"/>
        <pt x="240" y="1181" on="1"/>
        <pt x="240" y="1260" on="0"/>
        <pt x="224" y="1301" on="1"/>
        <pt x="202" y="1309" on="0"/>
        <pt x="151" y="1312" on="0"/>
        <pt x="121" y="1312" on="1"/>
        <pt x="31" y="1312" on="1"/>
        <pt x="31" y="1423" on="1"/>
        <pt x="100" y="1431" on="0"/>
        <pt x="252" y="1437" on="0"/>
        <pt x="346" y="1437" on="1"/>
        <pt x="443" y="1437" on="0"/>
        <pt x="608" y="1433" on="0"/>
        <pt x="669" y="1422" on="1"/>
        <pt x="669" y="1312" on="1"/>
        <pt x="576" y="1312" on="1"/>
        <pt x="547" y="1312" on="0"/>
        <pt x="496" y="1309" on="0"/>
        <pt x="473" y="1301" on="1"/>
        <pt x="459" y="1257" on="0"/>
        <pt x="459" y="1181" on="1"/>
        <pt x="459" y="501" on="1"/>
        <pt x="459" y="396" on="0"/>
        <pt x="511" y="240" on="0"/>
        <pt x="607" y="137" on="0"/>
        <pt x="742" y="85" on="0"/>
        <pt x="824" y="85" on="1"/>
        <pt x="1014" y="85" on="0"/>
        <pt x="1195" y="325" on="0"/>
        <pt x="1195" y="577" on="1"/>
        <pt x="1195" y="1181" on="1"/>
        <pt x="1195" y="1260" on="0"/>
        <pt x="1179" y="1301" on="1"/>
        <pt x="1157" y="1309" on="0"/>
        <pt x="1105" y="1312" on="0"/>
        <pt x="1076" y="1312" on="1"/>
        <pt x="986" y="1312" on="1"/>
        <pt x="986" y="1423" on="1"/>
        <pt x="1052" y="1431" on="0"/>
        <pt x="1193" y="1437" on="0"/>
        <pt x="1280" y="1437" on="1"/>
        <pt x="1368" y="1437" on="0"/>
        <pt x="1518" y="1433" on="0"/>
        <pt x="1575" y="1422" on="1"/>
        <pt x="1575" y="1312" on="1"/>
        <pt x="1483" y="1312" on="1"/>
        <pt x="1453" y="1312" on="0"/>
        <pt x="1401" y="1309" on="0"/>
        <pt x="1380" y="1301" on="1"/>
        <pt x="1372" y="1278" on="0"/>
        <pt x="1365" y="1220" on="0"/>
        <pt x="1365" y="1181" on="1"/>
      </contour>
    </TTGlyph>
    <TTGlyph name="Uacute" xMin="31" yMin="-37" xMax="1575" yMax="1903">
      <component glyphName="acute" x="354" y="316" flags="0x1004"/>
      <component glyphName="U" x="0" y="0" flags="0x1204"/>
    </TTGlyph>
    <TTGlyph name="Ucircumflex" xMin="31" yMin="-37" xMax="1575" yMax="1903">
      <component glyphName="circumflex" x="198" y="316" flags="0x1004"/>
      <component glyphName="U" x="0" y="0" flags="0x1204"/>
    </TTGlyph>
    <TTGlyph name="Udieresis" xMin="31" yMin="-37" xMax="1575" yMax="1805">
      <component glyphName="dieresis" x="372" y="281" flags="0x1004"/>
      <component glyphName="U" x="0" y="0" flags="0x1204"/>
    </TTGlyph>
    <TTGlyph name="Ugrave" xMin="31" yMin="-37" xMax="1575" yMax="1903">
      <component glyphName="grave" x="50" y="316" flags="0x1004"/>
      <component glyphName="U" x="0" y="0" flags="0x1204"/>
    </TTGlyph>
    <TTGlyph name="Uhungarumlaut" xMin="31" yMin="-37" xMax="1575" yMax="1903">
      <component glyphName="hungarumlaut" x="368" y="316" flags="0x1004"/>
      <component glyphName="U" x="0" y="0" flags="0x1204"/>
    </TTGlyph>
    <TTGlyph name="Uring" xMin="31" yMin="-37" xMax="1575" yMax="2030">
      <component glyphName="ring" x="486" y="345" flags="0x1004"/>
      <component glyphName="U" x="0" y="0" flags="0x1204"/>
    </TTGlyph>
    <TTGlyph name="V" xMin="0" yMin="0" xMax="1633" yMax="1437">
      <contour>
        <pt x="1238" y="1181" on="1"/>
        <pt x="1252" y="1220" on="0"/>
        <pt x="1262" y="1278" on="0"/>
        <pt x="1263" y="1301" on="1"/>
        <pt x="1243" y="1309" on="0"/>
        <pt x="1193" y="1312" on="0"/>
        <pt x="1163" y="1312" on="1"/>
        <pt x="1093" y="1312" on="1"/>
        <pt x="1098" y="1422" on="1"/>
        <pt x="1159" y="1430" on="0"/>
        <pt x="1290" y="1437" on="0"/>
        <pt x="1368" y="1437" on="1"/>
        <pt x="1449" y="1437" on="0"/>
        <pt x="1584" y="1433" on="0"/>
        <pt x="1633" y="1422" on="1"/>
        <pt x="1609" y="1312" on="1"/>
        <pt x="1557" y="1312" on="1"/>
        <pt x="1528" y="1312" on="0"/>
        <pt x="1476" y="1309" on="0"/>
        <pt x="1451" y="1301" on="1"/>
        <pt x="1437" y="1278" on="0"/>
        <pt x="1410" y="1220" on="0"/>
        <pt x="1396" y="1181" on="1"/>
        <pt x="1344" y="1039" on="0"/>
        <pt x="1232" y="737" on="0"/>
        <pt x="1117" y="433" on="0"/>
        <pt x="1001" y="136" on="0"/>
        <pt x="945" y="0" on="1"/>
        <pt x="841" y="0" on="1"/>
        <pt x="796" y="0" on="0"/>
        <pt x="738" y="16" on="0"/>
        <pt x="726" y="46" on="1"/>
        <pt x="272" y="1181" on="1"/>
        <pt x="256" y="1220" on="0"/>
        <pt x="222" y="1278" on="0"/>
        <pt x="205" y="1301" on="1"/>
        <pt x="179" y="1309" on="0"/>
        <pt x="127" y="1312" on="0"/>
        <pt x="98" y="1312" on="1"/>
        <pt x="23" y="1312" on="1"/>
        <pt x="0" y="1422" on="1"/>
        <pt x="61" y="1430" on="0"/>
        <pt x="200" y="1437" on="0"/>
        <pt x="288" y="1437" on="1"/>
        <pt x="388" y="1437" on="0"/>
        <pt x="560" y="1433" on="0"/>
        <pt x="627" y="1422" on="1"/>
        <pt x="640" y="1312" on="1"/>
        <pt x="568" y="1312" on="1"/>
        <pt x="539" y="1312" on="0"/>
        <pt x="489" y="1309" on="0"/>
        <pt x="469" y="1301" on="1"/>
        <pt x="469" y="1278" on="0"/>
        <pt x="492" y="1220" on="0"/>
        <pt x="507" y="1181" on="1"/>
        <pt x="879" y="215" on="1"/>
        <pt x="889" y="215" on="1"/>
      </contour>
    </TTGlyph>
    <TTGlyph name="W" xMin="18" yMin="0" xMax="2385" yMax="1437">
      <contour>
        <pt x="2013" y="1181" on="1"/>
        <pt x="2021" y="1211" on="0"/>
        <pt x="2027" y="1259" on="0"/>
        <pt x="2027" y="1279" on="1"/>
        <pt x="2027" y="1285" on="0"/>
        <pt x="2027" y="1296" on="0"/>
        <pt x="2026" y="1301" on="1"/>
        <pt x="2005" y="1309" on="0"/>
        <pt x="1955" y="1312" on="0"/>
        <pt x="1925" y="1312" on="1"/>
        <pt x="1855" y="1312" on="1"/>
        <pt x="1849" y="1422" on="1"/>
        <pt x="1909" y="1430" on="0"/>
        <pt x="2040" y="1437" on="0"/>
        <pt x="2118" y="1437" on="1"/>
        <pt x="2199" y="1437" on="0"/>
        <pt x="2334" y="1433" on="0"/>
        <pt x="2385" y="1422" on="1"/>
        <pt x="2371" y="1312" on="1"/>
        <pt x="2319" y="1312" on="1"/>
        <pt x="2290" y="1312" on="0"/>
        <pt x="2238" y="1309" on="0"/>
        <pt x="2214" y="1301" on="1"/>
        <pt x="2203" y="1278" on="0"/>
        <pt x="2180" y="1220" on="0"/>
        <pt x="2169" y="1181" on="1"/>
        <pt x="2130" y="1043" on="0"/>
        <pt x="2044" y="748" on="0"/>
        <pt x="1948" y="446" on="0"/>
        <pt x="1842" y="144" on="0"/>
        <pt x="1784" y="0" on="1"/>
        <pt x="1617" y="0" on="1"/>
        <pt x="1600" y="0" on="0"/>
        <pt x="1578" y="7" on="0"/>
        <pt x="1563" y="27" on="0"/>
        <pt x="1551" y="59" on="0"/>
        <pt x="1543" y="85" on="1"/>
        <pt x="1542" y="88" on="0"/>
        <pt x="1541" y="95" on="0"/>
        <pt x="1539" y="99" on="1"/>
        <pt x="1244" y="1006" on="1"/>
        <pt x="1174" y="750" on="0"/>
        <pt x="1009" y="250" on="0"/>
        <pt x="906" y="0" on="1"/>
        <pt x="746" y="0" on="1"/>
        <pt x="720" y="0" on="0"/>
        <pt x="683" y="19" on="0"/>
        <pt x="674" y="46" on="1"/>
        <pt x="290" y="1181" on="1"/>
        <pt x="276" y="1221" on="0"/>
        <pt x="240" y="1278" on="0"/>
        <pt x="223" y="1301" on="1"/>
        <pt x="197" y="1309" on="0"/>
        <pt x="145" y="1312" on="0"/>
        <pt x="116" y="1312" on="1"/>
        <pt x="41" y="1312" on="1"/>
        <pt x="18" y="1422" on="1"/>
        <pt x="79" y="1430" on="0"/>
        <pt x="218" y="1437" on="0"/>
        <pt x="306" y="1437" on="1"/>
        <pt x="406" y="1437" on="0"/>
        <pt x="578" y="1433" on="0"/>
        <pt x="645" y="1422" on="1"/>
        <pt x="658" y="1312" on="1"/>
        <pt x="586" y="1312" on="1"/>
        <pt x="557" y="1312" on="0"/>
        <pt x="507" y="1309" on="0"/>
        <pt x="487" y="1301" on="1"/>
        <pt x="490" y="1278" on="0"/>
        <pt x="510" y="1220" on="0"/>
        <pt x="525" y="1181" on="1"/>
        <pt x="838" y="216" on="1"/>
        <pt x="848" y="216" on="1"/>
        <pt x="862" y="255" on="0"/>
        <pt x="891" y="340" on="0"/>
        <pt x="924" y="443" on="0"/>
        <pt x="963" y="573" on="0"/>
        <pt x="1012" y="744" on="0"/>
        <pt x="1073" y="963" on="0"/>
        <pt x="1111" y="1103" on="1"/>
        <pt x="1123" y="1146" on="0"/>
        <pt x="1135" y="1225" on="0"/>
        <pt x="1143" y="1297" on="0"/>
        <pt x="1149" y="1363" on="0"/>
        <pt x="1154" y="1393" on="1"/>
        <pt x="1275" y="1393" on="1"/>
        <pt x="1294" y="1393" on="0"/>
        <pt x="1320" y="1386" on="0"/>
        <pt x="1337" y="1373" on="0"/>
        <pt x="1349" y="1352" on="0"/>
        <pt x="1354" y="1339" on="1"/>
        <pt x="1719" y="209" on="1"/>
        <pt x="1729" y="209" on="1"/>
        <pt x="1771" y="348" on="0"/>
        <pt x="1839" y="572" on="0"/>
        <pt x="1893" y="755" on="0"/>
        <pt x="1936" y="902" on="0"/>
        <pt x="1971" y="1025" on="0"/>
        <pt x="2000" y="1131" on="0"/>
      </contour>
    </TTGlyph>
    <TTGlyph name="X" xMin="16" yMin="-14" xMax="1568" yMax="1437">
      <contour>
        <pt x="767" y="589" on="1"/>
        <pt x="528" y="259" on="1"/>
        <pt x="499" y="219" on="0"/>
        <pt x="470" y="158" on="0"/>
        <pt x="461" y="135" on="1"/>
        <pt x="479" y="129" on="0"/>
        <pt x="529" y="126" on="0"/>
        <pt x="558" y="126" on="1"/>
        <pt x="609" y="126" on="1"/>
        <pt x="609" y="-14" on="1"/>
        <pt x="528" y="-4" on="0"/>
        <pt x="371" y="0" on="0"/>
        <pt x="295" y="0" on="1"/>
        <pt x="258" y="0" on="0"/>
        <pt x="190" y="0" on="0"/>
        <pt x="122" y="-3" on="0"/>
        <pt x="53" y="-9" on="0"/>
        <pt x="16" y="-14" on="1"/>
        <pt x="16" y="126" on="1"/>
        <pt x="104" y="126" on="1"/>
        <pt x="131" y="126" on="0"/>
        <pt x="179" y="128" on="0"/>
        <pt x="203" y="135" on="1"/>
        <pt x="227" y="158" on="0"/>
        <pt x="274" y="221" on="0"/>
        <pt x="308" y="256" on="1"/>
        <pt x="684" y="704" on="1"/>
        <pt x="348" y="1181" on="1"/>
        <pt x="321" y="1219" on="0"/>
        <pt x="284" y="1278" on="0"/>
        <pt x="261" y="1301" on="1"/>
        <pt x="235" y="1309" on="0"/>
        <pt x="181" y="1312" on="0"/>
        <pt x="152" y="1312" on="1"/>
        <pt x="78" y="1312" on="1"/>
        <pt x="63" y="1422" on="1"/>
        <pt x="117" y="1430" on="0"/>
        <pt x="242" y="1437" on="0"/>
        <pt x="318" y="1437" on="1"/>
        <pt x="424" y="1437" on="0"/>
        <pt x="605" y="1433" on="0"/>
        <pt x="680" y="1422" on="1"/>
        <pt x="694" y="1312" on="1"/>
        <pt x="633" y="1312" on="1"/>
        <pt x="603" y="1312" on="0"/>
        <pt x="554" y="1309" on="0"/>
        <pt x="537" y="1301" on="1"/>
        <pt x="540" y="1289" on="0"/>
        <pt x="548" y="1271" on="0"/>
        <pt x="561" y="1250" on="0"/>
        <pt x="579" y="1225" on="0"/>
        <pt x="592" y="1206" on="1"/>
        <pt x="827" y="859" on="1"/>
        <pt x="1079" y="1181" on="1"/>
        <pt x="1109" y="1219" on="0"/>
        <pt x="1145" y="1278" on="0"/>
        <pt x="1155" y="1301" on="1"/>
        <pt x="1138" y="1309" on="0"/>
        <pt x="1090" y="1312" on="0"/>
        <pt x="1060" y="1312" on="1"/>
        <pt x="1020" y="1312" on="1"/>
        <pt x="1034" y="1422" on="1"/>
        <pt x="1106" y="1430" on="0"/>
        <pt x="1251" y="1437" on="0"/>
        <pt x="1339" y="1437" on="1"/>
        <pt x="1411" y="1437" on="0"/>
        <pt x="1527" y="1433" on="0"/>
        <pt x="1568" y="1422" on="1"/>
        <pt x="1556" y="1312" on="1"/>
        <pt x="1474" y="1312" on="1"/>
        <pt x="1445" y="1312" on="0"/>
        <pt x="1391" y="1309" on="0"/>
        <pt x="1363" y="1301" on="1"/>
        <pt x="1339" y="1278" on="0"/>
        <pt x="1288" y="1219" on="0"/>
        <pt x="1257" y="1181" on="1"/>
        <pt x="1188" y="1095" on="0"/>
        <pt x="1079" y="962" on="0"/>
        <pt x="994" y="860" on="0"/>
        <pt x="927" y="783" on="0"/>
        <pt x="900" y="753" on="1"/>
        <pt x="1267" y="256" on="1"/>
        <pt x="1296" y="217" on="0"/>
        <pt x="1340" y="158" on="0"/>
        <pt x="1366" y="135" on="1"/>
        <pt x="1390" y="128" on="0"/>
        <pt x="1438" y="126" on="0"/>
        <pt x="1465" y="126" on="1"/>
        <pt x="1513" y="126" on="1"/>
        <pt x="1513" y="-14" on="1"/>
        <pt x="1476" y="-9" on="0"/>
        <pt x="1409" y="-4" on="0"/>
        <pt x="1343" y="-1" on="0"/>
        <pt x="1276" y="0" on="0"/>
        <pt x="1239" y="0" on="1"/>
        <pt x="1161" y="0" on="0"/>
        <pt x="1003" y="-4" on="0"/>
        <pt x="921" y="-14" on="1"/>
        <pt x="921" y="126" on="1"/>
        <pt x="971" y="126" on="1"/>
        <pt x="1000" y="126" on="0"/>
        <pt x="1050" y="129" on="0"/>
        <pt x="1068" y="135" on="1"/>
        <pt x="1058" y="158" on="0"/>
        <pt x="1026" y="217" on="0"/>
        <pt x="997" y="259" on="1"/>
      </contour>
    </TTGlyph>
    <TTGlyph name="Y" xMin="-10" yMin="-14" xMax="1594" yMax="1437">
      <contour>
        <pt x="1122" y="1212" on="1"/>
        <pt x="1133" y="1239" on="0"/>
        <pt x="1149" y="1282" on="0"/>
        <pt x="1153" y="1301" on="1"/>
        <pt x="1134" y="1309" on="0"/>
        <pt x="1085" y="1312" on="0"/>
        <pt x="1055" y="1312" on="1"/>
        <pt x="985" y="1312" on="1"/>
        <pt x="1009" y="1422" on="1"/>
        <pt x="1076" y="1430" on="0"/>
        <pt x="1216" y="1437" on="0"/>
        <pt x="1301" y="1437" on="1"/>
        <pt x="1392" y="1437" on="0"/>
        <pt x="1542" y="1433" on="0"/>
        <pt x="1594" y="1422" on="1"/>
        <pt x="1554" y="1312" on="1"/>
        <pt x="1469" y="1312" on="1"/>
        <pt x="1440" y="1312" on="0"/>
        <pt x="1387" y="1309" on="0"/>
        <pt x="1361" y="1301" on="1"/>
        <pt x="1350" y="1285" on="0"/>
        <pt x="1326" y="1253" on="0"/>
        <pt x="1316" y="1234" on="1"/>
        <pt x="1314" y="1229" on="0"/>
        <pt x="1275" y="1162" on="0"/>
        <pt x="1214" y="1060" on="0"/>
        <pt x="1138" y="932" on="0"/>
        <pt x="1099" y="866" on="1"/>
        <pt x="1007" y="711" on="0"/>
        <pt x="891" y="517" on="1"/>
        <pt x="891" y="259" on="1"/>
        <pt x="891" y="217" on="0"/>
        <pt x="899" y="158" on="0"/>
        <pt x="906" y="135" on="1"/>
        <pt x="928" y="129" on="0"/>
        <pt x="979" y="126" on="0"/>
        <pt x="1008" y="126" on="1"/>
        <pt x="1099" y="126" on="1"/>
        <pt x="1099" y="-14" on="1"/>
        <pt x="1021" y="-4" on="0"/>
        <pt x="884" y="0" on="0"/>
        <pt x="817" y="0" on="1"/>
        <pt x="725" y="0" on="0"/>
        <pt x="556" y="-4" on="0"/>
        <pt x="466" y="-14" on="1"/>
        <pt x="466" y="126" on="1"/>
        <pt x="555" y="126" on="1"/>
        <pt x="584" y="126" on="0"/>
        <pt x="635" y="128" on="0"/>
        <pt x="658" y="135" on="1"/>
        <pt x="666" y="158" on="0"/>
        <pt x="674" y="218" on="0"/>
        <pt x="677" y="256" on="1"/>
        <pt x="677" y="490" on="1"/>
        <pt x="268" y="1181" on="1"/>
        <pt x="245" y="1219" on="0"/>
        <pt x="217" y="1278" on="0"/>
        <pt x="200" y="1301" on="1"/>
        <pt x="175" y="1309" on="0"/>
        <pt x="122" y="1312" on="0"/>
        <pt x="93" y="1312" on="1"/>
        <pt x="19" y="1312" on="1"/>
        <pt x="-10" y="1422" on="1"/>
        <pt x="53" y="1430" on="0"/>
        <pt x="193" y="1437" on="0"/>
        <pt x="278" y="1437" on="1"/>
        <pt x="378" y="1437" on="0"/>
        <pt x="549" y="1433" on="0"/>
        <pt x="618" y="1422" on="1"/>
        <pt x="635" y="1312" on="1"/>
        <pt x="564" y="1312" on="1"/>
        <pt x="534" y="1312" on="0"/>
        <pt x="484" y="1309" on="0"/>
        <pt x="466" y="1301" on="1"/>
        <pt x="467" y="1289" on="0"/>
        <pt x="472" y="1270" on="0"/>
        <pt x="481" y="1249" on="0"/>
        <pt x="495" y="1224" on="0"/>
        <pt x="506" y="1206" on="1"/>
        <pt x="827" y="659" on="1"/>
        <pt x="900" y="790" on="0"/>
        <pt x="961" y="903" on="1"/>
        <pt x="987" y="951" on="0"/>
        <pt x="1039" y="1047" on="0"/>
        <pt x="1083" y="1131" on="0"/>
        <pt x="1115" y="1196" on="0"/>
      </contour>
    </TTGlyph>
    <TTGlyph name="Yacute" xMin="-10" yMin="-14" xMax="1594" yMax="1903">
      <component glyphName="acute" x="330" y="316" flags="0x1004"/>
      <component glyphName="Y" x="0" y="0" flags="0x1204"/>
    </TTGlyph>
    <TTGlyph name="Ydieresis" xMin="-10" yMin="-14" xMax="1594" yMax="1805">
      <component glyphName="dieresis" x="348" y="281" flags="0x1004"/>
      <component glyphName="Y" x="0" y="0" flags="0x1204"/>
    </TTGlyph>
    <TTGlyph name="Z" xMin="74" yMin="0" xMax="1144" yMax="1437">
      <contour>
        <pt x="113" y="1405" on="1"/>
        <pt x="167" y="1420" on="0"/>
        <pt x="422" y="1437" on="0"/>
        <pt x="631" y="1437" on="1"/>
        <pt x="1098" y="1437" on="1"/>
        <pt x="1117" y="1427" on="0"/>
        <pt x="1140" y="1385" on="0"/>
        <pt x="1140" y="1362" on="1"/>
        <pt x="1140" y="1306" on="1"/>
        <pt x="306" y="126" on="1"/>
        <pt x="816" y="126" on="1"/>
        <pt x="849" y="126" on="0"/>
        <pt x="909" y="144" on="0"/>
        <pt x="955" y="200" on="0"/>
        <pt x="982" y="305" on="0"/>
        <pt x="982" y="393" on="1"/>
        <pt x="1144" y="393" on="1"/>
        <pt x="1144" y="86" on="1"/>
        <pt x="1144" y="72" on="0"/>
        <pt x="1139" y="43" on="0"/>
        <pt x="1136" y="29" on="1"/>
        <pt x="1136" y="27" on="0"/>
        <pt x="1135" y="26" on="0"/>
        <pt x="1135" y="24" on="1"/>
        <pt x="1091" y="6" on="0"/>
        <pt x="971" y="0" on="0"/>
        <pt x="888" y="0" on="1"/>
        <pt x="106" y="0" on="1"/>
        <pt x="86" y="15" on="0"/>
        <pt x="74" y="51" on="0"/>
        <pt x="74" y="81" on="1"/>
        <pt x="74" y="133" on="1"/>
        <pt x="888" y="1312" on="1"/>
        <pt x="612" y="1312" on="1"/>
        <pt x="586" y="1312" on="0"/>
        <pt x="513" y="1309" on="0"/>
        <pt x="435" y="1303" on="0"/>
        <pt x="358" y="1292" on="0"/>
        <pt x="297" y="1275" on="0"/>
        <pt x="259" y="1251" on="0"/>
        <pt x="259" y="1235" on="1"/>
        <pt x="259" y="1210" on="0"/>
        <pt x="261" y="1159" on="0"/>
        <pt x="264" y="1127" on="1"/>
        <pt x="238" y="1127" on="0"/>
        <pt x="185" y="1126" on="0"/>
        <pt x="155" y="1125" on="1"/>
        <pt x="155" y="1128" on="0"/>
        <pt x="150" y="1164" on="0"/>
        <pt x="141" y="1217" on="0"/>
        <pt x="131" y="1280" on="0"/>
        <pt x="122" y="1340" on="0"/>
        <pt x="114" y="1391" on="0"/>
      </contour>
    </TTGlyph>
    <TTGlyph name="Zacute" xMin="74" yMin="0" xMax="1236" yMax="1903">
      <component glyphName="acute" x="405" y="316" flags="0x1004"/>
      <component glyphName="Z" x="0" y="0" flags="0x1204"/>
    </TTGlyph>
    <TTGlyph name="Zcaron" xMin="74" yMin="0" xMax="1218" yMax="1954">
      <component glyphName="caron" x="222" y="351" flags="0x1004"/>
      <component glyphName="Z" x="0" y="0" flags="0x1204"/>
    </TTGlyph>
    <TTGlyph name="Zdotaccent" xMin="74" yMin="0" xMax="1144" yMax="1851">
      <component glyphName="dotaccent" x="504" y="251" flags="0x1004"/>
      <component glyphName="Z" x="0" y="0" flags="0x1204"/>
    </TTGlyph>
    <TTGlyph name="a" xMin="102" yMin="-24" xMax="1159" yMax="1061">
      <contour>
        <pt x="754" y="205" on="1"/>
        <pt x="760" y="259" on="0"/>
        <pt x="770" y="396" on="0"/>
        <pt x="770" y="489" on="1"/>
        <pt x="612" y="489" on="1"/>
        <pt x="469" y="489" on="0"/>
        <pt x="317" y="383" on="0"/>
        <pt x="317" y="280" on="1"/>
        <pt x="317" y="190" on="0"/>
        <pt x="417" y="101" on="0"/>
        <pt x="501" y="101" on="1"/>
        <pt x="564" y="101" on="0"/>
        <pt x="694" y="160" on="0"/>
      </contour>
      <contour>
        <pt x="1159" y="19" on="1"/>
        <pt x="1108" y="1" on="0"/>
        <pt x="980" y="-13" on="0"/>
        <pt x="902" y="-13" on="1"/>
        <pt x="861" y="-13" on="0"/>
        <pt x="804" y="-9" on="0"/>
        <pt x="769" y="12" on="0"/>
        <pt x="753" y="56" on="0"/>
        <pt x="753" y="95" on="1"/>
        <pt x="751" y="115" on="1"/>
        <pt x="721" y="88" on="0"/>
        <pt x="653" y="38" on="0"/>
        <pt x="573" y="-1" on="0"/>
        <pt x="481" y="-24" on="0"/>
        <pt x="427" y="-24" on="1"/>
        <pt x="356" y="-24" on="0"/>
        <pt x="236" y="13" on="0"/>
        <pt x="150" y="87" on="0"/>
        <pt x="102" y="197" on="0"/>
        <pt x="102" y="271" on="1"/>
        <pt x="102" y="437" on="0"/>
        <pt x="360" y="603" on="0"/>
        <pt x="623" y="603" on="1"/>
        <pt x="770" y="603" on="1"/>
        <pt x="770" y="671" on="1"/>
        <pt x="770" y="746" on="0"/>
        <pt x="750" y="853" on="0"/>
        <pt x="705" y="922" on="0"/>
        <pt x="631" y="955" on="0"/>
        <pt x="578" y="955" on="1"/>
        <pt x="518" y="955" on="0"/>
        <pt x="423" y="921" on="0"/>
        <pt x="349" y="866" on="0"/>
        <pt x="292" y="794" on="0"/>
        <pt x="269" y="755" on="1"/>
        <pt x="130" y="843" on="1"/>
        <pt x="137" y="884" on="0"/>
        <pt x="203" y="962" on="0"/>
        <pt x="315" y="1024" on="0"/>
        <pt x="470" y="1061" on="0"/>
        <pt x="566" y="1061" on="1"/>
        <pt x="780" y="1061" on="0"/>
        <pt x="982" y="866" on="0"/>
        <pt x="982" y="682" on="1"/>
        <pt x="982" y="269" on="1"/>
        <pt x="982" y="212" on="0"/>
        <pt x="992" y="131" on="0"/>
        <pt x="999" y="101" on="1"/>
        <pt x="1159" y="101" on="1"/>
      </contour>
    </TTGlyph>
    <TTGlyph name="aacute" xMin="102" yMin="-24" xMax="1159" yMax="1507">
      <component glyphName="acute" x="106" y="-80" flags="0x1004"/>
      <component glyphName="a" x="0" y="0" flags="0x1204"/>
    </TTGlyph>
    <TTGlyph name="abreve" xMin="102" yMin="-24" xMax="1159" yMax="1514">
      <component glyphName="breve" x="-65" y="-82" flags="0x1004"/>
      <component glyphName="a" x="0" y="0" flags="0x1204"/>
    </TTGlyph>
    <TTGlyph name="acircumflex" xMin="102" yMin="-24" xMax="1159" yMax="1507">
      <component glyphName="circumflex" x="-48" y="-80" flags="0x1004"/>
      <component glyphName="a" x="0" y="0" flags="0x1204"/>
    </TTGlyph>
    <TTGlyph name="acute" xMin="391" yMin="1264" xMax="831" yMax="1587">
      <contour>
        <pt x="528" y="1264" on="1"/>
        <pt x="479" y="1264" on="0"/>
        <pt x="424" y="1264" on="0"/>
        <pt x="397" y="1264" on="0"/>
        <pt x="391" y="1265" on="0"/>
        <pt x="391" y="1265" on="1"/>
        <pt x="432" y="1335" on="0"/>
        <pt x="491" y="1438" on="0"/>
        <pt x="535" y="1513" on="0"/>
        <pt x="566" y="1566" on="0"/>
        <pt x="580" y="1587" on="1"/>
        <pt x="831" y="1587" on="1"/>
        <pt x="831" y="1587" on="0"/>
        <pt x="807" y="1559" on="0"/>
        <pt x="740" y="1487" on="0"/>
        <pt x="622" y="1362" on="0"/>
      </contour>
    </TTGlyph>
    <TTGlyph name="adieresis" xMin="102" yMin="-24" xMax="1159" yMax="1409">
      <component glyphName="dieresis" x="125" y="-115" flags="0x1004"/>
      <component glyphName="a" x="0" y="0" flags="0x1204"/>
    </TTGlyph>
    <TTGlyph name="ae" xMin="102" yMin="-28" xMax="1726" yMax="1068">
      <contour>
        <pt x="1704" y="167" on="1"/>
        <pt x="1647" y="63" on="0"/>
        <pt x="1445" y="-28" on="0"/>
        <pt x="1304" y="-28" on="1"/>
        <pt x="1148" y="-28" on="0"/>
        <pt x="919" y="83" on="0"/>
        <pt x="852" y="195" on="1"/>
        <pt x="848" y="193" on="0"/>
        <pt x="836" y="183" on="0"/>
        <pt x="813" y="165" on="0"/>
        <pt x="778" y="136" on="0"/>
        <pt x="751" y="115" on="1"/>
        <pt x="721" y="88" on="0"/>
        <pt x="653" y="37" on="0"/>
        <pt x="573" y="-3" on="0"/>
        <pt x="481" y="-28" on="0"/>
        <pt x="427" y="-28" on="1"/>
        <pt x="356" y="-28" on="0"/>
        <pt x="236" y="11" on="0"/>
        <pt x="150" y="86" on="0"/>
        <pt x="102" y="198" on="0"/>
        <pt x="102" y="271" on="1"/>
        <pt x="102" y="437" on="0"/>
        <pt x="360" y="603" on="0"/>
        <pt x="623" y="603" on="1"/>
        <pt x="770" y="603" on="1"/>
        <pt x="770" y="671" on="1"/>
        <pt x="770" y="749" on="0"/>
        <pt x="750" y="860" on="0"/>
        <pt x="705" y="931" on="0"/>
        <pt x="631" y="965" on="0"/>
        <pt x="578" y="965" on="1"/>
        <pt x="518" y="965" on="0"/>
        <pt x="423" y="929" on="0"/>
        <pt x="349" y="871" on="0"/>
        <pt x="292" y="795" on="0"/>
        <pt x="269" y="755" on="1"/>
        <pt x="130" y="843" on="1"/>
        <pt x="137" y="886" on="0"/>
        <pt x="203" y="967" on="0"/>
        <pt x="315" y="1030" on="0"/>
        <pt x="470" y="1068" on="0"/>
        <pt x="566" y="1068" on="1"/>
        <pt x="699" y="1068" on="0"/>
        <pt x="871" y="997" on="0"/>
        <pt x="919" y="927" on="1"/>
        <pt x="988" y="996" on="0"/>
        <pt x="1179" y="1068" on="0"/>
        <pt x="1300" y="1068" on="1"/>
        <pt x="1390" y="1068" on="0"/>
        <pt x="1546" y="1013" on="0"/>
        <pt x="1661" y="908" on="0"/>
        <pt x="1726" y="756" on="0"/>
        <pt x="1726" y="659" on="1"/>
        <pt x="1726" y="602" on="0"/>
        <pt x="1707" y="534" on="0"/>
        <pt x="1670" y="498" on="0"/>
        <pt x="1613" y="487" on="0"/>
        <pt x="1574" y="487" on="1"/>
        <pt x="988" y="487" on="1"/>
        <pt x="999" y="289" on="0"/>
        <pt x="1188" y="93" on="0"/>
        <pt x="1347" y="93" on="1"/>
        <pt x="1425" y="93" on="0"/>
        <pt x="1561" y="145" on="0"/>
        <pt x="1618" y="205" on="1"/>
      </contour>
      <contour>
        <pt x="1509" y="604" on="1"/>
        <pt x="1511" y="608" on="0"/>
        <pt x="1511" y="616" on="0"/>
        <pt x="1511" y="621" on="1"/>
        <pt x="1511" y="688" on="0"/>
        <pt x="1484" y="810" on="0"/>
        <pt x="1425" y="903" on="0"/>
        <pt x="1332" y="958" on="0"/>
        <pt x="1266" y="958" on="1"/>
        <pt x="1133" y="958" on="0"/>
        <pt x="996" y="779" on="0"/>
        <pt x="987" y="604" on="1"/>
      </contour>
      <contour>
        <pt x="754" y="205" on="1"/>
        <pt x="760" y="259" on="0"/>
        <pt x="770" y="396" on="0"/>
        <pt x="770" y="489" on="1"/>
        <pt x="612" y="489" on="1"/>
        <pt x="469" y="489" on="0"/>
        <pt x="317" y="383" on="0"/>
        <pt x="317" y="280" on="1"/>
        <pt x="317" y="185" on="0"/>
        <pt x="417" y="93" on="0"/>
        <pt x="501" y="93" on="1"/>
        <pt x="564" y="93" on="0"/>
        <pt x="694" y="156" on="0"/>
      </contour>
    </TTGlyph>
    <TTGlyph name="agrave" xMin="102" yMin="-24" xMax="1159" yMax="1507">
      <component glyphName="grave" x="-197" y="-80" flags="0x1004"/>
      <component glyphName="a" x="0" y="0" flags="0x1204"/>
    </TTGlyph>
    <TTGlyph name="ampersand" xMin="74" yMin="-37" xMax="1367" yMax="1421">
      <contour>
        <pt x="605" y="657" on="1"/>
        <pt x="537" y="657" on="0"/>
        <pt x="427" y="618" on="0"/>
        <pt x="348" y="544" on="0"/>
        <pt x="305" y="437" on="0"/>
        <pt x="305" y="369" on="1"/>
        <pt x="305" y="309" on="0"/>
        <pt x="339" y="208" on="0"/>
        <pt x="416" y="135" on="0"/>
        <pt x="538" y="94" on="0"/>
        <pt x="625" y="94" on="1"/>
        <pt x="695" y="94" on="0"/>
        <pt x="815" y="133" on="0"/>
        <pt x="902" y="213" on="0"/>
        <pt x="951" y="336" on="0"/>
        <pt x="951" y="421" on="1"/>
        <pt x="951" y="466" on="0"/>
        <pt x="947" y="548" on="0"/>
        <pt x="943" y="582" on="1"/>
        <pt x="935" y="657" on="1"/>
      </contour>
      <contour>
        <pt x="1367" y="788" on="1"/>
        <pt x="1367" y="510" on="1"/>
        <pt x="1304" y="510" on="1"/>
        <pt x="1292" y="556" on="0"/>
        <pt x="1269" y="613" on="0"/>
        <pt x="1239" y="645" on="0"/>
        <pt x="1201" y="657" on="0"/>
        <pt x="1174" y="657" on="1"/>
        <pt x="1104" y="657" on="1"/>
        <pt x="1114" y="587" on="0"/>
        <pt x="1133" y="424" on="0"/>
        <pt x="1133" y="343" on="1"/>
        <pt x="1133" y="253" on="0"/>
        <pt x="1062" y="112" on="0"/>
        <pt x="927" y="14" on="0"/>
        <pt x="731" y="-37" on="0"/>
        <pt x="607" y="-37" on="1"/>
        <pt x="460" y="-37" on="0"/>
        <pt x="257" y="23" on="0"/>
        <pt x="131" y="131" on="0"/>
        <pt x="74" y="282" on="0"/>
        <pt x="74" y="374" on="1"/>
        <pt x="74" y="434" on="0"/>
        <pt x="112" y="547" on="0"/>
        <pt x="190" y="641" on="0"/>
        <pt x="307" y="712" on="0"/>
        <pt x="385" y="729" on="1"/>
        <pt x="385" y="734" on="1"/>
        <pt x="323" y="749" on="0"/>
        <pt x="224" y="805" on="0"/>
        <pt x="154" y="887" on="0"/>
        <pt x="116" y="992" on="0"/>
        <pt x="116" y="1057" on="1"/>
        <pt x="116" y="1137" on="0"/>
        <pt x="174" y="1271" on="0"/>
        <pt x="291" y="1367" on="0"/>
        <pt x="467" y="1421" on="0"/>
        <pt x="585" y="1421" on="1"/>
        <pt x="657" y="1421" on="0"/>
        <pt x="789" y="1401" on="0"/>
        <pt x="900" y="1370" on="0"/>
        <pt x="984" y="1334" on="0"/>
        <pt x="1009" y="1318" on="1"/>
        <pt x="985" y="1039" on="1"/>
        <pt x="862" y="1039" on="1"/>
        <pt x="840" y="1109" on="0"/>
        <pt x="794" y="1210" on="0"/>
        <pt x="735" y="1275" on="0"/>
        <pt x="655" y="1306" on="0"/>
        <pt x="600" y="1306" on="1"/>
        <pt x="527" y="1306" on="0"/>
        <pt x="423" y="1265" on="0"/>
        <pt x="356" y="1194" on="0"/>
        <pt x="324" y="1100" on="0"/>
        <pt x="324" y="1048" on="1"/>
        <pt x="324" y="998" on="0"/>
        <pt x="360" y="905" on="0"/>
        <pt x="434" y="832" on="0"/>
        <pt x="547" y="788" on="0"/>
        <pt x="625" y="788" on="1"/>
      </contour>
    </TTGlyph>
    <TTGlyph name="aogonek" xMin="102" yMin="-441" xMax="1159" yMax="1061">
      <component glyphName="ogonek" x="312" y="-5" flags="0x1004"/>
      <component glyphName="a" x="0" y="0" flags="0x1004"/>
    </TTGlyph>
    <TTGlyph name="approxequal" xMin="113" yMin="266" xMax="1074" yMax="881">
      <contour>
        <pt x="1074" y="812" on="1"/>
        <pt x="1051" y="771" on="0"/>
        <pt x="996" y="700" on="0"/>
        <pt x="930" y="647" on="0"/>
        <pt x="852" y="617" on="0"/>
        <pt x="806" y="617" on="1"/>
        <pt x="775" y="617" on="0"/>
        <pt x="720" y="628" on="0"/>
        <pt x="665" y="649" on="0"/>
        <pt x="606" y="681" on="0"/>
        <pt x="572" y="701" on="1"/>
        <pt x="526" y="728" on="0"/>
        <pt x="441" y="767" on="0"/>
        <pt x="389" y="767" on="1"/>
        <pt x="354" y="767" on="0"/>
        <pt x="298" y="743" on="0"/>
        <pt x="250" y="703" on="0"/>
        <pt x="209" y="650" on="0"/>
        <pt x="189" y="621" on="1"/>
        <pt x="113" y="685" on="1"/>
        <pt x="135" y="729" on="0"/>
        <pt x="197" y="801" on="0"/>
        <pt x="271" y="853" on="0"/>
        <pt x="356" y="881" on="0"/>
        <pt x="401" y="881" on="1"/>
        <pt x="438" y="881" on="0"/>
        <pt x="501" y="865" on="0"/>
        <pt x="554" y="841" on="0"/>
        <pt x="601" y="813" on="0"/>
        <pt x="622" y="802" on="1"/>
        <pt x="650" y="787" on="0"/>
        <pt x="696" y="761" on="0"/>
        <pt x="739" y="743" on="0"/>
        <pt x="782" y="732" on="0"/>
        <pt x="808" y="732" on="1"/>
        <pt x="869" y="732" on="0"/>
        <pt x="957" y="809" on="0"/>
        <pt x="999" y="881" on="1"/>
      </contour>
      <contour>
        <pt x="1074" y="460" on="1"/>
        <pt x="1051" y="419" on="0"/>
        <pt x="997" y="348" on="0"/>
        <pt x="931" y="296" on="0"/>
        <pt x="853" y="266" on="0"/>
        <pt x="806" y="266" on="1"/>
        <pt x="775" y="266" on="0"/>
        <pt x="720" y="277" on="0"/>
        <pt x="664" y="297" on="0"/>
        <pt x="605" y="327" on="0"/>
        <pt x="571" y="347" on="1"/>
        <pt x="548" y="360" on="0"/>
        <pt x="504" y="385" on="0"/>
        <pt x="460" y="404" on="0"/>
        <pt x="414" y="415" on="0"/>
        <pt x="389" y="415" on="1"/>
        <pt x="354" y="415" on="0"/>
        <pt x="297" y="390" on="0"/>
        <pt x="249" y="349" on="0"/>
        <pt x="208" y="295" on="0"/>
        <pt x="189" y="266" on="1"/>
        <pt x="113" y="331" on="1"/>
        <pt x="135" y="375" on="0"/>
        <pt x="198" y="448" on="0"/>
        <pt x="273" y="499" on="0"/>
        <pt x="357" y="527" on="0"/>
        <pt x="401" y="527" on="1"/>
        <pt x="434" y="527" on="0"/>
        <pt x="492" y="514" on="0"/>
        <pt x="543" y="495" on="0"/>
        <pt x="586" y="471" on="0"/>
        <pt x="606" y="460" on="1"/>
        <pt x="639" y="440" on="0"/>
        <pt x="693" y="410" on="0"/>
        <pt x="739" y="390" on="0"/>
        <pt x="784" y="379" on="0"/>
        <pt x="808" y="379" on="1"/>
        <pt x="839" y="379" on="0"/>
        <pt x="890" y="399" on="0"/>
        <pt x="935" y="436" on="0"/>
        <pt x="977" y="491" on="0"/>
        <pt x="999" y="527" on="1"/>
      </contour>
    </TTGlyph>
    <TTGlyph name="aring" xMin="102" yMin="-24" xMax="1159" yMax="1634">
      <component glyphName="ring" x="240" y="-51" flags="0x1004"/>
      <component glyphName="a" x="0" y="0" flags="0x1204"/>
    </TTGlyph>
    <TTGlyph name="asciicircum" xMin="104" yMin="362" xMax="1084" yMax="1208">
      <contour>
        <pt x="1059" y="505" on="1"/>
        <pt x="1068" y="487" on="0"/>
        <pt x="1084" y="447" on="0"/>
        <pt x="1084" y="426" on="1"/>
        <pt x="1084" y="401" on="0"/>
        <pt x="1069" y="380" on="1"/>
        <pt x="967" y="362" on="1"/>
        <pt x="597" y="1003" on="1"/>
        <pt x="234" y="364" on="1"/>
        <pt x="165" y="380" on="1"/>
        <pt x="142" y="385" on="0"/>
        <pt x="112" y="404" on="0"/>
        <pt x="104" y="415" on="1"/>
        <pt x="112" y="437" on="0"/>
        <pt x="131" y="482" on="0"/>
        <pt x="144" y="505" on="1"/>
        <pt x="540" y="1208" on="1"/>
        <pt x="607" y="1208" on="1"/>
        <pt x="620" y="1208" on="0"/>
        <pt x="661" y="1199" on="0"/>
        <pt x="677" y="1172" on="1"/>
      </contour>
    </TTGlyph>
    <TTGlyph name="asciitilde" xMin="113" yMin="394" xMax="1090" yMax="671">
      <contour>
        <pt x="1026" y="645" on="1"/>
        <pt x="1049" y="615" on="0"/>
        <pt x="1082" y="564" on="0"/>
        <pt x="1090" y="543" on="1"/>
        <pt x="1078" y="505" on="0"/>
        <pt x="1027" y="450" on="0"/>
        <pt x="960" y="412" on="0"/>
        <pt x="884" y="394" on="0"/>
        <pt x="847" y="394" on="1"/>
        <pt x="804" y="394" on="0"/>
        <pt x="720" y="414" on="0"/>
        <pt x="640" y="444" on="0"/>
        <pt x="562" y="480" on="0"/>
        <pt x="485" y="510" on="0"/>
        <pt x="411" y="530" on="0"/>
        <pt x="374" y="530" on="1"/>
        <pt x="316" y="530" on="0"/>
        <pt x="224" y="455" on="0"/>
        <pt x="189" y="398" on="1"/>
        <pt x="160" y="429" on="0"/>
        <pt x="121" y="477" on="0"/>
        <pt x="113" y="495" on="1"/>
        <pt x="123" y="535" on="0"/>
        <pt x="182" y="601" on="0"/>
        <pt x="257" y="646" on="0"/>
        <pt x="338" y="671" on="0"/>
        <pt x="370" y="671" on="1"/>
        <pt x="405" y="671" on="0"/>
        <pt x="483" y="651" on="0"/>
        <pt x="564" y="622" on="0"/>
        <pt x="645" y="587" on="0"/>
        <pt x="722" y="558" on="0"/>
        <pt x="793" y="538" on="0"/>
        <pt x="823" y="538" on="1"/>
        <pt x="864" y="538" on="0"/>
        <pt x="930" y="559" on="0"/>
        <pt x="981" y="591" on="0"/>
        <pt x="1016" y="628" on="0"/>
      </contour>
    </TTGlyph>
    <TTGlyph name="asterisk" xMin="84" yMin="670" xMax="830" yMax="1440">
      <contour>
        <pt x="280" y="743" on="1"/>
        <pt x="394" y="994" on="1"/>
        <pt x="126" y="859" on="1"/>
        <pt x="84" y="1014" on="1"/>
        <pt x="370" y="1080" on="1"/>
        <pt x="122" y="1249" on="1"/>
        <pt x="253" y="1363" on="1"/>
        <pt x="430" y="1139" on="1"/>
        <pt x="460" y="1440" on="1"/>
        <pt x="638" y="1389" on="1"/>
        <pt x="521" y="1126" on="1"/>
        <pt x="791" y="1252" on="1"/>
        <pt x="830" y="1099" on="1"/>
        <pt x="549" y="1041" on="1"/>
        <pt x="791" y="843" on="1"/>
        <pt x="659" y="737" on="1"/>
        <pt x="484" y="982" on="1"/>
        <pt x="457" y="670" on="1"/>
      </contour>
    </TTGlyph>
    <TTGlyph name="at" xMin="133" yMin="-172" xMax="1751" yMax="1468">
      <contour>
        <pt x="1554" y="0" on="1"/>
        <pt x="1421" y="-85" on="0"/>
        <pt x="1134" y="-172" on="0"/>
        <pt x="992" y="-172" on="1"/>
        <pt x="864" y="-172" on="0"/>
        <pt x="637" y="-114" on="0"/>
        <pt x="446" y="-8" on="0"/>
        <pt x="294" y="139" on="0"/>
        <pt x="189" y="317" on="0"/>
        <pt x="133" y="521" on="0"/>
        <pt x="133" y="630" on="1"/>
        <pt x="133" y="754" on="0"/>
        <pt x="196" y="974" on="0"/>
        <pt x="309" y="1160" on="0"/>
        <pt x="468" y="1309" on="0"/>
        <pt x="662" y="1413" on="0"/>
        <pt x="883" y="1468" on="0"/>
        <pt x="1003" y="1468" on="1"/>
        <pt x="1162" y="1468" on="0"/>
        <pt x="1435" y="1368" on="0"/>
        <pt x="1636" y="1185" on="0"/>
        <pt x="1751" y="926" on="0"/>
        <pt x="1751" y="767" on="1"/>
        <pt x="1751" y="667" on="0"/>
        <pt x="1690" y="472" on="0"/>
        <pt x="1581" y="318" on="0"/>
        <pt x="1430" y="223" on="0"/>
        <pt x="1340" y="223" on="1"/>
        <pt x="1294" y="223" on="0"/>
        <pt x="1220" y="250" on="0"/>
        <pt x="1165" y="296" on="0"/>
        <pt x="1127" y="359" on="0"/>
        <pt x="1117" y="395" on="1"/>
        <pt x="1109" y="395" on="1"/>
        <pt x="1067" y="319" on="0"/>
        <pt x="932" y="223" on="0"/>
        <pt x="842" y="223" on="1"/>
        <pt x="789" y="223" on="0"/>
        <pt x="690" y="259" on="0"/>
        <pt x="615" y="335" on="0"/>
        <pt x="570" y="452" on="0"/>
        <pt x="570" y="533" on="1"/>
        <pt x="570" y="642" on="0"/>
        <pt x="642" y="846" on="0"/>
        <pt x="771" y="1002" on="0"/>
        <pt x="951" y="1096" on="0"/>
        <pt x="1059" y="1096" on="1"/>
        <pt x="1116" y="1096" on="0"/>
        <pt x="1208" y="1045" on="0"/>
        <pt x="1237" y="987" on="1"/>
        <pt x="1276" y="1052" on="1"/>
        <pt x="1383" y="1052" on="1"/>
        <pt x="1267" y="552" on="1"/>
        <pt x="1261" y="526" on="0"/>
        <pt x="1254" y="476" on="0"/>
        <pt x="1254" y="453" on="1"/>
        <pt x="1254" y="386" on="0"/>
        <pt x="1305" y="324" on="0"/>
        <pt x="1362" y="324" on="1"/>
        <pt x="1413" y="324" on="0"/>
        <pt x="1510" y="397" on="0"/>
        <pt x="1587" y="520" on="0"/>
        <pt x="1633" y="682" on="0"/>
        <pt x="1633" y="772" on="1"/>
        <pt x="1633" y="896" on="0"/>
        <pt x="1543" y="1111" on="0"/>
        <pt x="1378" y="1270" on="0"/>
        <pt x="1145" y="1362" on="0"/>
        <pt x="1001" y="1362" on="1"/>
        <pt x="867" y="1362" on="0"/>
        <pt x="618" y="1264" on="0"/>
        <pt x="427" y="1076" on="0"/>
        <pt x="313" y="801" on="0"/>
        <pt x="313" y="623" on="1"/>
        <pt x="313" y="464" on="0"/>
        <pt x="423" y="208" on="0"/>
        <pt x="612" y="26" on="0"/>
        <pt x="864" y="-72" on="0"/>
        <pt x="1007" y="-72" on="1"/>
        <pt x="1279" y="-72" on="0"/>
        <pt x="1515" y="73" on="1"/>
      </contour>
      <contour>
        <pt x="754" y="533" on="1"/>
        <pt x="754" y="490" on="0"/>
        <pt x="775" y="416" on="0"/>
        <pt x="813" y="361" on="0"/>
        <pt x="867" y="330" on="0"/>
        <pt x="901" y="330" on="1"/>
        <pt x="949" y="330" on="0"/>
        <pt x="1023" y="379" on="0"/>
        <pt x="1080" y="462" on="0"/>
        <pt x="1122" y="575" on="0"/>
        <pt x="1153" y="703" on="0"/>
        <pt x="1175" y="840" on="0"/>
        <pt x="1184" y="906" on="1"/>
        <pt x="1176" y="952" on="0"/>
        <pt x="1118" y="1005" on="0"/>
        <pt x="1064" y="1005" on="1"/>
        <pt x="1005" y="1005" on="0"/>
        <pt x="894" y="922" on="0"/>
        <pt x="807" y="788" on="0"/>
        <pt x="754" y="619" on="0"/>
      </contour>
    </TTGlyph>
    <TTGlyph name="atilde" xMin="102" yMin="-24" xMax="1159" yMax="1430">
      <component glyphName="tilde" x="-47" y="-91" flags="0x1004"/>
      <component glyphName="a" x="0" y="0" flags="0x1204"/>
    </TTGlyph>
    <TTGlyph name="b" xMin="37" yMin="-13" xMax="1225" yMax="1569">
      <contour>
        <pt x="999" y="544" on="1"/>
        <pt x="999" y="947" on="0"/>
        <pt x="749" y="947" on="1"/>
        <pt x="596" y="947" on="0"/>
        <pt x="462" y="825" on="1"/>
        <pt x="451" y="750" on="0"/>
        <pt x="442" y="589" on="0"/>
        <pt x="442" y="498" on="1"/>
        <pt x="442" y="404" on="0"/>
        <pt x="449" y="198" on="0"/>
        <pt x="455" y="101" on="1"/>
        <pt x="516" y="95" on="0"/>
        <pt x="650" y="87" on="0"/>
        <pt x="704" y="87" on="1"/>
        <pt x="772" y="87" on="0"/>
        <pt x="881" y="145" on="0"/>
        <pt x="958" y="261" on="0"/>
        <pt x="999" y="431" on="0"/>
      </contour>
      <contour>
        <pt x="131" y="105" on="1"/>
        <pt x="156" y="113" on="0"/>
        <pt x="193" y="134" on="0"/>
        <pt x="217" y="164" on="0"/>
        <pt x="228" y="207" on="0"/>
        <pt x="228" y="237" on="1"/>
        <pt x="228" y="1323" on="1"/>
        <pt x="228" y="1354" on="0"/>
        <pt x="225" y="1413" on="0"/>
        <pt x="221" y="1441" on="1"/>
        <pt x="203" y="1447" on="0"/>
        <pt x="161" y="1455" on="0"/>
        <pt x="134" y="1455" on="1"/>
        <pt x="37" y="1455" on="1"/>
        <pt x="37" y="1542" on="1"/>
        <pt x="85" y="1555" on="0"/>
        <pt x="252" y="1569" on="0"/>
        <pt x="364" y="1569" on="1"/>
        <pt x="406" y="1569" on="0"/>
        <pt x="433" y="1566" on="1"/>
        <pt x="438" y="1544" on="0"/>
        <pt x="442" y="1492" on="0"/>
        <pt x="442" y="1464" on="1"/>
        <pt x="442" y="913" on="1"/>
        <pt x="517" y="991" on="0"/>
        <pt x="693" y="1062" on="0"/>
        <pt x="793" y="1062" on="1"/>
        <pt x="892" y="1062" on="0"/>
        <pt x="1052" y="994" on="0"/>
        <pt x="1165" y="864" on="0"/>
        <pt x="1225" y="674" on="0"/>
        <pt x="1225" y="551" on="1"/>
        <pt x="1225" y="415" on="0"/>
        <pt x="1150" y="205" on="0"/>
        <pt x="1024" y="61" on="0"/>
        <pt x="858" y="-13" on="0"/>
        <pt x="768" y="-13" on="1"/>
        <pt x="688" y="-13" on="0"/>
        <pt x="555" y="-9" on="0"/>
        <pt x="428" y="-4" on="0"/>
        <pt x="296" y="0" on="0"/>
        <pt x="218" y="0" on="1"/>
        <pt x="212" y="0" on="0"/>
        <pt x="185" y="0" on="0"/>
        <pt x="154" y="-1" on="0"/>
        <pt x="126" y="-2" on="0"/>
        <pt x="119" y="-2" on="1"/>
      </contour>
    </TTGlyph>
    <TTGlyph name="backslash" xMin="0" yMin="-66" xMax="891" yMax="1490">
      <contour>
        <pt x="891" y="-66" on="1"/>
        <pt x="782" y="-66" on="1"/>
        <pt x="733" y="-66" on="0"/>
        <pt x="706" y="-37" on="1"/>
        <pt x="0" y="1490" on="1"/>
        <pt x="102" y="1490" on="1"/>
        <pt x="138" y="1490" on="0"/>
        <pt x="176" y="1465" on="0"/>
        <pt x="194" y="1443" on="1"/>
      </contour>
    </TTGlyph>
    <TTGlyph name="bar" xMin="510" yMin="-248" xMax="656" yMax="1595">
      <contour>
        <pt x="656" y="-248" on="1"/>
        <pt x="586" y="-248" on="1"/>
        <pt x="564" y="-248" on="0"/>
        <pt x="532" y="-242" on="0"/>
        <pt x="519" y="-237" on="1"/>
        <pt x="514" y="-197" on="0"/>
        <pt x="510" y="-112" on="0"/>
        <pt x="510" y="-66" on="1"/>
        <pt x="510" y="1595" on="1"/>
        <pt x="580" y="1595" on="1"/>
        <pt x="613" y="1595" on="0"/>
        <pt x="648" y="1573" on="0"/>
        <pt x="656" y="1548" on="1"/>
      </contour>
    </TTGlyph>
    <TTGlyph name="braceleft" xMin="100" yMin="-232" xMax="599" yMax="1564">
      <contour>
        <pt x="393" y="910" on="1"/>
        <pt x="393" y="813" on="0"/>
        <pt x="327" y="687" on="0"/>
        <pt x="258" y="665" on="1"/>
        <pt x="324" y="644" on="0"/>
        <pt x="396" y="525" on="0"/>
        <pt x="396" y="422" on="1"/>
        <pt x="396" y="16" on="1"/>
        <pt x="396" y="-29" on="0"/>
        <pt x="408" y="-84" on="0"/>
        <pt x="432" y="-117" on="0"/>
        <pt x="465" y="-134" on="0"/>
        <pt x="486" y="-141" on="1"/>
        <pt x="510" y="-149" on="0"/>
        <pt x="567" y="-158" on="0"/>
        <pt x="599" y="-161" on="1"/>
        <pt x="599" y="-177" on="1"/>
        <pt x="599" y="-209" on="0"/>
        <pt x="587" y="-222" on="1"/>
        <pt x="569" y="-227" on="0"/>
        <pt x="525" y="-232" on="0"/>
        <pt x="500" y="-232" on="1"/>
        <pt x="438" y="-232" on="0"/>
        <pt x="339" y="-211" on="0"/>
        <pt x="269" y="-155" on="0"/>
        <pt x="232" y="-58" on="0"/>
        <pt x="232" y="17" on="1"/>
        <pt x="232" y="437" on="1"/>
        <pt x="232" y="521" on="0"/>
        <pt x="172" y="620" on="0"/>
        <pt x="102" y="646" on="1"/>
        <pt x="101" y="660" on="0"/>
        <pt x="102" y="692" on="0"/>
        <pt x="100" y="703" on="1"/>
        <pt x="135" y="720" on="0"/>
        <pt x="185" y="757" on="0"/>
        <pt x="217" y="802" on="0"/>
        <pt x="232" y="858" on="0"/>
        <pt x="232" y="896" on="1"/>
        <pt x="232" y="1323" on="1"/>
        <pt x="232" y="1397" on="0"/>
        <pt x="271" y="1491" on="0"/>
        <pt x="343" y="1544" on="0"/>
        <pt x="446" y="1564" on="0"/>
        <pt x="510" y="1564" on="1"/>
        <pt x="527" y="1564" on="0"/>
        <pt x="559" y="1561" on="0"/>
        <pt x="584" y="1549" on="0"/>
        <pt x="599" y="1528" on="0"/>
        <pt x="599" y="1510" on="1"/>
        <pt x="599" y="1494" on="1"/>
        <pt x="530" y="1490" on="0"/>
        <pt x="448" y="1469" on="0"/>
        <pt x="406" y="1429" on="0"/>
        <pt x="393" y="1365" on="0"/>
        <pt x="393" y="1317" on="1"/>
      </contour>
    </TTGlyph>
    <TTGlyph name="braceright" xMin="102" yMin="-232" xMax="598" yMax="1564">
      <contour>
        <pt x="191" y="1564" on="1"/>
        <pt x="265" y="1564" on="0"/>
        <pt x="369" y="1540" on="0"/>
        <pt x="435" y="1480" on="0"/>
        <pt x="465" y="1376" on="0"/>
        <pt x="465" y="1295" on="1"/>
        <pt x="465" y="922" on="1"/>
        <pt x="465" y="886" on="0"/>
        <pt x="475" y="830" on="0"/>
        <pt x="504" y="785" on="0"/>
        <pt x="556" y="748" on="0"/>
        <pt x="598" y="732" on="1"/>
        <pt x="598" y="646" on="1"/>
        <pt x="554" y="631" on="0"/>
        <pt x="501" y="583" on="0"/>
        <pt x="473" y="516" on="0"/>
        <pt x="465" y="427" on="0"/>
        <pt x="465" y="370" on="1"/>
        <pt x="465" y="17" on="1"/>
        <pt x="465" y="-61" on="0"/>
        <pt x="427" y="-159" on="0"/>
        <pt x="355" y="-213" on="0"/>
        <pt x="254" y="-232" on="0"/>
        <pt x="191" y="-232" on="1"/>
        <pt x="173" y="-232" on="0"/>
        <pt x="141" y="-229" on="0"/>
        <pt x="117" y="-217" on="0"/>
        <pt x="102" y="-195" on="0"/>
        <pt x="102" y="-177" on="1"/>
        <pt x="102" y="-161" on="1"/>
        <pt x="168" y="-157" on="0"/>
        <pt x="249" y="-138" on="0"/>
        <pt x="292" y="-99" on="0"/>
        <pt x="307" y="-34" on="0"/>
        <pt x="307" y="16" on="1"/>
        <pt x="307" y="358" on="1"/>
        <pt x="307" y="416" on="0"/>
        <pt x="317" y="516" on="0"/>
        <pt x="346" y="595" on="0"/>
        <pt x="399" y="651" on="0"/>
        <pt x="443" y="665" on="1"/>
        <pt x="402" y="676" on="0"/>
        <pt x="349" y="727" on="0"/>
        <pt x="319" y="797" on="0"/>
        <pt x="307" y="880" on="0"/>
        <pt x="307" y="924" on="1"/>
        <pt x="307" y="1293" on="1"/>
        <pt x="307" y="1360" on="0"/>
        <pt x="286" y="1437" on="0"/>
        <pt x="238" y="1476" on="0"/>
        <pt x="160" y="1490" on="0"/>
        <pt x="102" y="1494" on="1"/>
        <pt x="102" y="1510" on="1"/>
        <pt x="102" y="1528" on="0"/>
        <pt x="117" y="1549" on="0"/>
        <pt x="141" y="1561" on="0"/>
        <pt x="173" y="1564" on="0"/>
      </contour>
    </TTGlyph>
    <TTGlyph name="bracketleft" xMin="205" yMin="-229" xMax="575" yMax="1564">
      <contour>
        <pt x="575" y="-125" on="1"/>
        <pt x="575" y="-160" on="1"/>
        <pt x="575" y="-185" on="0"/>
        <pt x="561" y="-213" on="0"/>
        <pt x="537" y="-226" on="0"/>
        <pt x="504" y="-229" on="0"/>
        <pt x="484" y="-229" on="1"/>
        <pt x="205" y="-229" on="1"/>
        <pt x="205" y="1564" on="1"/>
        <pt x="475" y="1564" on="1"/>
        <pt x="497" y="1564" on="0"/>
        <pt x="534" y="1562" on="0"/>
        <pt x="560" y="1549" on="0"/>
        <pt x="575" y="1520" on="0"/>
        <pt x="575" y="1494" on="1"/>
        <pt x="575" y="1461" on="1"/>
        <pt x="366" y="1461" on="1"/>
        <pt x="366" y="-125" on="1"/>
      </contour>
    </TTGlyph>
    <TTGlyph name="bracketright" xMin="76" yMin="-229" xMax="446" yMax="1564">
      <contour>
        <pt x="285" y="-125" on="1"/>
        <pt x="285" y="1461" on="1"/>
        <pt x="76" y="1461" on="1"/>
        <pt x="76" y="1494" on="1"/>
        <pt x="76" y="1527" on="0"/>
        <pt x="96" y="1558" on="0"/>
        <pt x="122" y="1564" on="1"/>
        <pt x="446" y="1564" on="1"/>
        <pt x="446" y="-229" on="1"/>
        <pt x="194" y="-229" on="1"/>
        <pt x="170" y="-229" on="0"/>
        <pt x="127" y="-227" on="0"/>
        <pt x="95" y="-214" on="0"/>
        <pt x="76" y="-186" on="0"/>
        <pt x="76" y="-160" on="1"/>
        <pt x="76" y="-125" on="1"/>
      </contour>
    </TTGlyph>
    <TTGlyph name="breve" xMin="303" yMin="1266" xMax="959" yMax="1596">
      <contour>
        <pt x="631" y="1404" on="1"/>
        <pt x="677" y="1404" on="0"/>
        <pt x="756" y="1424" on="0"/>
        <pt x="817" y="1470" on="0"/>
        <pt x="859" y="1543" on="0"/>
        <pt x="869" y="1596" on="1"/>
        <pt x="959" y="1559" on="1"/>
        <pt x="955" y="1494" on="0"/>
        <pt x="901" y="1387" on="0"/>
        <pt x="814" y="1309" on="0"/>
        <pt x="698" y="1266" on="0"/>
        <pt x="631" y="1266" on="1"/>
        <pt x="564" y="1266" on="0"/>
        <pt x="448" y="1309" on="0"/>
        <pt x="361" y="1387" on="0"/>
        <pt x="307" y="1494" on="0"/>
        <pt x="303" y="1559" on="1"/>
        <pt x="393" y="1596" on="1"/>
        <pt x="403" y="1543" on="0"/>
        <pt x="445" y="1470" on="0"/>
        <pt x="506" y="1424" on="0"/>
        <pt x="584" y="1404" on="0"/>
      </contour>
    </TTGlyph>
    <TTGlyph name="brokenbar" xMin="209" yMin="-447" xMax="343" yMax="1535">
      <contour>
        <pt x="343" y="732" on="1"/>
        <pt x="285" y="732" on="1"/>
        <pt x="257" y="732" on="0"/>
        <pt x="226" y="743" on="0"/>
        <pt x="212" y="766" on="0"/>
        <pt x="209" y="799" on="0"/>
        <pt x="209" y="822" on="1"/>
        <pt x="209" y="1535" on="1"/>
        <pt x="265" y="1535" on="1"/>
        <pt x="299" y="1535" on="0"/>
        <pt x="335" y="1513" on="0"/>
        <pt x="343" y="1488" on="1"/>
      </contour>
      <contour>
        <pt x="343" y="-447" on="1"/>
        <pt x="285" y="-447" on="1"/>
        <pt x="257" y="-447" on="0"/>
        <pt x="226" y="-436" on="0"/>
        <pt x="212" y="-414" on="0"/>
        <pt x="209" y="-381" on="0"/>
        <pt x="209" y="-358" on="1"/>
        <pt x="209" y="354" on="1"/>
        <pt x="265" y="354" on="1"/>
        <pt x="299" y="354" on="0"/>
        <pt x="335" y="333" on="0"/>
        <pt x="343" y="308" on="1"/>
      </contour>
    </TTGlyph>
    <TTGlyph name="bullet" xMin="100" yMin="365" xMax="650" yMax="913">
      <contour>
        <pt x="100" y="638" on="1"/>
        <pt x="100" y="695" on="0"/>
        <pt x="143" y="795" on="0"/>
        <pt x="217" y="870" on="0"/>
        <pt x="317" y="913" on="0"/>
        <pt x="374" y="913" on="1"/>
        <pt x="431" y="913" on="0"/>
        <pt x="531" y="870" on="0"/>
        <pt x="606" y="795" on="0"/>
        <pt x="650" y="695" on="0"/>
        <pt x="650" y="638" on="1"/>
        <pt x="650" y="581" on="0"/>
        <pt x="606" y="481" on="0"/>
        <pt x="531" y="408" on="0"/>
        <pt x="431" y="365" on="0"/>
        <pt x="374" y="365" on="1"/>
        <pt x="317" y="365" on="0"/>
        <pt x="217" y="408" on="0"/>
        <pt x="143" y="482" on="0"/>
        <pt x="100" y="581" on="0"/>
      </contour>
    </TTGlyph>
    <TTGlyph name="c" xMin="113" yMin="-24" xMax="1002" yMax="1061">
      <contour>
        <pt x="1002" y="54" on="1"/>
        <pt x="936" y="15" on="0"/>
        <pt x="751" y="-24" on="0"/>
        <pt x="648" y="-24" on="1"/>
        <pt x="531" y="-24" on="0"/>
        <pt x="335" y="46" on="0"/>
        <pt x="192" y="181" on="0"/>
        <pt x="113" y="378" on="0"/>
        <pt x="113" y="505" on="1"/>
        <pt x="113" y="638" on="0"/>
        <pt x="197" y="846" on="0"/>
        <pt x="344" y="987" on="0"/>
        <pt x="545" y="1061" on="0"/>
        <pt x="663" y="1061" on="1"/>
        <pt x="714" y="1061" on="0"/>
        <pt x="811" y="1048" on="0"/>
        <pt x="898" y="1023" on="0"/>
        <pt x="972" y="988" on="0"/>
        <pt x="999" y="966" on="1"/>
        <pt x="982" y="765" on="1"/>
        <pt x="910" y="765" on="1"/>
        <pt x="862" y="859" on="0"/>
        <pt x="735" y="947" on="0"/>
        <pt x="642" y="947" on="1"/>
        <pt x="574" y="947" on="0"/>
        <pt x="460" y="890" on="0"/>
        <pt x="378" y="788" on="0"/>
        <pt x="332" y="645" on="0"/>
        <pt x="332" y="560" on="1"/>
        <pt x="332" y="439" on="0"/>
        <pt x="386" y="265" on="0"/>
        <pt x="479" y="154" on="0"/>
        <pt x="602" y="101" on="0"/>
        <pt x="672" y="101" on="1"/>
        <pt x="766" y="101" on="0"/>
        <pt x="919" y="142" on="0"/>
        <pt x="988" y="184" on="1"/>
      </contour>
    </TTGlyph>
    <TTGlyph name="cacute" xMin="113" yMin="-24" xMax="1035" yMax="1507">
      <component glyphName="acute" x="204" y="-80" flags="0x1004"/>
      <component glyphName="c" x="0" y="0" flags="0x1204"/>
    </TTGlyph>
    <TTGlyph name="caron" xMin="289" yMin="1229" xMax="995" yMax="1603">
      <contour>
        <pt x="289" y="1589" on="1"/>
        <pt x="336" y="1603" on="0"/>
        <pt x="371" y="1603" on="1"/>
        <pt x="410" y="1603" on="0"/>
        <pt x="439" y="1593" on="1"/>
        <pt x="643" y="1385" on="1"/>
        <pt x="846" y="1593" on="1"/>
        <pt x="861" y="1598" on="0"/>
        <pt x="894" y="1603" on="0"/>
        <pt x="908" y="1603" on="1"/>
        <pt x="931" y="1603" on="0"/>
        <pt x="972" y="1596" on="0"/>
        <pt x="995" y="1589" on="1"/>
        <pt x="931" y="1511" on="0"/>
        <pt x="809" y="1353" on="0"/>
        <pt x="746" y="1275" on="1"/>
        <pt x="725" y="1252" on="0"/>
        <pt x="671" y="1229" on="0"/>
        <pt x="644" y="1229" on="1"/>
        <pt x="617" y="1229" on="0"/>
        <pt x="569" y="1248" on="0"/>
        <pt x="551" y="1268" on="1"/>
      </contour>
    </TTGlyph>
    <TTGlyph name="ccaron" xMin="113" yMin="-24" xMax="1016" yMax="1558">
      <component glyphName="caron" x="21" y="-45" flags="0x1004"/>
      <component glyphName="c" x="0" y="0" flags="0x1204"/>
    </TTGlyph>
    <TTGlyph name="ccedilla" xMin="113" yMin="-517" xMax="1002" yMax="1061">
      <component glyphName="cedilla" x="304" y="-18" flags="0x1004"/>
      <component glyphName="c" x="0" y="0" flags="0x1204"/>
    </TTGlyph>
    <TTGlyph name="cedilla" xMin="123" yMin="-498" xMax="564" yMax="11">
      <contour>
        <pt x="129" y="-366" on="1"/>
        <pt x="162" y="-376" on="0"/>
        <pt x="232" y="-390" on="0"/>
        <pt x="263" y="-390" on="1"/>
        <pt x="326" y="-390" on="0"/>
        <pt x="397" y="-337" on="0"/>
        <pt x="397" y="-291" on="1"/>
        <pt x="397" y="-237" on="0"/>
        <pt x="342" y="-185" on="0"/>
        <pt x="297" y="-178" on="1"/>
        <pt x="289" y="-178" on="0"/>
        <pt x="271" y="-183" on="0"/>
        <pt x="260" y="-186" on="1"/>
        <pt x="248" y="-178" on="0"/>
        <pt x="222" y="-169" on="0"/>
        <pt x="209" y="-163" on="1"/>
        <pt x="294" y="11" on="1"/>
        <pt x="395" y="11" on="1"/>
        <pt x="339" y="-96" on="1"/>
        <pt x="391" y="-99" on="0"/>
        <pt x="474" y="-119" on="0"/>
        <pt x="532" y="-159" on="0"/>
        <pt x="564" y="-224" on="0"/>
        <pt x="564" y="-272" on="1"/>
        <pt x="564" y="-330" on="0"/>
        <pt x="525" y="-415" on="0"/>
        <pt x="456" y="-471" on="0"/>
        <pt x="361" y="-498" on="0"/>
        <pt x="306" y="-498" on="1"/>
        <pt x="243" y="-498" on="0"/>
        <pt x="155" y="-474" on="0"/>
        <pt x="129" y="-457" on="1"/>
        <pt x="123" y="-441" on="0"/>
        <pt x="123" y="-417" on="1"/>
        <pt x="123" y="-393" on="0"/>
      </contour>
    </TTGlyph>
    <TTGlyph name="cent" xMin="162" yMin="-76" xMax="1077" yMax="1347">
      <contour>
        <pt x="601" y="1064" on="1"/>
        <pt x="500" y="1024" on="0"/>
        <pt x="382" y="811" on="0"/>
        <pt x="382" y="636" on="1"/>
        <pt x="382" y="554" on="0"/>
        <pt x="414" y="423" on="0"/>
        <pt x="471" y="323" on="0"/>
        <pt x="552" y="254" on="0"/>
        <pt x="601" y="235" on="1"/>
      </contour>
      <contour>
        <pt x="1077" y="312" on="1"/>
        <pt x="1056" y="256" on="0"/>
        <pt x="982" y="176" on="0"/>
        <pt x="886" y="123" on="0"/>
        <pt x="773" y="94" on="0"/>
        <pt x="713" y="90" on="1"/>
        <pt x="713" y="-76" on="1"/>
        <pt x="668" y="-76" on="1"/>
        <pt x="643" y="-76" on="0"/>
        <pt x="616" y="-67" on="0"/>
        <pt x="603" y="-48" on="0"/>
        <pt x="601" y="-18" on="0"/>
        <pt x="601" y="2" on="1"/>
        <pt x="601" y="92" on="1"/>
        <pt x="499" y="103" on="0"/>
        <pt x="336" y="182" on="0"/>
        <pt x="223" y="312" on="0"/>
        <pt x="162" y="491" on="0"/>
        <pt x="162" y="602" on="1"/>
        <pt x="162" y="721" on="0"/>
        <pt x="227" y="912" on="0"/>
        <pt x="343" y="1054" on="0"/>
        <pt x="504" y="1147" on="0"/>
        <pt x="601" y="1168" on="1"/>
        <pt x="601" y="1347" on="1"/>
        <pt x="645" y="1347" on="1"/>
        <pt x="668" y="1347" on="0"/>
        <pt x="695" y="1339" on="0"/>
        <pt x="709" y="1322" on="0"/>
        <pt x="713" y="1294" on="0"/>
        <pt x="713" y="1274" on="1"/>
        <pt x="713" y="1184" on="1"/>
        <pt x="727" y="1186" on="0"/>
        <pt x="751" y="1187" on="0"/>
        <pt x="762" y="1187" on="1"/>
        <pt x="772" y="1187" on="0"/>
        <pt x="820" y="1185" on="0"/>
        <pt x="882" y="1179" on="0"/>
        <pt x="950" y="1168" on="0"/>
        <pt x="1012" y="1150" on="0"/>
        <pt x="1061" y="1125" on="0"/>
        <pt x="1072" y="1108" on="1"/>
        <pt x="1072" y="1086" on="0"/>
        <pt x="1069" y="1061" on="1"/>
        <pt x="1020" y="885" on="1"/>
        <pt x="920" y="906" on="1"/>
        <pt x="885" y="984" on="0"/>
        <pt x="788" y="1064" on="0"/>
        <pt x="713" y="1072" on="1"/>
        <pt x="713" y="213" on="1"/>
        <pt x="801" y="213" on="0"/>
        <pt x="939" y="281" on="0"/>
        <pt x="999" y="350" on="1"/>
      </contour>
    </TTGlyph>
    <TTGlyph name="circumflex" xMin="289" yMin="1264" xMax="940" yMax="1587">
      <contour>
        <pt x="940" y="1282" on="1"/>
        <pt x="928" y="1264" on="0"/>
        <pt x="887" y="1264" on="1"/>
        <pt x="806" y="1264" on="1"/>
        <pt x="616" y="1456" on="1"/>
        <pt x="422" y="1264" on="1"/>
        <pt x="345" y="1264" on="1"/>
        <pt x="301" y="1264" on="0"/>
        <pt x="289" y="1282" on="1"/>
        <pt x="294" y="1292" on="0"/>
        <pt x="303" y="1308" on="0"/>
        <pt x="311" y="1319" on="1"/>
        <pt x="515" y="1587" on="1"/>
        <pt x="714" y="1587" on="1"/>
        <pt x="919" y="1319" on="1"/>
        <pt x="926" y="1308" on="0"/>
        <pt x="936" y="1292" on="0"/>
      </contour>
    </TTGlyph>
    <TTGlyph name="colon" xMin="166" yMin="-34" xMax="444" yMax="1055">
      <contour>
        <pt x="305" y="244" on="1"/>
        <pt x="335" y="244" on="0"/>
        <pt x="385" y="219" on="0"/>
        <pt x="421" y="179" on="0"/>
        <pt x="442" y="126" on="0"/>
        <pt x="442" y="99" on="1"/>
        <pt x="442" y="63" on="0"/>
        <pt x="418" y="13" on="0"/>
        <pt x="381" y="-19" on="0"/>
        <pt x="335" y="-34" on="0"/>
        <pt x="313" y="-34" on="1"/>
        <pt x="274" y="-34" on="0"/>
        <pt x="218" y="-12" on="0"/>
        <pt x="183" y="25" on="0"/>
        <pt x="166" y="72" on="0"/>
        <pt x="166" y="97" on="1"/>
        <pt x="166" y="173" on="0"/>
        <pt x="244" y="244" on="0"/>
      </contour>
      <contour>
        <pt x="166" y="919" on="1"/>
        <pt x="166" y="981" on="0"/>
        <pt x="244" y="1055" on="0"/>
        <pt x="310" y="1055" on="1"/>
        <pt x="340" y="1055" on="0"/>
        <pt x="389" y="1034" on="0"/>
        <pt x="425" y="998" on="0"/>
        <pt x="444" y="952" on="0"/>
        <pt x="444" y="927" on="1"/>
        <pt x="444" y="889" on="0"/>
        <pt x="422" y="833" on="0"/>
        <pt x="386" y="797" on="0"/>
        <pt x="338" y="779" on="0"/>
        <pt x="313" y="779" on="1"/>
        <pt x="235" y="779" on="0"/>
        <pt x="166" y="859" on="0"/>
      </contour>
    </TTGlyph>
    <TTGlyph name="comma" xMin="61" yMin="-316" xMax="347" yMax="249">
      <contour>
        <pt x="118" y="-316" on="1"/>
        <pt x="87" y="-316" on="0"/>
        <pt x="74" y="-298" on="1"/>
        <pt x="61" y="-267" on="1"/>
        <pt x="95" y="-219" on="0"/>
        <pt x="150" y="-79" on="0"/>
        <pt x="157" y="3" on="1"/>
        <pt x="160" y="41" on="1"/>
        <pt x="143" y="41" on="0"/>
        <pt x="112" y="53" on="0"/>
        <pt x="89" y="73" on="0"/>
        <pt x="76" y="98" on="0"/>
        <pt x="76" y="112" on="1"/>
        <pt x="79" y="154" on="0"/>
        <pt x="104" y="207" on="0"/>
        <pt x="140" y="237" on="0"/>
        <pt x="184" y="249" on="0"/>
        <pt x="205" y="249" on="1"/>
        <pt x="286" y="249" on="0"/>
        <pt x="347" y="188" on="0"/>
        <pt x="347" y="137" on="1"/>
        <pt x="347" y="69" on="0"/>
        <pt x="310" y="-59" on="0"/>
        <pt x="248" y="-175" on="0"/>
        <pt x="164" y="-276" on="0"/>
      </contour>
    </TTGlyph>
    <TTGlyph name="copyright" xMin="113" yMin="-54" xMax="1661" yMax="1494">
      <contour>
        <pt x="1176" y="347" on="1"/>
        <pt x="1125" y="316" on="0"/>
        <pt x="977" y="282" on="0"/>
        <pt x="895" y="282" on="1"/>
        <pt x="802" y="282" on="0"/>
        <pt x="646" y="339" on="0"/>
        <pt x="533" y="447" on="0"/>
        <pt x="470" y="604" on="0"/>
        <pt x="470" y="705" on="1"/>
        <pt x="470" y="813" on="0"/>
        <pt x="536" y="979" on="0"/>
        <pt x="653" y="1093" on="0"/>
        <pt x="813" y="1152" on="0"/>
        <pt x="907" y="1152" on="1"/>
        <pt x="988" y="1152" on="0"/>
        <pt x="1130" y="1110" on="0"/>
        <pt x="1173" y="1071" on="1"/>
        <pt x="1160" y="911" on="1"/>
        <pt x="1103" y="911" on="1"/>
        <pt x="1065" y="989" on="0"/>
        <pt x="963" y="1062" on="0"/>
        <pt x="890" y="1062" on="1"/>
        <pt x="836" y="1062" on="0"/>
        <pt x="746" y="1016" on="0"/>
        <pt x="680" y="934" on="0"/>
        <pt x="644" y="818" on="0"/>
        <pt x="644" y="749" on="1"/>
        <pt x="644" y="651" on="0"/>
        <pt x="687" y="510" on="0"/>
        <pt x="760" y="420" on="0"/>
        <pt x="858" y="378" on="0"/>
        <pt x="914" y="378" on="1"/>
        <pt x="987" y="378" on="0"/>
        <pt x="1110" y="413" on="0"/>
        <pt x="1165" y="450" on="1"/>
      </contour>
      <contour>
        <pt x="113" y="720" on="1"/>
        <pt x="113" y="827" on="0"/>
        <pt x="168" y="1024" on="0"/>
        <pt x="269" y="1196" on="0"/>
        <pt x="411" y="1338" on="0"/>
        <pt x="583" y="1439" on="0"/>
        <pt x="780" y="1494" on="0"/>
        <pt x="887" y="1494" on="1"/>
        <pt x="994" y="1494" on="0"/>
        <pt x="1191" y="1439" on="0"/>
        <pt x="1363" y="1338" on="0"/>
        <pt x="1505" y="1196" on="0"/>
        <pt x="1606" y="1024" on="0"/>
        <pt x="1661" y="827" on="0"/>
        <pt x="1661" y="720" on="1"/>
        <pt x="1661" y="613" on="0"/>
        <pt x="1606" y="416" on="0"/>
        <pt x="1505" y="244" on="0"/>
        <pt x="1363" y="102" on="0"/>
        <pt x="1191" y="1" on="0"/>
        <pt x="994" y="-54" on="0"/>
        <pt x="887" y="-54" on="1"/>
        <pt x="780" y="-54" on="0"/>
        <pt x="583" y="1" on="0"/>
        <pt x="411" y="102" on="0"/>
        <pt x="269" y="244" on="0"/>
        <pt x="168" y="416" on="0"/>
        <pt x="113" y="613" on="0"/>
      </contour>
      <contour>
        <pt x="225" y="720" on="1"/>
        <pt x="225" y="583" on="0"/>
        <pt x="329" y="342" on="0"/>
        <pt x="509" y="162" on="0"/>
        <pt x="750" y="58" on="0"/>
        <pt x="887" y="58" on="1"/>
        <pt x="1024" y="58" on="0"/>
        <pt x="1265" y="162" on="0"/>
        <pt x="1445" y="342" on="0"/>
        <pt x="1549" y="583" on="0"/>
        <pt x="1549" y="720" on="1"/>
        <pt x="1549" y="857" on="0"/>
        <pt x="1445" y="1098" on="0"/>
        <pt x="1265" y="1278" on="0"/>
        <pt x="1024" y="1382" on="0"/>
        <pt x="887" y="1382" on="1"/>
        <pt x="750" y="1382" on="0"/>
        <pt x="509" y="1278" on="0"/>
        <pt x="329" y="1098" on="0"/>
        <pt x="225" y="857" on="0"/>
      </contour>
    </TTGlyph>
    <TTGlyph name="currency" xMin="133" yMin="240" xMax="1118" yMax="1224">
      <contour>
        <pt x="989" y="1002" on="1"/>
        <pt x="1079" y="885" on="0"/>
        <pt x="1079" y="730" on="1"/>
        <pt x="1079" y="574" on="0"/>
        <pt x="988" y="462" on="1"/>
        <pt x="1118" y="330" on="1"/>
        <pt x="1110" y="322" on="1"/>
        <pt x="1090" y="302" on="0"/>
        <pt x="1045" y="261" on="0"/>
        <pt x="1024" y="252" on="1"/>
        <pt x="1011" y="257" on="0"/>
        <pt x="979" y="284" on="0"/>
        <pt x="945" y="318" on="0"/>
        <pt x="912" y="354" on="0"/>
        <pt x="897" y="369" on="1"/>
        <pt x="839" y="327" on="0"/>
        <pt x="699" y="279" on="0"/>
        <pt x="624" y="279" on="1"/>
        <pt x="549" y="279" on="0"/>
        <pt x="414" y="326" on="0"/>
        <pt x="357" y="369" on="1"/>
        <pt x="226" y="240" on="1"/>
        <pt x="204" y="261" on="0"/>
        <pt x="157" y="308" on="0"/>
        <pt x="146" y="328" on="1"/>
        <pt x="159" y="356" on="0"/>
        <pt x="184" y="381" on="1"/>
        <pt x="266" y="462" on="1"/>
        <pt x="176" y="576" on="0"/>
        <pt x="176" y="731" on="1"/>
        <pt x="176" y="886" on="0"/>
        <pt x="266" y="1000" on="1"/>
        <pt x="133" y="1131" on="1"/>
        <pt x="156" y="1152" on="0"/>
        <pt x="203" y="1200" on="0"/>
        <pt x="226" y="1210" on="1"/>
        <pt x="238" y="1203" on="0"/>
        <pt x="263" y="1186" on="0"/>
        <pt x="276" y="1173" on="1"/>
        <pt x="356" y="1093" on="1"/>
        <pt x="478" y="1184" on="0"/>
        <pt x="625" y="1184" on="1"/>
        <pt x="698" y="1184" on="0"/>
        <pt x="834" y="1137" on="0"/>
        <pt x="895" y="1092" on="1"/>
        <pt x="1027" y="1224" on="1"/>
        <pt x="1036" y="1215" on="1"/>
        <pt x="1060" y="1192" on="0"/>
        <pt x="1097" y="1147" on="0"/>
        <pt x="1097" y="1121" on="1"/>
        <pt x="1097" y="1110" on="0"/>
        <pt x="1096" y="1108" on="1"/>
      </contour>
      <contour>
        <pt x="308" y="731" on="1"/>
        <pt x="308" y="660" on="0"/>
        <pt x="358" y="542" on="0"/>
        <pt x="445" y="456" on="0"/>
        <pt x="561" y="408" on="0"/>
        <pt x="627" y="408" on="1"/>
        <pt x="695" y="408" on="0"/>
        <pt x="812" y="458" on="0"/>
        <pt x="898" y="545" on="0"/>
        <pt x="947" y="663" on="0"/>
        <pt x="947" y="731" on="1"/>
        <pt x="947" y="800" on="0"/>
        <pt x="898" y="918" on="0"/>
        <pt x="812" y="1005" on="0"/>
        <pt x="695" y="1055" on="0"/>
        <pt x="627" y="1055" on="1"/>
        <pt x="559" y="1055" on="0"/>
        <pt x="443" y="1006" on="0"/>
        <pt x="357" y="919" on="0"/>
        <pt x="308" y="800" on="0"/>
      </contour>
    </TTGlyph>
    <TTGlyph name="d" xMin="113" yMin="-24" xMax="1303" yMax="1569">
      <contour>
        <pt x="903" y="345" on="1"/>
        <pt x="903" y="481" on="0"/>
        <pt x="898" y="723" on="0"/>
        <pt x="891" y="838" on="1"/>
        <pt x="868" y="863" on="0"/>
        <pt x="804" y="903" on="0"/>
        <pt x="734" y="932" on="0"/>
        <pt x="661" y="947" on="0"/>
        <pt x="628" y="947" on="1"/>
        <pt x="550" y="947" on="0"/>
        <pt x="442" y="885" on="0"/>
        <pt x="373" y="771" on="0"/>
        <pt x="342" y="611" on="0"/>
        <pt x="342" y="514" on="1"/>
        <pt x="342" y="302" on="0"/>
        <pt x="483" y="101" on="0"/>
        <pt x="623" y="101" on="1"/>
        <pt x="672" y="101" on="0"/>
        <pt x="761" y="134" on="0"/>
        <pt x="834" y="197" on="0"/>
        <pt x="888" y="288" on="0"/>
      </contour>
      <contour>
        <pt x="1113" y="269" on="1"/>
        <pt x="1113" y="212" on="0"/>
        <pt x="1123" y="131" on="0"/>
        <pt x="1130" y="101" on="1"/>
        <pt x="1303" y="101" on="1"/>
        <pt x="1303" y="15" on="1"/>
        <pt x="1252" y="2" on="0"/>
        <pt x="1123" y="-12" on="0"/>
        <pt x="1045" y="-12" on="1"/>
        <pt x="1010" y="-12" on="0"/>
        <pt x="958" y="-9" on="0"/>
        <pt x="924" y="9" on="0"/>
        <pt x="907" y="48" on="0"/>
        <pt x="907" y="84" on="1"/>
        <pt x="907" y="132" on="1"/>
        <pt x="874" y="90" on="0"/>
        <pt x="793" y="31" on="0"/>
        <pt x="703" y="-7" on="0"/>
        <pt x="606" y="-24" on="0"/>
        <pt x="557" y="-24" on="1"/>
        <pt x="465" y="-24" on="0"/>
        <pt x="304" y="42" on="0"/>
        <pt x="183" y="174" on="0"/>
        <pt x="113" y="372" on="0"/>
        <pt x="113" y="503" on="1"/>
        <pt x="113" y="638" on="0"/>
        <pt x="175" y="849" on="0"/>
        <pt x="292" y="994" on="0"/>
        <pt x="461" y="1069" on="0"/>
        <pt x="568" y="1069" on="1"/>
        <pt x="671" y="1069" on="0"/>
        <pt x="834" y="1002" on="0"/>
        <pt x="900" y="936" on="1"/>
        <pt x="900" y="1354" on="1"/>
        <pt x="900" y="1406" on="0"/>
        <pt x="893" y="1441" on="1"/>
        <pt x="874" y="1447" on="0"/>
        <pt x="833" y="1455" on="0"/>
        <pt x="806" y="1455" on="1"/>
        <pt x="709" y="1455" on="1"/>
        <pt x="709" y="1542" on="1"/>
        <pt x="760" y="1554" on="0"/>
        <pt x="936" y="1569" on="0"/>
        <pt x="1048" y="1569" on="1"/>
        <pt x="1065" y="1569" on="0"/>
        <pt x="1094" y="1568" on="0"/>
        <pt x="1105" y="1566" on="1"/>
        <pt x="1110" y="1549" on="0"/>
        <pt x="1113" y="1509" on="0"/>
        <pt x="1113" y="1486" on="1"/>
      </contour>
    </TTGlyph>
    <TTGlyph name="dagger" xMin="72" yMin="0" xMax="855" yMax="1387">
      <contour>
        <pt x="72" y="1068" on="1"/>
        <pt x="383" y="1068" on="1"/>
        <pt x="383" y="1387" on="1"/>
        <pt x="545" y="1387" on="1"/>
        <pt x="545" y="1068" on="1"/>
        <pt x="855" y="1068" on="1"/>
        <pt x="855" y="957" on="1"/>
        <pt x="545" y="957" on="1"/>
        <pt x="545" y="0" on="1"/>
        <pt x="383" y="0" on="1"/>
        <pt x="383" y="957" on="1"/>
        <pt x="72" y="957" on="1"/>
      </contour>
    </TTGlyph>
    <TTGlyph name="daggerdbl" xMin="72" yMin="0" xMax="855" yMax="1387">
      <contour>
        <pt x="72" y="1106" on="1"/>
        <pt x="383" y="1106" on="1"/>
        <pt x="383" y="1387" on="1"/>
        <pt x="545" y="1387" on="1"/>
        <pt x="545" y="1106" on="1"/>
        <pt x="855" y="1106" on="1"/>
        <pt x="855" y="995" on="1"/>
        <pt x="545" y="995" on="1"/>
        <pt x="545" y="392" on="1"/>
        <pt x="855" y="392" on="1"/>
        <pt x="855" y="280" on="1"/>
        <pt x="545" y="280" on="1"/>
        <pt x="545" y="0" on="1"/>
        <pt x="383" y="0" on="1"/>
        <pt x="383" y="280" on="1"/>
        <pt x="72" y="280" on="1"/>
        <pt x="72" y="392" on="1"/>
        <pt x="383" y="392" on="1"/>
        <pt x="383" y="995" on="1"/>
        <pt x="72" y="995" on="1"/>
      </contour>
    </TTGlyph>
    <TTGlyph name="dcaron" xMin="113" yMin="-24" xMax="1564" yMax="1569">
      <component glyphName="d" x="0" y="0" flags="0x1004"/>
      <component glyphName="quoteright" x="1211" y="0" flags="0x1004"/>
    </TTGlyph>
    <TTGlyph name="dcroat" xMin="113" yMin="-24" xMax="1303" yMax="1569">
      <contour>
        <pt x="714" y="1187" on="1"/>
        <pt x="714" y="1257" on="1"/>
        <pt x="714" y="1279" on="0"/>
        <pt x="726" y="1304" on="0"/>
        <pt x="747" y="1316" on="0"/>
        <pt x="777" y="1319" on="0"/>
        <pt x="796" y="1319" on="1"/>
        <pt x="900" y="1319" on="1"/>
        <pt x="900" y="1354" on="1"/>
        <pt x="900" y="1406" on="0"/>
        <pt x="893" y="1441" on="1"/>
        <pt x="874" y="1447" on="0"/>
        <pt x="833" y="1455" on="0"/>
        <pt x="806" y="1455" on="1"/>
        <pt x="709" y="1455" on="1"/>
        <pt x="709" y="1542" on="1"/>
        <pt x="760" y="1554" on="0"/>
        <pt x="936" y="1569" on="0"/>
        <pt x="1048" y="1569" on="1"/>
        <pt x="1065" y="1569" on="0"/>
        <pt x="1094" y="1568" on="0"/>
        <pt x="1105" y="1566" on="1"/>
        <pt x="1110" y="1549" on="0"/>
        <pt x="1113" y="1509" on="0"/>
        <pt x="1113" y="1486" on="1"/>
        <pt x="1113" y="1319" on="1"/>
        <pt x="1295" y="1319" on="1"/>
        <pt x="1295" y="1267" on="1"/>
        <pt x="1295" y="1233" on="0"/>
        <pt x="1273" y="1196" on="0"/>
        <pt x="1247" y="1187" on="1"/>
        <pt x="1113" y="1187" on="1"/>
        <pt x="1113" y="269" on="1"/>
        <pt x="1113" y="212" on="0"/>
        <pt x="1123" y="131" on="0"/>
        <pt x="1130" y="101" on="1"/>
        <pt x="1303" y="101" on="1"/>
        <pt x="1303" y="15" on="1"/>
        <pt x="1252" y="2" on="0"/>
        <pt x="1123" y="-12" on="0"/>
        <pt x="1045" y="-12" on="1"/>
        <pt x="1010" y="-12" on="0"/>
        <pt x="958" y="-9" on="0"/>
        <pt x="924" y="9" on="0"/>
        <pt x="907" y="48" on="0"/>
        <pt x="907" y="84" on="1"/>
        <pt x="907" y="132" on="1"/>
        <pt x="874" y="90" on="0"/>
        <pt x="793" y="31" on="0"/>
        <pt x="703" y="-7" on="0"/>
        <pt x="606" y="-24" on="0"/>
        <pt x="557" y="-24" on="1"/>
        <pt x="465" y="-24" on="0"/>
        <pt x="304" y="42" on="0"/>
        <pt x="183" y="174" on="0"/>
        <pt x="113" y="372" on="0"/>
        <pt x="113" y="503" on="1"/>
        <pt x="113" y="638" on="0"/>
        <pt x="175" y="849" on="0"/>
        <pt x="292" y="994" on="0"/>
        <pt x="461" y="1069" on="0"/>
        <pt x="568" y="1069" on="1"/>
        <pt x="671" y="1069" on="0"/>
        <pt x="834" y="1002" on="0"/>
        <pt x="900" y="936" on="1"/>
        <pt x="900" y="1187" on="1"/>
      </contour>
      <contour>
        <pt x="903" y="345" on="1"/>
        <pt x="903" y="481" on="0"/>
        <pt x="898" y="723" on="0"/>
        <pt x="891" y="838" on="1"/>
        <pt x="868" y="863" on="0"/>
        <pt x="804" y="903" on="0"/>
        <pt x="734" y="932" on="0"/>
        <pt x="661" y="947" on="0"/>
        <pt x="628" y="947" on="1"/>
        <pt x="550" y="947" on="0"/>
        <pt x="442" y="885" on="0"/>
        <pt x="373" y="771" on="0"/>
        <pt x="342" y="611" on="0"/>
        <pt x="342" y="514" on="1"/>
        <pt x="342" y="302" on="0"/>
        <pt x="483" y="101" on="0"/>
        <pt x="623" y="101" on="1"/>
        <pt x="672" y="101" on="0"/>
        <pt x="761" y="134" on="0"/>
        <pt x="834" y="197" on="0"/>
        <pt x="888" y="288" on="0"/>
      </contour>
    </TTGlyph>
    <TTGlyph name="degree" xMin="98" yMin="805" xMax="739" yMax="1447">
      <contour>
        <pt x="98" y="1126" on="1"/>
        <pt x="98" y="1193" on="0"/>
        <pt x="148" y="1310" on="0"/>
        <pt x="235" y="1397" on="0"/>
        <pt x="351" y="1447" on="0"/>
        <pt x="417" y="1447" on="1"/>
        <pt x="484" y="1447" on="0"/>
        <pt x="602" y="1396" on="0"/>
        <pt x="689" y="1309" on="0"/>
        <pt x="739" y="1192" on="0"/>
        <pt x="739" y="1126" on="1"/>
        <pt x="739" y="1060" on="0"/>
        <pt x="689" y="943" on="0"/>
        <pt x="602" y="856" on="0"/>
        <pt x="484" y="805" on="0"/>
        <pt x="417" y="805" on="1"/>
        <pt x="351" y="805" on="0"/>
        <pt x="235" y="856" on="0"/>
        <pt x="148" y="943" on="0"/>
        <pt x="98" y="1060" on="0"/>
      </contour>
      <contour>
        <pt x="208" y="1126" on="1"/>
        <pt x="208" y="1082" on="0"/>
        <pt x="242" y="1005" on="0"/>
        <pt x="300" y="948" on="0"/>
        <pt x="376" y="916" on="0"/>
        <pt x="417" y="916" on="1"/>
        <pt x="460" y="916" on="0"/>
        <pt x="537" y="949" on="0"/>
        <pt x="594" y="1006" on="0"/>
        <pt x="627" y="1082" on="0"/>
        <pt x="627" y="1126" on="1"/>
        <pt x="627" y="1169" on="0"/>
        <pt x="594" y="1245" on="0"/>
        <pt x="537" y="1303" on="0"/>
        <pt x="460" y="1337" on="0"/>
        <pt x="417" y="1337" on="1"/>
        <pt x="374" y="1337" on="0"/>
        <pt x="298" y="1303" on="0"/>
        <pt x="241" y="1245" on="0"/>
        <pt x="208" y="1169" on="0"/>
      </contour>
    </TTGlyph>
    <TTGlyph name="dieresis" xMin="156" yMin="1299" xMax="726" yMax="1524">
      <component glyphName="periodcentered" x="334" y="814" flags="0x1004"/>
      <component glyphName="periodcentered" x="-10" y="814" flags="0x1004"/>
    </TTGlyph>
    <TTGlyph name="divide" xMin="139" yMin="-34" xMax="1131" yMax="1055">
      <component glyphName="colon" x="307" y="0" flags="0x1004"/>
      <component glyphName="minus" x="-19" y="0" flags="0x1004"/>
    </TTGlyph>
    <TTGlyph name="dollar" xMin="135" yMin="-238" xMax="1158" yMax="1596">
      <contour>
        <pt x="724" y="1468" on="1"/>
        <pt x="787" y="1468" on="0"/>
        <pt x="905" y="1455" on="0"/>
        <pt x="1003" y="1430" on="0"/>
        <pt x="1076" y="1392" on="0"/>
        <pt x="1094" y="1368" on="1"/>
        <pt x="1093" y="1345" on="0"/>
        <pt x="1091" y="1297" on="0"/>
        <pt x="1088" y="1274" on="1"/>
        <pt x="1042" y="1123" on="1"/>
        <pt x="949" y="1148" on="1"/>
        <pt x="933" y="1186" on="0"/>
        <pt x="891" y="1250" on="0"/>
        <pt x="837" y="1299" on="0"/>
        <pt x="768" y="1333" on="0"/>
        <pt x="724" y="1340" on="1"/>
        <pt x="724" y="796" on="1"/>
        <pt x="822" y="755" on="0"/>
        <pt x="982" y="669" on="0"/>
        <pt x="1096" y="566" on="0"/>
        <pt x="1158" y="439" on="0"/>
        <pt x="1158" y="357" on="1"/>
        <pt x="1158" y="274" on="0"/>
        <pt x="1094" y="136" on="0"/>
        <pt x="979" y="35" on="0"/>
        <pt x="819" y="-27" on="0"/>
        <pt x="724" y="-34" on="1"/>
        <pt x="724" y="-238" on="1"/>
        <pt x="656" y="-238" on="1"/>
        <pt x="630" y="-238" on="0"/>
        <pt x="601" y="-230" on="0"/>
        <pt x="587" y="-211" on="0"/>
        <pt x="584" y="-181" on="0"/>
        <pt x="584" y="-159" on="1"/>
        <pt x="584" y="-35" on="1"/>
        <pt x="375" y="-25" on="0"/>
        <pt x="200" y="72" on="1"/>
        <pt x="174" y="86" on="0"/>
        <pt x="143" y="111" on="0"/>
        <pt x="135" y="132" on="1"/>
        <pt x="135" y="188" on="0"/>
        <pt x="144" y="244" on="1"/>
        <pt x="203" y="375" on="1"/>
        <pt x="303" y="335" on="1"/>
        <pt x="349" y="217" on="0"/>
        <pt x="484" y="102" on="0"/>
        <pt x="584" y="91" on="1"/>
        <pt x="584" y="642" on="1"/>
        <pt x="485" y="686" on="0"/>
        <pt x="329" y="771" on="0"/>
        <pt x="221" y="869" on="0"/>
        <pt x="164" y="989" on="0"/>
        <pt x="164" y="1068" on="1"/>
        <pt x="164" y="1153" on="0"/>
        <pt x="222" y="1286" on="0"/>
        <pt x="331" y="1383" on="0"/>
        <pt x="486" y="1445" on="0"/>
        <pt x="584" y="1458" on="1"/>
        <pt x="584" y="1596" on="1"/>
        <pt x="651" y="1596" on="1"/>
        <pt x="683" y="1596" on="0"/>
        <pt x="717" y="1575" on="0"/>
        <pt x="724" y="1550" on="1"/>
      </contour>
      <contour>
        <pt x="372" y="1167" on="1"/>
        <pt x="367" y="1153" on="0"/>
        <pt x="364" y="1124" on="0"/>
        <pt x="364" y="1108" on="1"/>
        <pt x="364" y="1059" on="0"/>
        <pt x="394" y="983" on="0"/>
        <pt x="451" y="922" on="0"/>
        <pt x="533" y="874" on="0"/>
        <pt x="584" y="853" on="1"/>
        <pt x="584" y="1343" on="1"/>
        <pt x="493" y="1331" on="0"/>
        <pt x="389" y="1239" on="0"/>
      </contour>
      <contour>
        <pt x="943" y="324" on="1"/>
        <pt x="943" y="370" on="0"/>
        <pt x="913" y="444" on="0"/>
        <pt x="856" y="505" on="0"/>
        <pt x="775" y="558" on="0"/>
        <pt x="724" y="583" on="1"/>
        <pt x="724" y="89" on="1"/>
        <pt x="773" y="96" on="0"/>
        <pt x="853" y="136" on="0"/>
        <pt x="911" y="196" on="0"/>
        <pt x="943" y="276" on="0"/>
      </contour>
    </TTGlyph>
    <TTGlyph name="dotaccent" xMin="223" yMin="1329" xMax="497" yMax="1600">
      <contour>
        <pt x="371" y="1329" on="1"/>
        <pt x="330" y="1329" on="0"/>
        <pt x="274" y="1351" on="0"/>
        <pt x="239" y="1387" on="0"/>
        <pt x="223" y="1435" on="0"/>
        <pt x="223" y="1462" on="1"/>
        <pt x="223" y="1496" on="0"/>
        <pt x="243" y="1548" on="0"/>
        <pt x="278" y="1582" on="0"/>
        <pt x="323" y="1600" on="0"/>
        <pt x="349" y="1600" on="1"/>
        <pt x="387" y="1600" on="0"/>
        <pt x="443" y="1579" on="0"/>
        <pt x="479" y="1544" on="0"/>
        <pt x="497" y="1499" on="0"/>
        <pt x="497" y="1476" on="1"/>
        <pt x="497" y="1447" on="0"/>
        <pt x="486" y="1394" on="0"/>
        <pt x="458" y="1354" on="0"/>
        <pt x="409" y="1329" on="0"/>
      </contour>
    </TTGlyph>
    <TTGlyph name="dotaccentcmb" xMin="189" yMin="-37" xMax="461" yMax="242">
      <contour>
        <pt x="327" y="-37" on="1"/>
        <pt x="292" y="-37" on="0"/>
        <pt x="240" y="-13" on="0"/>
        <pt x="206" y="26" on="0"/>
        <pt x="189" y="75" on="0"/>
        <pt x="189" y="101" on="1"/>
        <pt x="189" y="127" on="0"/>
        <pt x="206" y="178" on="0"/>
        <pt x="240" y="218" on="0"/>
        <pt x="291" y="242" on="0"/>
        <pt x="325" y="242" on="1"/>
        <pt x="358" y="242" on="0"/>
        <pt x="409" y="218" on="0"/>
        <pt x="444" y="178" on="0"/>
        <pt x="461" y="127" on="0"/>
        <pt x="461" y="100" on="1"/>
        <pt x="461" y="75" on="0"/>
        <pt x="445" y="27" on="0"/>
        <pt x="412" y="-12" on="0"/>
        <pt x="361" y="-36" on="0"/>
      </contour>
    </TTGlyph>
    <TTGlyph name="dotlessi" xMin="47" yMin="-17" xMax="621" yMax="1053">
      <contour>
        <pt x="237" y="839" on="1"/>
        <pt x="237" y="862" on="0"/>
        <pt x="233" y="905" on="0"/>
        <pt x="228" y="925" on="1"/>
        <pt x="195" y="940" on="0"/>
        <pt x="143" y="940" on="1"/>
        <pt x="47" y="940" on="1"/>
        <pt x="47" y="1026" on="1"/>
        <pt x="96" y="1037" on="0"/>
        <pt x="256" y="1053" on="0"/>
        <pt x="359" y="1053" on="1"/>
        <pt x="403" y="1053" on="0"/>
        <pt x="440" y="1043" on="0"/>
        <pt x="450" y="1026" on="1"/>
        <pt x="450" y="227" on="1"/>
        <pt x="450" y="161" on="0"/>
        <pt x="463" y="116" on="1"/>
        <pt x="480" y="104" on="0"/>
        <pt x="525" y="90" on="0"/>
        <pt x="552" y="90" on="1"/>
        <pt x="610" y="90" on="1"/>
        <pt x="621" y="7" on="1"/>
        <pt x="569" y="-6" on="0"/>
        <pt x="437" y="-17" on="0"/>
        <pt x="356" y="-17" on="1"/>
        <pt x="334" y="-17" on="0"/>
        <pt x="289" y="-10" on="0"/>
        <pt x="253" y="9" on="0"/>
        <pt x="230" y="42" on="0"/>
        <pt x="230" y="69" on="1"/>
        <pt x="230" y="118" on="0"/>
        <pt x="237" y="214" on="0"/>
        <pt x="237" y="277" on="1"/>
      </contour>
    </TTGlyph>
    <TTGlyph name="dotlessj" xMin="55" yMin="-374" xMax="647" yMax="1052">
      <contour>
        <pt x="647" y="86" on="1"/>
        <pt x="647" y="-144" on="0"/>
        <pt x="477" y="-374" on="0"/>
        <pt x="314" y="-374" on="1"/>
        <pt x="268" y="-374" on="0"/>
        <pt x="176" y="-362" on="0"/>
        <pt x="139" y="-354" on="1"/>
        <pt x="95" y="-345" on="0"/>
        <pt x="55" y="-333" on="1"/>
        <pt x="102" y="-56" on="1"/>
        <pt x="124" y="-60" on="0"/>
        <pt x="143" y="-64" on="1"/>
        <pt x="160" y="-67" on="0"/>
        <pt x="195" y="-72" on="0"/>
        <pt x="208" y="-74" on="1"/>
        <pt x="208" y="-104" on="0"/>
        <pt x="213" y="-164" on="0"/>
        <pt x="215" y="-187" on="1"/>
        <pt x="218" y="-215" on="0"/>
        <pt x="222" y="-240" on="1"/>
        <pt x="243" y="-243" on="0"/>
        <pt x="263" y="-246" on="1"/>
        <pt x="280" y="-248" on="0"/>
        <pt x="317" y="-252" on="0"/>
        <pt x="331" y="-252" on="1"/>
        <pt x="366" y="-252" on="0"/>
        <pt x="407" y="-192" on="0"/>
        <pt x="428" y="-93" on="0"/>
        <pt x="434" y="36" on="0"/>
        <pt x="434" y="104" on="1"/>
        <pt x="434" y="842" on="1"/>
        <pt x="434" y="862" on="0"/>
        <pt x="431" y="904" on="0"/>
        <pt x="427" y="921" on="1"/>
        <pt x="391" y="936" on="0"/>
        <pt x="341" y="936" on="1"/>
        <pt x="244" y="936" on="1"/>
        <pt x="244" y="1032" on="1"/>
        <pt x="256" y="1035" on="0"/>
        <pt x="307" y="1042" on="0"/>
        <pt x="372" y="1048" on="0"/>
        <pt x="448" y="1052" on="0"/>
        <pt x="486" y="1052" on="1"/>
        <pt x="534" y="1052" on="0"/>
        <pt x="619" y="1043" on="0"/>
        <pt x="647" y="1032" on="1"/>
      </contour>
    </TTGlyph>
    <TTGlyph name="e" xMin="113" yMin="-24" xMax="1068" yMax="1061">
      <contour>
        <pt x="851" y="604" on="1"/>
        <pt x="853" y="608" on="0"/>
        <pt x="853" y="616" on="0"/>
        <pt x="853" y="621" on="1"/>
        <pt x="853" y="687" on="0"/>
        <pt x="826" y="806" on="0"/>
        <pt x="768" y="897" on="0"/>
        <pt x="675" y="950" on="0"/>
        <pt x="608" y="950" on="1"/>
        <pt x="475" y="950" on="0"/>
        <pt x="338" y="774" on="0"/>
        <pt x="329" y="604" on="1"/>
      </contour>
      <contour>
        <pt x="1046" y="167" on="1"/>
        <pt x="989" y="67" on="0"/>
        <pt x="789" y="-24" on="0"/>
        <pt x="646" y="-24" on="1"/>
        <pt x="525" y="-24" on="0"/>
        <pt x="328" y="48" on="0"/>
        <pt x="189" y="187" on="0"/>
        <pt x="113" y="389" on="0"/>
        <pt x="113" y="519" on="1"/>
        <pt x="113" y="645" on="0"/>
        <pt x="187" y="846" on="0"/>
        <pt x="325" y="986" on="0"/>
        <pt x="520" y="1061" on="0"/>
        <pt x="642" y="1061" on="1"/>
        <pt x="732" y="1061" on="0"/>
        <pt x="888" y="1006" on="0"/>
        <pt x="1003" y="903" on="0"/>
        <pt x="1068" y="753" on="0"/>
        <pt x="1068" y="659" on="1"/>
        <pt x="1068" y="602" on="0"/>
        <pt x="1049" y="534" on="0"/>
        <pt x="1012" y="498" on="0"/>
        <pt x="955" y="487" on="0"/>
        <pt x="916" y="487" on="1"/>
        <pt x="330" y="487" on="1"/>
        <pt x="341" y="294" on="0"/>
        <pt x="524" y="101" on="0"/>
        <pt x="679" y="101" on="1"/>
        <pt x="760" y="101" on="0"/>
        <pt x="900" y="151" on="0"/>
        <pt x="960" y="205" on="1"/>
      </contour>
    </TTGlyph>
    <TTGlyph name="eacute" xMin="113" yMin="-24" xMax="1068" yMax="1507">
      <component glyphName="acute" x="182" y="-80" flags="0x1004"/>
      <component glyphName="e" x="0" y="0" flags="0x1204"/>
    </TTGlyph>
    <TTGlyph name="ecaron" xMin="113" yMin="-24" xMax="1068" yMax="1558">
      <component glyphName="caron" x="0" y="-45" flags="0x1004"/>
      <component glyphName="e" x="0" y="0" flags="0x1204"/>
    </TTGlyph>
    <TTGlyph name="ecircumflex" xMin="113" yMin="-24" xMax="1068" yMax="1507">
      <component glyphName="circumflex" x="28" y="-80" flags="0x1004"/>
      <component glyphName="e" x="0" y="0" flags="0x1204"/>
    </TTGlyph>
    <TTGlyph name="edieresis" xMin="113" yMin="-24" xMax="1068" yMax="1409">
      <component glyphName="dieresis" x="201" y="-115" flags="0x1004"/>
      <component glyphName="e" x="0" y="0" flags="0x1204"/>
    </TTGlyph>
    <TTGlyph name="egrave" xMin="113" yMin="-24" xMax="1068" yMax="1507">
      <component glyphName="grave" x="-121" y="-80" flags="0x1004"/>
      <component glyphName="e" x="0" y="0" flags="0x1204"/>
    </TTGlyph>
    <TTGlyph name="eight" xMin="94" yMin="-37" xMax="1080" yMax="1458">
      <contour>
        <pt x="1030" y="1108" on="1"/>
        <pt x="1030" y="1043" on="0"/>
        <pt x="987" y="940" on="0"/>
        <pt x="916" y="854" on="0"/>
        <pt x="824" y="778" on="0"/>
        <pt x="775" y="740" on="1"/>
        <pt x="833" y="714" on="0"/>
        <pt x="943" y="646" on="0"/>
        <pt x="1028" y="556" on="0"/>
        <pt x="1080" y="440" on="0"/>
        <pt x="1080" y="367" on="1"/>
        <pt x="1080" y="262" on="0"/>
        <pt x="1002" y="109" on="0"/>
        <pt x="865" y="10" on="0"/>
        <pt x="681" y="-37" on="0"/>
        <pt x="575" y="-37" on="1"/>
        <pt x="472" y="-37" on="0"/>
        <pt x="296" y="12" on="0"/>
        <pt x="167" y="104" on="0"/>
        <pt x="94" y="238" on="0"/>
        <pt x="94" y="323" on="1"/>
        <pt x="94" y="390" on="0"/>
        <pt x="127" y="510" on="0"/>
        <pt x="197" y="614" on="0"/>
        <pt x="304" y="701" on="0"/>
        <pt x="379" y="735" on="1"/>
        <pt x="306" y="771" on="0"/>
        <pt x="205" y="852" on="0"/>
        <pt x="143" y="945" on="0"/>
        <pt x="116" y="1051" on="0"/>
        <pt x="116" y="1111" on="1"/>
        <pt x="116" y="1196" on="0"/>
        <pt x="190" y="1325" on="0"/>
        <pt x="316" y="1413" on="0"/>
        <pt x="482" y="1458" on="0"/>
        <pt x="575" y="1458" on="1"/>
        <pt x="665" y="1458" on="0"/>
        <pt x="830" y="1413" on="0"/>
        <pt x="956" y="1325" on="0"/>
        <pt x="1030" y="1194" on="0"/>
      </contour>
      <contour>
        <pt x="506" y="676" on="1"/>
        <pt x="403" y="624" on="0"/>
        <pt x="289" y="462" on="0"/>
        <pt x="289" y="356" on="1"/>
        <pt x="289" y="289" on="0"/>
        <pt x="333" y="188" on="0"/>
        <pt x="409" y="121" on="0"/>
        <pt x="514" y="87" on="0"/>
        <pt x="575" y="87" on="1"/>
        <pt x="650" y="87" on="0"/>
        <pt x="760" y="128" on="0"/>
        <pt x="832" y="197" on="0"/>
        <pt x="868" y="287" on="0"/>
        <pt x="868" y="335" on="1"/>
        <pt x="868" y="435" on="0"/>
        <pt x="723" y="590" on="0"/>
        <pt x="592" y="642" on="1"/>
      </contour>
      <contour>
        <pt x="837" y="1099" on="1"/>
        <pt x="837" y="1156" on="0"/>
        <pt x="799" y="1244" on="0"/>
        <pt x="730" y="1305" on="0"/>
        <pt x="633" y="1337" on="0"/>
        <pt x="575" y="1337" on="1"/>
        <pt x="516" y="1337" on="0"/>
        <pt x="420" y="1306" on="0"/>
        <pt x="351" y="1245" on="0"/>
        <pt x="314" y="1156" on="0"/>
        <pt x="314" y="1099" on="1"/>
        <pt x="314" y="1045" on="0"/>
        <pt x="357" y="954" on="0"/>
        <pt x="436" y="879" on="0"/>
        <pt x="546" y="821" on="0"/>
        <pt x="614" y="800" on="1"/>
        <pt x="657" y="824" on="0"/>
        <pt x="738" y="881" on="0"/>
        <pt x="800" y="953" on="0"/>
        <pt x="837" y="1042" on="0"/>
      </contour>
    </TTGlyph>
    <TTGlyph name="ellipsis" xMin="164" yMin="-26" xMax="1824" yMax="238">
      <contour>
        <pt x="164" y="106" on="1"/>
        <pt x="164" y="169" on="0"/>
        <pt x="224" y="238" on="0"/>
        <pt x="285" y="238" on="1"/>
        <pt x="346" y="238" on="0"/>
        <pt x="407" y="169" on="0"/>
        <pt x="407" y="106" on="1"/>
        <pt x="407" y="43" on="0"/>
        <pt x="346" y="-26" on="0"/>
        <pt x="285" y="-26" on="1"/>
        <pt x="224" y="-26" on="0"/>
        <pt x="164" y="43" on="0"/>
      </contour>
      <contour>
        <pt x="872" y="106" on="1"/>
        <pt x="872" y="169" on="0"/>
        <pt x="931" y="238" on="0"/>
        <pt x="994" y="238" on="1"/>
        <pt x="1054" y="238" on="0"/>
        <pt x="1115" y="169" on="0"/>
        <pt x="1115" y="106" on="1"/>
        <pt x="1115" y="43" on="0"/>
        <pt x="1054" y="-26" on="0"/>
        <pt x="994" y="-26" on="1"/>
        <pt x="931" y="-26" on="0"/>
        <pt x="872" y="43" on="0"/>
      </contour>
      <contour>
        <pt x="1581" y="106" on="1"/>
        <pt x="1581" y="169" on="0"/>
        <pt x="1641" y="238" on="0"/>
        <pt x="1702" y="238" on="1"/>
        <pt x="1762" y="238" on="0"/>
        <pt x="1824" y="169" on="0"/>
        <pt x="1824" y="106" on="1"/>
        <pt x="1824" y="43" on="0"/>
        <pt x="1762" y="-26" on="0"/>
        <pt x="1702" y="-26" on="1"/>
        <pt x="1641" y="-26" on="0"/>
        <pt x="1581" y="43" on="0"/>
      </contour>
    </TTGlyph>
    <TTGlyph name="emdash" xMin="-10" yMin="519" xMax="1766" yMax="651">
      <contour>
        <pt x="-10" y="519" on="1"/>
        <pt x="-10" y="581" on="1"/>
        <pt x="-10" y="606" on="0"/>
        <pt x="5" y="635" on="0"/>
        <pt x="30" y="648" on="0"/>
        <pt x="66" y="651" on="0"/>
        <pt x="87" y="651" on="1"/>
        <pt x="1766" y="651" on="1"/>
        <pt x="1766" y="590" on="1"/>
        <pt x="1766" y="558" on="0"/>
        <pt x="1745" y="527" on="0"/>
        <pt x="1719" y="519" on="1"/>
      </contour>
    </TTGlyph>
    <TTGlyph name="endash" xMin="-10" yMin="519" xMax="1000" yMax="651">
      <contour>
        <pt x="-10" y="519" on="1"/>
        <pt x="-10" y="581" on="1"/>
        <pt x="-10" y="606" on="0"/>
        <pt x="5" y="635" on="0"/>
        <pt x="30" y="648" on="0"/>
        <pt x="66" y="651" on="0"/>
        <pt x="87" y="651" on="1"/>
        <pt x="1000" y="651" on="1"/>
        <pt x="1000" y="590" on="1"/>
        <pt x="1000" y="558" on="0"/>
        <pt x="978" y="527" on="0"/>
        <pt x="952" y="519" on="1"/>
      </contour>
    </TTGlyph>
    <TTGlyph name="eogonek" xMin="113" yMin="-436" xMax="1068" yMax="1061">
      <component glyphName="e" x="0" y="0" flags="0x1204"/>
      <component glyphName="ogonek" x="135" y="0" flags="0x1004"/>
    </TTGlyph>
    <TTGlyph name="equal" xMin="133" yMin="332" xMax="1155" yMax="878">
      <contour>
        <pt x="133" y="733" on="1"/>
        <pt x="133" y="802" on="1"/>
        <pt x="133" y="830" on="0"/>
        <pt x="146" y="861" on="0"/>
        <pt x="172" y="876" on="0"/>
        <pt x="208" y="878" on="0"/>
        <pt x="231" y="878" on="1"/>
        <pt x="1155" y="878" on="1"/>
        <pt x="1155" y="811" on="1"/>
        <pt x="1155" y="776" on="0"/>
        <pt x="1133" y="741" on="0"/>
        <pt x="1108" y="733" on="1"/>
      </contour>
      <contour>
        <pt x="133" y="332" on="1"/>
        <pt x="133" y="399" on="1"/>
        <pt x="133" y="424" on="0"/>
        <pt x="139" y="454" on="0"/>
        <pt x="157" y="470" on="0"/>
        <pt x="188" y="475" on="0"/>
        <pt x="213" y="475" on="1"/>
        <pt x="1155" y="475" on="1"/>
        <pt x="1155" y="410" on="1"/>
        <pt x="1155" y="375" on="0"/>
        <pt x="1133" y="340" on="0"/>
        <pt x="1108" y="332" on="1"/>
      </contour>
    </TTGlyph>
    <TTGlyph name="eth" xMin="133" yMin="-29" xMax="1161" yMax="1592">
      <contour>
        <pt x="365" y="1562" on="1"/>
        <pt x="477" y="1554" on="0"/>
        <pt x="668" y="1501" on="0"/>
        <pt x="753" y="1453" on="1"/>
        <pt x="986" y="1592" on="1"/>
        <pt x="1014" y="1556" on="1"/>
        <pt x="1019" y="1546" on="0"/>
        <pt x="1031" y="1530" on="0"/>
        <pt x="1035" y="1522" on="1"/>
        <pt x="1026" y="1507" on="0"/>
        <pt x="983" y="1474" on="0"/>
        <pt x="927" y="1440" on="0"/>
        <pt x="868" y="1408" on="0"/>
        <pt x="844" y="1395" on="1"/>
        <pt x="923" y="1334" on="0"/>
        <pt x="1041" y="1171" on="0"/>
        <pt x="1121" y="974" on="0"/>
        <pt x="1161" y="751" on="0"/>
        <pt x="1161" y="630" on="1"/>
        <pt x="1161" y="547" on="0"/>
        <pt x="1136" y="385" on="0"/>
        <pt x="1083" y="238" on="0"/>
        <pt x="1000" y="114" on="0"/>
        <pt x="884" y="23" on="0"/>
        <pt x="733" y="-29" on="0"/>
        <pt x="639" y="-29" on="1"/>
        <pt x="532" y="-29" on="0"/>
        <pt x="347" y="42" on="0"/>
        <pt x="211" y="178" on="0"/>
        <pt x="133" y="377" on="0"/>
        <pt x="133" y="506" on="1"/>
        <pt x="133" y="629" on="0"/>
        <pt x="212" y="821" on="0"/>
        <pt x="349" y="953" on="0"/>
        <pt x="534" y="1021" on="0"/>
        <pt x="639" y="1021" on="1"/>
        <pt x="719" y="1021" on="0"/>
        <pt x="860" y="978" on="0"/>
        <pt x="925" y="925" on="1"/>
        <pt x="896" y="1058" on="0"/>
        <pt x="777" y="1245" on="0"/>
        <pt x="698" y="1305" on="1"/>
        <pt x="452" y="1161" on="1"/>
        <pt x="424" y="1197" on="1"/>
        <pt x="416" y="1207" on="0"/>
        <pt x="402" y="1222" on="0"/>
        <pt x="400" y="1231" on="1"/>
        <pt x="414" y="1254" on="0"/>
        <pt x="445" y="1272" on="1"/>
        <pt x="609" y="1368" on="1"/>
        <pt x="471" y="1452" on="0"/>
        <pt x="313" y="1474" on="1"/>
      </contour>
      <contour>
        <pt x="575" y="98" on="1"/>
        <pt x="611" y="82" on="0"/>
        <pt x="663" y="82" on="1"/>
        <pt x="732" y="82" on="0"/>
        <pt x="835" y="148" on="0"/>
        <pt x="905" y="270" on="0"/>
        <pt x="940" y="445" on="0"/>
        <pt x="940" y="554" on="1"/>
        <pt x="940" y="596" on="0"/>
        <pt x="932" y="676" on="0"/>
        <pt x="925" y="716" on="1"/>
        <pt x="903" y="770" on="0"/>
        <pt x="843" y="845" on="0"/>
        <pt x="770" y="893" on="0"/>
        <pt x="685" y="914" on="0"/>
        <pt x="639" y="914" on="1"/>
        <pt x="500" y="914" on="0"/>
        <pt x="362" y="707" on="0"/>
        <pt x="362" y="508" on="1"/>
        <pt x="362" y="325" on="0"/>
        <pt x="466" y="126" on="0"/>
      </contour>
    </TTGlyph>
    <TTGlyph name="exclam" xMin="211" yMin="-22" xMax="491" yMax="1457">
      <contour>
        <pt x="429" y="403" on="1"/>
        <pt x="397" y="391" on="0"/>
        <pt x="358" y="391" on="1"/>
        <pt x="332" y="391" on="0"/>
        <pt x="301" y="399" on="0"/>
        <pt x="283" y="418" on="0"/>
        <pt x="276" y="448" on="0"/>
        <pt x="275" y="470" on="1"/>
        <pt x="240" y="1135" on="1"/>
        <pt x="235" y="1235" on="0"/>
        <pt x="219" y="1367" on="0"/>
        <pt x="219" y="1392" on="1"/>
        <pt x="219" y="1399" on="0"/>
        <pt x="219" y="1412" on="0"/>
        <pt x="220" y="1419" on="1"/>
        <pt x="242" y="1438" on="0"/>
        <pt x="305" y="1457" on="0"/>
        <pt x="353" y="1457" on="1"/>
        <pt x="416" y="1457" on="0"/>
        <pt x="466" y="1409" on="0"/>
        <pt x="466" y="1358" on="1"/>
        <pt x="466" y="1352" on="0"/>
        <pt x="465" y="1335" on="0"/>
        <pt x="464" y="1295" on="0"/>
        <pt x="460" y="1223" on="0"/>
        <pt x="453" y="1101" on="0"/>
        <pt x="444" y="920" on="0"/>
        <pt x="437" y="791" on="1"/>
        <pt x="432" y="694" on="0"/>
        <pt x="425" y="545" on="0"/>
        <pt x="425" y="493" on="1"/>
        <pt x="425" y="469" on="0"/>
        <pt x="427" y="423" on="0"/>
      </contour>
      <contour>
        <pt x="351" y="-22" on="1"/>
        <pt x="315" y="-22" on="0"/>
        <pt x="263" y="1" on="0"/>
        <pt x="228" y="40" on="0"/>
        <pt x="211" y="89" on="0"/>
        <pt x="211" y="115" on="1"/>
        <pt x="211" y="140" on="0"/>
        <pt x="229" y="191" on="0"/>
        <pt x="264" y="231" on="0"/>
        <pt x="316" y="256" on="0"/>
        <pt x="351" y="256" on="1"/>
        <pt x="385" y="256" on="0"/>
        <pt x="438" y="231" on="0"/>
        <pt x="473" y="191" on="0"/>
        <pt x="491" y="140" on="0"/>
        <pt x="491" y="115" on="1"/>
        <pt x="491" y="89" on="0"/>
        <pt x="474" y="40" on="0"/>
        <pt x="439" y="1" on="0"/>
        <pt x="386" y="-22" on="0"/>
      </contour>
    </TTGlyph>
    <TTGlyph name="exclamdown" xMin="211" yMin="-23" xMax="491" yMax="1457">
      <component glyphName="exclam" x="0" y="1435" scalex="1.0" scaley="-0.999938964844" flags="0x1000"/>
    </TTGlyph>
    <TTGlyph name="f" xMin="55" yMin="-13" xMax="929" yMax="1564">
      <contour>
        <pt x="136" y="71" on="1"/>
        <pt x="190" y="77" on="0"/>
        <pt x="249" y="93" on="0"/>
        <pt x="276" y="121" on="0"/>
        <pt x="281" y="166" on="0"/>
        <pt x="281" y="200" on="1"/>
        <pt x="281" y="912" on="1"/>
        <pt x="55" y="912" on="1"/>
        <pt x="55" y="987" on="1"/>
        <pt x="69" y="1013" on="0"/>
        <pt x="122" y="1032" on="0"/>
        <pt x="162" y="1032" on="1"/>
        <pt x="281" y="1032" on="1"/>
        <pt x="281" y="1124" on="1"/>
        <pt x="281" y="1242" on="0"/>
        <pt x="342" y="1409" on="0"/>
        <pt x="454" y="1515" on="0"/>
        <pt x="612" y="1564" on="0"/>
        <pt x="709" y="1564" on="1"/>
        <pt x="789" y="1564" on="0"/>
        <pt x="894" y="1532" on="0"/>
        <pt x="929" y="1512" on="1"/>
        <pt x="929" y="1288" on="1"/>
        <pt x="832" y="1288" on="1"/>
        <pt x="819" y="1334" on="0"/>
        <pt x="785" y="1397" on="0"/>
        <pt x="744" y="1435" on="0"/>
        <pt x="698" y="1452" on="0"/>
        <pt x="673" y="1452" on="1"/>
        <pt x="626" y="1452" on="0"/>
        <pt x="559" y="1425" on="0"/>
        <pt x="516" y="1360" on="0"/>
        <pt x="495" y="1252" on="0"/>
        <pt x="495" y="1170" on="1"/>
        <pt x="495" y="1032" on="1"/>
        <pt x="779" y="1032" on="1"/>
        <pt x="779" y="980" on="1"/>
        <pt x="779" y="949" on="0"/>
        <pt x="756" y="918" on="0"/>
        <pt x="731" y="912" on="1"/>
        <pt x="495" y="912" on="1"/>
        <pt x="495" y="238" on="1"/>
        <pt x="495" y="194" on="0"/>
        <pt x="500" y="136" on="0"/>
        <pt x="531" y="99" on="0"/>
        <pt x="597" y="78" on="0"/>
        <pt x="657" y="71" on="1"/>
        <pt x="665" y="-13" on="1"/>
        <pt x="584" y="-7" on="0"/>
        <pt x="452" y="0" on="0"/>
        <pt x="388" y="0" on="1"/>
        <pt x="327" y="0" on="0"/>
        <pt x="204" y="-6" on="0"/>
        <pt x="134" y="-13" on="1"/>
      </contour>
    </TTGlyph>
</ttFont>
